{"glyphs":{"0":{"ha":1610,"x_min":0,"x_max":0,"o":"m 785 1050 b 0 388 351 1050 0 753 b 785 -276 0 21 351 -276 b 1568 388 1217 -276 1568 21 b 785 1050 1568 753 1217 1050 z m 785 -221 b 522 388 640 -221 522 51 b 785 994 522 722 640 994 b 1046 388 929 994 1046 722 b 785 -221 1046 51 929 -221 z "},"1":{"ha":832,"x_min":0,"x_max":0,"o":"m 624 900 b 682 975 642 926 661 951 b 776 1049 713 1010 754 1040 l 347 1049 b 42 815 204 1049 78 953 b 72 335 0 653 7 489 b 143 190 93 285 124 240 b 178 63 161 150 174 107 b 144 -132 186 -4 175 -72 b 11 -278 118 -185 69 -254 l 557 -278 b 722 -167 631 -278 696 -233 b 646 304 790 -17 715 169 b 592 399 629 338 611 368 b 557 454 581 418 568 436 b 524 528 543 478 531 501 b 521 664 513 572 513 619 b 624 900 535 750 575 829 z "},"2":{"ha":2011,"x_min":0,"x_max":0,"o":"m 1890 -278 b 1763 140 1883 -271 1625 -100 l 1299 140 b 1214 6 1229 140 1182 67 b 1215 4 1215 6 1215 4 b 1342 -132 1246 -51 1293 -93 b 1381 -190 1356 -143 1394 -168 b 1297 -215 1365 -215 1322 -217 b 1183 -194 1258 -215 1219 -208 b 1039 -100 1131 -172 1082 -137 b 917 46 992 -58 949 -10 b 872 204 889 93 868 149 b 957 342 876 263 910 310 b 1225 419 1035 394 1133 411 b 1275 1047 1831 475 1969 1047 l 1203 1047 l 394 1047 b 394 629 394 1047 661 897 l 807 629 b 954 775 899 629 942 685 b 869 919 967 857 881 893 b 1031 983 849 969 957 997 b 1200 803 1054 983 1300 946 b 1042 672 1167 756 1115 700 b 304 -278 0 269 588 -68 z "},"3":{"ha":1782,"x_min":0,"x_max":0,"o":"m 974 -278 b 921 356 1740 -278 1581 244 b 728 385 858 367 781 375 b 917 408 810 392 883 401 b 974 1047 1431 517 1664 1047 l 893 1047 l 0 1047 b 1 629 0 1047 296 897 l 457 629 b 619 775 558 629 606 685 b 525 919 633 857 538 893 b 703 983 501 969 622 997 b 293 500 1015 914 940 543 b 188 417 240 497 197 463 b 189 382 185 406 185 393 l 253 193 b 788 211 261 272 524 458 b 876 115 817 183 847 154 b 704 -214 876 115 1076 -151 l 703 -214 b 525 -150 622 -228 501 -200 b 619 -6 538 -124 633 -87 b 457 140 606 85 558 140 l 1 140 b 0 -278 296 -126 0 -278 l 893 -278 z "},"4":{"ha":1651,"x_min":0,"x_max":0,"o":"m 947 -278 l 969 -275 b 947 -278 963 -278 956 -278 l 1610 -278 b 1575 678 1610 -278 1278 414 l 1278 678 b 1028 461 1151 678 1044 585 b 1026 457 1026 460 1026 458 b 1036 303 1025 439 1029 372 b 903 167 1043 225 979 161 b 282 140 746 178 531 178 b 1042 1047 282 140 1408 581 l 469 1047 b 0 213 469 1047 763 611 l 117 3 b 1010 81 117 3 629 122 b 1057 29 1036 78 1056 56 b 947 -278 1064 -212 947 -278 z "},"5":{"ha":1760,"x_min":0,"x_max":0,"o":"m 663 -278 b 1626 246 997 -278 1718 -321 b 678 565 1549 718 865 557 b 882 986 493 572 307 986 b 1014 919 982 986 1032 960 b 929 775 1004 893 917 857 b 1076 629 942 685 985 629 l 1489 629 b 1528 1047 1222 897 1528 1047 l 0 1047 b 71 658 0 1047 135 949 b 779 472 7 368 379 407 b 665 -211 1240 546 1240 -211 b 554 115 665 -211 379 -172 b 589 185 554 115 574 146 b 500 314 614 247 567 314 l 11 314 b 103 31 67 250 138 197 b 663 -278 61 -178 328 -278 z "},"6":{"ha":1892,"x_min":0,"x_max":0,"o":"m 1763 246 b 765 565 1682 718 961 549 b 1003 986 519 586 718 1003 b 1122 899 1146 989 1151 928 b 1185 631 1001 771 1025 632 l 1713 631 b 1661 1049 1432 897 1661 1049 l 813 1047 l 813 1049 b 810 1047 811 1047 811 1047 b 175 97 304 1038 0 593 b 464 -189 224 -43 344 -132 b 865 -278 589 -249 726 -278 b 1763 246 1244 -279 1850 -264 z m 985 -181 b 763 -168 914 -214 826 -214 b 872 472 433 64 671 453 b 985 -181 1288 511 1347 -15 z "},"7":{"ha":1960,"x_min":0,"x_max":0,"o":"m 1918 1047 l 294 1047 b 333 629 294 1047 600 897 l 790 629 b 913 775 839 629 921 699 b 807 904 900 867 818 878 b 972 989 786 954 869 994 b 1258 792 1007 988 1282 976 b 1042 611 1246 699 1114 639 b 243 -278 0 208 526 -68 l 1221 -278 b 1225 360 906 -162 1000 215 b 1656 617 1286 400 1540 489 b 1918 1047 1865 854 1754 971 z "},"8":{"ha":1864,"x_min":0,"x_max":0,"o":"m 1728 246 b 1367 565 1699 403 1556 507 b 1526 761 1467 617 1526 685 b 935 1049 1526 919 1261 1049 b 342 761 607 1049 342 919 b 510 561 342 683 406 613 b 326 488 442 542 381 517 b 311 -187 29 328 0 -50 b 315 -189 313 -187 314 -189 b 751 -278 450 -249 600 -278 b 1728 246 1164 -279 1822 -264 z m 906 993 b 1083 783 1004 993 1083 900 b 1017 619 1083 718 1057 658 b 906 575 986 592 947 575 b 801 614 867 575 831 589 b 728 783 757 653 728 714 b 906 993 728 900 807 993 z m 774 -187 b 896 515 519 -187 606 499 b 774 -187 1350 543 1249 -187 z "},"9":{"ha":1892,"x_min":0,"x_max":0,"o":"m 88 524 b 1085 204 168 51 889 221 b 847 -215 1331 185 1132 -233 b 728 -128 704 -218 699 -158 b 665 140 849 -1 826 138 l 138 140 b 190 -278 418 -126 190 -278 l 1038 -278 b 1040 -278 1039 -278 1039 -278 b 1676 672 1547 -267 1850 176 b 1386 958 1626 813 1506 903 b 985 1047 1261 1018 1124 1047 b 88 524 606 1050 0 1033 z m 865 951 b 1088 938 938 983 1024 983 b 978 299 1418 707 1179 317 b 865 951 563 258 504 786 z "}," ":{"ha":697,"x_min":0,"x_max":0,"o":""}," ":{"ha":697,"x_min":0,"x_max":0,"o":""},"!":{"ha":415,"x_min":0,"x_max":0,"o":"m 374 1049 l 0 1049 l 164 121 l 210 121 z m 186 88 b 4 -96 86 88 4 6 b 186 -278 4 -196 86 -278 b 369 -96 288 -278 369 -196 b 186 88 369 6 288 88 z "},"\"":{"ha":801,"x_min":0,"x_max":0,"o":"m 365 863 b 365 867 365 865 365 867 b 182 1049 365 968 283 1049 b 0 867 82 1049 0 968 b 182 685 0 765 82 685 b 183 685 183 685 183 685 b 125 556 181 604 125 556 b 365 863 335 596 365 851 z m 758 863 b 760 867 758 865 760 867 b 576 1049 760 968 678 1049 b 394 867 476 1049 394 968 b 576 685 394 765 476 685 b 576 685 576 685 576 685 b 519 556 574 604 519 556 b 758 863 728 596 758 851 z "},"#":{"ha":1814,"x_min":0,"x_max":0,"o":"m 1547 1047 l 1496 1047 l 1317 685 l 751 683 l 931 1047 l 879 1047 l 700 683 l 296 683 l 272 638 l 678 639 l 428 131 l 22 131 l 0 85 l 404 85 l 226 -278 l 276 -278 l 456 85 l 1022 85 l 843 -278 l 893 -278 l 1072 85 l 1478 86 l 1500 132 l 1094 131 l 1346 639 l 1750 639 l 1772 685 l 1368 685 l 1547 1047 z m 1044 131 l 478 131 l 728 639 l 1294 639 l 1044 131 z "},"$":{"ha":1588,"x_min":0,"x_max":0,"o":"m 985 776 b 1179 631 999 686 1088 631 l 1546 631 b 1490 1049 1278 899 1490 1049 l 796 1049 l 796 1260 l 750 1260 l 750 1049 l 640 1049 b 354 985 560 1049 442 1032 b 267 911 318 965 288 942 b 269 704 231 861 224 793 b 285 675 274 694 279 685 b 750 331 374 526 576 426 l 750 -197 b 686 -197 728 -197 707 -197 b 617 85 628 -196 403 -97 b 676 276 696 151 693 226 b 522 385 654 343 590 385 l 0 385 b 118 183 172 360 149 249 b 122 -46 83 111 82 25 b 318 -210 165 -121 239 -176 b 336 -218 324 -212 331 -215 b 651 -278 436 -258 543 -278 l 750 -278 l 750 -489 l 796 -489 l 796 -278 b 1107 -219 847 -274 1001 -256 b 1489 160 1290 -157 1489 -4 b 1028 615 1489 379 1210 519 b 796 714 954 656 868 681 l 796 979 b 889 985 846 986 889 985 b 1008 921 889 985 1032 988 b 985 776 1007 919 974 858 z m 750 738 b 688 783 726 750 706 765 b 750 972 572 904 657 953 l 750 738 z m 846 275 b 1031 17 969 199 1056 119 b 796 -196 993 -146 896 -186 l 796 304 b 846 275 813 294 829 285 z "},"%":{"ha":1006,"x_min":0,"x_max":0,"o":"m 825 1049 l 774 1049 l 121 -275 l 172 -275 z m 236 1007 b 0 724 106 1007 0 881 b 236 439 0 567 106 439 b 472 724 367 439 472 567 b 236 1007 472 881 367 1007 z m 236 463 b 113 724 168 463 113 579 b 236 985 113 867 168 985 b 360 724 306 985 360 867 b 236 463 360 579 306 463 z m 728 318 b 492 35 597 318 492 192 b 728 -250 492 -122 597 -250 b 964 35 858 -250 964 -122 b 728 318 964 192 858 318 z m 728 -226 b 604 35 660 -226 604 -110 b 728 294 604 178 660 294 b 851 35 796 294 851 178 b 728 -226 851 -110 796 -226 z "},"&":{"ha":2149,"x_min":0,"x_max":0,"o":"m 1947 708 l 1569 668 b 1396 476 1569 668 1719 538 b 1135 418 1285 456 1199 444 b 944 208 935 336 944 208 b 1086 290 994 246 1040 271 b 1188 221 1135 311 1190 274 b 774 -187 1179 28 1032 -187 b 896 515 518 -187 606 499 b 993 508 932 518 964 515 l 979 558 b 956 574 975 568 965 575 b 906 574 939 574 917 574 b 801 614 867 576 831 589 b 728 783 757 653 728 714 b 906 993 728 899 807 993 b 1083 783 1004 993 1083 899 b 1083 779 1083 782 1083 781 b 1049 690 1082 747 1069 715 b 936 635 1024 661 985 628 b 994 603 936 635 958 619 b 1465 633 1092 557 1292 496 b 1526 761 1504 672 1526 715 b 935 1047 1526 919 1261 1047 b 342 761 607 1047 342 919 b 510 561 342 683 406 613 b 326 488 442 540 381 517 b 311 -187 29 328 0 -50 b 314 -189 313 -187 313 -189 b 751 -278 450 -249 600 -278 b 1728 246 1163 -281 1822 -264 b 1665 381 1718 296 1697 342 b 1761 396 1696 386 1728 390 b 2032 507 1904 421 1986 463 b 1947 708 2107 579 2053 708 z "},"'":{"ha":407,"x_min":0,"x_max":0,"o":"m 364 863 b 365 867 364 865 365 867 b 182 1049 365 968 283 1049 b 0 867 82 1049 0 968 b 182 685 0 765 82 685 b 182 685 182 685 182 685 b 125 556 179 604 125 556 b 364 863 333 596 364 851 z "},"(":{"ha":1143,"x_min":0,"x_max":0,"o":"m 1101 1289 l 1101 1333 b 0 369 493 1333 0 901 b 1101 -594 0 -162 493 -594 l 1101 -549 b 557 371 801 -549 557 -137 b 1101 1289 557 878 801 1289 z "},")":{"ha":1143,"x_min":0,"x_max":0,"o":"m 0 -550 l 0 -594 b 1101 369 608 -594 1101 -162 b 0 1333 1101 901 608 1333 l 0 1288 b 544 369 301 1288 544 876 b 0 -550 544 -139 301 -550 z "},"*":{"ha":832,"x_min":0,"x_max":0,"o":"m 475 1138 b 394 1218 475 1182 439 1218 b 315 1138 351 1218 315 1182 b 394 814 315 1094 394 814 b 475 1138 394 814 475 1094 z m 51 893 b 372 800 89 871 372 800 b 131 1032 372 800 169 1010 b 22 1003 93 1054 44 1040 b 51 893 0 964 13 915 z m 51 681 b 22 572 13 658 0 610 b 131 543 44 533 93 521 b 372 774 169 564 372 774 b 51 681 372 774 89 703 z m 315 436 b 394 357 315 392 351 357 b 475 436 439 357 475 392 b 394 761 475 481 394 761 b 315 436 394 761 315 481 z m 739 681 b 418 774 700 703 418 774 b 658 543 418 774 621 564 b 768 572 697 521 746 533 b 739 681 790 610 778 658 z m 658 1032 b 418 800 621 1010 418 800 b 739 893 418 800 700 871 b 768 1003 778 915 790 964 b 658 1032 746 1040 697 1054 z "},"+":{"ha":1107,"x_min":0,"x_max":0,"o":"m 556 918 l 510 918 l 510 407 l 0 407 l 0 363 l 510 363 l 510 -149 l 556 -149 l 556 363 l 1065 363 l 1065 407 l 556 407 l 556 918 z "},",":{"ha":407,"x_min":0,"x_max":0,"o":"m 183 90 b 0 -93 82 90 0 8 b 183 -275 0 -193 82 -275 b 183 -275 183 -275 183 -275 b 125 -404 181 -356 125 -404 b 365 -97 335 -364 365 -108 b 365 -93 365 -94 365 -93 b 183 90 365 8 283 90 z "},"-":{"ha":1108,"x_min":0,"x_max":0,"o":"m 1067 407 l 0 407 l 0 363 l 1067 363 l 1067 407 z "},"­":{"ha":1108,"x_min":0,"x_max":0,"o":"m 1067 407 l 0 407 l 0 363 l 1067 363 l 1067 407 z "},".":{"ha":407,"x_min":0,"x_max":0,"o":"m 183 90 b 0 -93 82 90 0 8 b 183 -275 0 -193 82 -275 b 365 -93 283 -275 365 -193 b 183 90 365 8 283 90 z "},"/":{"ha":746,"x_min":0,"x_max":0,"o":"m 653 1047 l 0 -278 l 51 -278 l 704 1047 l 653 1047 z "},":":{"ha":407,"x_min":0,"x_max":0,"o":"m 183 90 b 0 -93 82 90 0 8 b 183 -275 0 -193 82 -275 b 365 -93 283 -275 365 -193 b 183 90 365 8 283 90 z m 183 388 b 365 569 283 388 365 468 b 183 751 365 671 283 751 b 0 569 82 751 0 671 b 183 388 0 468 82 388 z "},";":{"ha":407,"x_min":0,"x_max":0,"o":"m 183 388 b 365 569 283 388 365 468 b 183 751 365 671 283 751 b 0 569 82 751 0 671 b 183 388 0 468 82 388 z m 183 90 b 0 -93 82 90 0 8 b 183 -275 0 -193 82 -275 b 183 -275 183 -275 183 -275 b 125 -404 181 -356 125 -404 b 365 -97 335 -364 365 -108 b 365 -93 365 -94 365 -93 b 183 90 365 8 283 90 z "},"<":{"ha":471,"x_min":0,"x_max":0,"o":"m 429 838 l 429 910 l 29 424 l 0 388 l 29 351 l 429 -135 l 429 -62 l 58 388 l 429 838 z "},"=":{"ha":1107,"x_min":0,"x_max":0,"o":"m 0 247 l 1065 247 l 1065 293 l 0 293 l 0 247 z m 0 496 l 1065 496 l 1065 542 l 0 542 l 0 496 z "},">":{"ha":471,"x_min":0,"x_max":0,"o":"m 0 -62 l 0 -135 l 400 351 l 429 388 l 400 424 l 0 910 l 0 838 l 371 388 l 0 -62 z "},"?":{"ha":1617,"x_min":0,"x_max":0,"o":"m 882 1050 l 1 1050 b 0 632 14 1042 260 892 l 413 632 b 561 778 506 632 547 688 b 475 922 574 860 486 896 b 636 986 454 972 563 1000 b 806 806 661 986 906 949 b 703 703 782 771 747 732 b 703 703 703 703 703 703 b 649 674 686 692 668 682 b 617 661 638 669 626 665 b 364 125 489 590 275 422 l 489 125 b 478 207 481 151 476 179 b 563 344 482 265 517 313 b 615 374 579 356 597 365 b 832 422 683 403 760 415 b 882 1050 1436 478 1575 1050 z m 443 88 b 261 -96 342 88 261 6 b 443 -278 261 -196 342 -278 b 625 -96 544 -278 625 -196 b 443 88 625 6 544 88 z "},"@":{"ha":1286,"x_min":0,"x_max":0,"o":"m 629 954 b 14 313 281 954 0 664 b 589 -276 26 0 276 -256 b 1126 -24 810 -290 1007 -187 l 1069 -24 b 597 -231 958 -158 786 -242 b 61 286 317 -215 86 7 b 661 907 31 635 315 925 b 1199 347 957 890 1194 644 b 1168 154 1200 279 1189 215 b 1046 67 1151 101 1101 67 b 964 96 1015 67 986 78 b 918 169 940 114 924 140 b 961 422 906 232 911 314 b 764 674 1017 544 899 674 l 297 674 b 310 507 297 674 438 576 l 625 507 b 586 638 625 507 633 588 b 708 524 586 638 729 642 b 222 232 690 414 231 538 b 664 22 217 3 456 22 l 1033 22 b 1208 129 1158 26 1200 107 b 1210 135 1210 133 1210 135 b 1244 338 1232 199 1244 267 b 629 954 1244 678 968 954 z m 592 188 b 539 65 618 100 592 42 b 715 468 449 103 392 346 b 592 188 711 464 544 351 z "},"A":{"ha":1599,"x_min":0,"x_max":0,"o":"m 1492 -243 b 1393 319 1386 -165 1253 24 b 1415 372 1401 338 1408 356 b 1425 400 1418 382 1422 392 b 1308 879 1522 707 1308 879 b 922 1046 1206 992 1053 1046 l 911 1046 b 121 17 338 1046 -274 753 b 3 -278 240 -206 3 -278 l 604 -278 b 779 -43 728 -278 814 -160 b 699 97 765 4 735 51 b 519 269 646 161 579 219 b 500 371 456 324 475 354 b 553 383 515 381 535 385 b 800 272 649 378 742 342 b 789 -278 969 69 863 -250 l 1557 -278 l 1551 -276 b 1492 -243 1529 -268 1510 -257 z m 911 258 b 815 356 881 300 849 332 b 519 603 728 419 563 503 b 700 974 465 729 479 907 b 911 258 794 1003 1058 838 z "},"B":{"ha":1651,"x_min":0,"x_max":0,"o":"m 900 397 b 897 399 900 397 900 399 b 708 403 878 400 768 410 b 1265 639 729 407 1031 476 b 1367 825 1328 682 1367 750 b 1301 982 1367 886 1342 942 b 1144 1047 1261 1022 1206 1047 l 0 1047 b 89 981 36 1033 67 1011 b 89 981 89 981 89 981 b 201 667 97 974 239 832 b 126 488 188 601 154 544 b 126 185 85 397 56 307 b 149 153 133 175 140 164 b 97 -204 250 7 174 -125 b 97 -204 97 -204 97 -204 b 4 -279 57 -246 18 -272 l 539 -278 b 549 -278 540 -279 543 -279 b 549 -278 549 -278 549 -278 l 1418 -278 b 1610 -86 1524 -278 1610 -192 b 900 397 1610 93 1350 347 z m 640 574 b 664 735 660 628 672 686 b 651 915 644 846 635 875 b 842 943 688 1003 797 990 b 710 489 913 868 956 728 b 556 401 672 453 607 426 b 640 574 558 406 608 483 z m 826 -215 b 640 81 906 -82 758 -1 b 668 331 533 153 506 308 b 867 249 789 346 867 249 b 826 -215 1021 65 1069 -199 z "},"C":{"ha":1583,"x_min":0,"x_max":0,"o":"m 1542 1044 l 953 1044 b 510 965 800 1044 650 1019 b 1 261 272 872 0 676 b 603 -279 1 -39 274 -279 l 1168 -279 b 1328 -249 1224 -279 1278 -269 b 1358 -235 1347 -240 1357 -235 b 1358 -235 1358 -235 1358 -235 b 1522 47 1492 -176 1519 -43 b 1433 138 1525 96 1485 138 l 960 138 b 993 74 974 115 983 93 b 918 -235 1082 -94 1082 -235 b 704 731 753 -235 286 144 b 1056 999 847 931 1056 999 b 876 706 888 908 868 785 b 965 628 882 661 919 628 l 1454 628 b 1421 692 1440 650 1429 672 b 1421 936 1368 804 1383 882 b 1542 1044 1482 1024 1542 1044 z "},"D":{"ha":1639,"x_min":0,"x_max":0,"o":"m 1156 967 b 942 1029 1093 997 1013 1017 b 696 1049 860 1042 778 1049 l 0 1049 b 221 571 38 1035 329 794 b 128 428 194 518 157 475 b 115 -54 60 324 14 206 b 4 -278 115 -54 176 -165 l 1071 -278 b 1596 264 1371 -278 1596 -36 b 1156 967 1597 679 1367 865 z m 963 -57 b 649 -190 883 -172 774 -251 b 642 408 532 -133 474 47 b 700 610 676 485 690 560 b 642 893 722 728 682 828 b 574 982 611 943 574 982 b 928 732 689 993 867 833 b 963 -57 1142 378 1074 107 z "},"E":{"ha":1567,"x_min":0,"x_max":0,"o":"m 1433 139 l 960 139 b 993 75 974 115 983 94 b 918 -233 1082 -93 1082 -233 b 538 319 796 -233 508 -26 b 617 421 539 336 550 394 b 1108 206 733 457 885 206 b 1300 525 1300 206 1304 442 b 1299 525 1300 525 1300 525 b 1299 535 1299 528 1299 535 b 1296 554 1297 546 1296 554 b 1281 536 1290 546 1281 538 b 925 539 1244 504 1140 446 b 614 475 782 601 696 532 b 508 560 568 444 501 490 b 983 978 531 794 840 928 b 1075 1007 983 978 1056 1003 b 965 938 1072 1006 1008 978 b 882 801 918 893 893 846 b 876 707 874 767 874 733 b 965 629 882 663 919 629 l 1454 629 b 1454 629 1454 629 1454 629 b 1421 693 1440 653 1431 674 b 1515 1046 1321 889 1515 1046 l 953 1046 b 510 967 800 1046 650 1021 b 1 263 272 874 0 678 b 603 -278 1 -37 274 -278 l 1168 -278 b 1328 -247 1224 -278 1278 -268 b 1358 -233 1347 -239 1357 -233 b 1358 -233 1358 -233 1358 -233 b 1524 49 1492 -175 1519 -42 b 1433 139 1525 97 1485 139 z "},"F":{"ha":1624,"x_min":0,"x_max":0,"o":"m 978 540 b 742 526 889 586 804 560 b 740 526 742 526 742 526 b 735 522 739 525 738 524 b 674 494 724 517 701 504 b 511 521 618 474 543 461 b 651 814 479 583 508 717 b 1133 1004 871 961 1106 993 b 1040 940 1133 1004 1093 985 b 928 707 1015 919 904 829 b 1017 631 938 664 971 631 l 1506 631 b 1582 1047 1315 919 1582 1047 l 4 1047 b 4 1047 4 1047 4 1047 b 4 1047 4 1047 4 1047 b 6 1047 4 1047 4 1047 b 7 1046 6 1047 6 1046 b 131 731 33 1038 244 958 b 99 675 122 713 111 694 b 131 208 -29 483 51 326 b 224 63 171 149 211 100 b 17 -279 261 -53 106 -236 b 17 -279 17 -279 17 -279 l 656 -279 b 681 -271 663 -279 672 -276 b 733 -219 703 -260 721 -242 b 511 286 881 42 468 158 b 703 425 561 436 661 431 b 707 425 704 425 706 425 b 708 424 707 425 708 425 b 715 424 711 424 714 424 b 715 422 715 422 715 422 b 1160 207 825 397 965 207 b 1349 554 1393 207 1349 554 b 978 540 1349 554 1249 400 z "},"G":{"ha":1632,"x_min":0,"x_max":0,"o":"m 1571 1046 l 951 1046 b 510 967 800 1046 649 1021 b 0 264 272 875 0 678 b 725 -278 0 -37 331 -278 b 903 -278 725 -278 783 -278 l 1019 -278 b 1271 -244 1079 -278 1215 -265 b 1478 -118 1347 -217 1422 -176 b 1533 -42 1500 -96 1518 -71 b 1546 236 1578 43 1590 150 b 1546 236 1546 236 1546 236 b 1046 444 1475 388 1350 551 b 642 436 1036 442 758 307 b 613 226 610 357 601 278 b 840 11 633 124 689 8 b 1189 299 979 13 1153 376 b 939 -211 1331 -14 1071 -190 b 808 -199 897 -218 849 -212 b 704 732 622 -135 358 249 b 1054 1000 844 928 1046 999 b 876 707 886 910 868 786 b 965 629 881 663 919 629 l 1454 629 b 1419 693 1440 653 1429 674 b 1419 938 1368 806 1382 883 b 1571 1046 1482 1025 1571 1046 z m 1164 383 l 1164 385 b 1165 383 1164 385 1164 383 l 1164 383 z "},"H":{"ha":1571,"x_min":0,"x_max":0,"o":"m 890 588 b 743 371 978 425 794 383 b 736 369 740 371 739 369 b 710 365 719 365 710 365 b 539 438 710 365 594 354 b 658 974 407 643 586 892 b 753 1046 689 1008 731 1039 l 324 1046 b 18 814 181 1046 54 951 b 10 456 -8 711 -22 585 b 10 454 10 456 10 456 b 35 369 15 429 22 400 b 36 365 35 368 35 367 b 82 265 53 318 68 286 b 83 265 83 265 83 265 b 89 254 85 261 86 258 b -11 -279 281 -92 10 -271 l 533 -279 b 701 -162 608 -279 676 -233 b 701 -161 701 -161 701 -161 b 715 314 778 60 490 243 b 908 175 794 339 892 247 b 703 -279 981 -144 732 -242 l 994 -279 l 1242 -279 b 1494 -6 1357 -279 1471 -118 b 1385 579 1529 158 1526 326 b 1524 1046 1167 968 1504 1040 b 1524 1046 1524 1046 1524 1046 l 943 1046 b 890 588 885 1046 699 944 z "},"I":{"ha":832,"x_min":0,"x_max":0,"o":"m 624 899 b 682 974 642 925 661 950 b 775 1046 713 1008 754 1039 l 347 1046 b 42 814 204 1046 78 951 b 72 333 0 651 7 486 b 143 189 93 283 124 239 b 178 61 161 149 174 106 b 144 -133 186 -6 175 -74 b 11 -279 118 -186 69 -256 l 557 -279 b 722 -168 631 -279 696 -235 b 646 303 790 -18 715 168 b 592 397 629 335 611 367 b 557 453 581 417 568 435 b 524 526 543 476 531 500 b 521 663 513 571 513 618 b 624 899 535 747 575 828 z "},"J":{"ha":1456,"x_min":0,"x_max":0,"o":"m 1318 514 b 1261 653 1300 564 1281 611 b 1344 1047 1156 869 1344 1047 l 808 1047 b 636 881 715 1047 639 974 b 782 525 633 785 661 657 b 804 500 790 517 797 508 b 856 429 824 478 839 453 b 514 -225 1163 0 853 -225 b 661 67 514 -225 661 -153 b 631 160 661 99 651 131 b 494 224 599 201 547 224 l 0 224 b 35 -278 0 224 297 64 l 911 -279 b 1190 -168 1019 -279 1117 -236 b 1199 -160 1193 -165 1196 -162 b 1318 514 1414 49 1389 308 z "},"K":{"ha":1719,"x_min":0,"x_max":0,"o":"m 1446 147 b 1090 363 1358 289 1142 347 b 1088 364 1090 363 1089 364 b 1083 365 1086 364 1085 364 b 1079 365 1082 365 1081 365 b 1079 365 1079 365 1079 365 b 1078 367 1079 367 1078 367 b 1076 367 1076 367 1076 367 b 901 399 1021 381 963 392 b 899 399 901 399 900 399 b 715 404 879 401 775 410 b 713 403 714 404 714 404 b 715 404 713 403 714 404 b 1333 796 753 408 1369 489 b 1347 915 1328 844 1328 882 b 1347 915 1347 915 1347 915 b 1547 1047 1404 1006 1547 1047 l 1001 1047 b 860 957 940 1047 885 1013 b 850 935 856 950 853 943 b 833 726 832 886 808 815 b 640 432 890 535 678 451 b 486 432 604 414 518 407 b 485 560 456 456 438 494 b 660 763 532 626 614 686 b 679 964 694 818 711 882 b 661 1000 674 975 668 988 b 581 1047 644 1031 614 1047 l 0 1047 b 0 1047 0 1047 0 1047 l 1 1047 l 3 1047 b 164 872 19 1043 103 1013 b 128 675 193 806 164 749 b 82 229 78 575 17 446 b 6 -278 196 -144 6 -278 l 721 -278 b 819 -231 760 -278 796 -260 b 842 -153 835 -203 842 -178 b 642 81 842 -58 735 17 b 669 331 535 154 506 310 b 781 314 713 336 750 328 b 922 -10 882 256 917 200 b 964 -157 924 -71 940 -119 b 996 -200 974 -174 985 -187 b 997 -201 997 -200 997 -201 b 1174 -278 1043 -250 1107 -278 l 1678 -278 b 1446 147 1414 -129 1531 7 z "},"L":{"ha":1500,"x_min":0,"x_max":0,"o":"m 783 67 b 926 -221 785 -151 926 -221 b 653 -162 818 -221 739 -208 b 589 431 468 -64 379 138 b 642 501 606 454 622 478 b 663 526 649 510 656 518 b 808 860 774 647 807 767 b 621 1049 811 964 725 1049 l 0 1049 b 1 1047 0 1049 0 1049 b 81 992 6 1046 40 1028 b 222 638 153 931 243 815 b 128 331 204 490 158 413 b 113 26 99 254 82 174 b 4 -278 113 26 168 -196 l 1411 -278 b 1458 225 1210 92 1458 225 l 897 225 b 783 67 814 183 783 126 z "},"M":{"ha":1999,"x_min":0,"x_max":0,"o":"m 1808 142 b 1717 853 1957 428 1636 664 b 1865 1043 1796 1043 1865 1043 l 1222 1043 b 739 669 771 1043 775 601 b 460 1043 683 778 721 1032 l 0 1043 l 8 1042 l 0 1042 b 58 658 0 1042 135 886 b 108 147 -19 424 0 381 b 39 -282 217 -85 39 -282 l 494 -282 b 718 -78 611 -282 708 -193 b 586 254 726 19 701 139 b 379 926 386 454 374 778 b 435 983 381 946 385 990 b 606 733 500 974 597 885 b 647 364 614 606 617 485 b 879 186 675 258 771 186 l 1082 186 b 1338 954 1082 186 878 632 b 1413 913 1372 976 1417 953 b 1243 474 1401 804 1364 619 b 1160 -103 1118 324 1108 72 b 1399 -283 1192 -210 1289 -283 b 1931 -283 1593 -283 1935 -283 b 1808 142 1925 -283 1660 -143 z "},"N":{"ha":1565,"x_min":0,"x_max":0,"o":"m 1325 278 b 1451 861 1389 499 1453 692 b 1261 1049 1450 965 1364 1049 l 743 1049 b 1026 258 743 1049 1068 721 b 978 239 1024 236 996 224 b 743 789 775 406 779 557 b 450 1047 711 985 546 1047 l 19 1047 b 79 663 19 1047 154 892 b 128 153 0 428 19 385 b 58 -278 236 -79 58 -278 l 514 -278 b 738 -74 631 -278 728 -189 b 606 260 746 24 722 143 b 433 972 385 481 425 861 b 661 519 604 906 626 790 b 825 -1 689 297 738 167 b 882 -93 840 -31 858 -61 b 1247 -278 967 -210 1103 -278 l 1524 -278 b 1325 278 1524 -278 1238 -26 z "},"O":{"ha":1447,"x_min":0,"x_max":0,"o":"m 703 1047 b 0 385 315 1047 0 750 b 703 -278 0 19 315 -278 b 1406 385 1090 -278 1406 19 b 703 1047 1406 750 1090 1047 z m 853 324 b 453 -164 711 11 535 -197 b 553 446 369 -129 413 133 b 951 931 694 758 869 965 b 853 324 1035 897 993 636 z "},"P":{"ha":1407,"x_min":0,"x_max":0,"o":"m 642 371 b 742 411 672 390 707 403 b 1365 826 1004 469 1365 483 b 1301 983 1365 888 1342 943 b 1144 1047 1261 1024 1206 1047 l 208 1047 l 0 1047 b 0 1047 0 1047 0 1047 l 3 1047 b 135 693 18 1043 208 861 b 126 675 132 688 129 681 b 82 229 72 578 15 446 b 6 -278 193 -137 11 -274 l 208 -278 l 772 -278 b 818 -231 797 -265 818 -231 b 640 81 896 -96 758 0 b 556 200 596 111 564 157 b 554 206 556 203 556 204 b 642 371 539 288 593 340 z m 640 574 b 664 736 660 628 672 688 b 656 929 644 847 639 888 b 832 956 692 1015 788 1003 b 710 490 903 881 985 718 b 556 403 669 457 607 426 b 640 574 558 407 608 485 z "},"Q":{"ha":1456,"x_min":0,"x_max":0,"o":"m 707 1047 b 0 385 317 1047 0 750 b 385 -204 0 128 157 -94 b 386 -206 385 -204 385 -204 b 414 -218 396 -210 404 -214 b 556 -450 451 -240 553 -278 b 460 -700 560 -665 460 -700 l 889 -700 b 1011 -482 1007 -700 1074 -576 b 707 -276 944 -385 843 -340 b 1414 385 1081 -258 1414 31 b 707 1047 1414 750 1097 1047 z m 858 324 b 463 -171 722 26 599 -210 b 557 446 379 -136 415 133 b 957 932 699 758 874 965 b 858 324 1040 899 1000 636 z "},"R":{"ha":1715,"x_min":0,"x_max":0,"o":"m 1442 147 b 1088 363 1356 289 1139 347 b 1085 364 1086 363 1085 364 b 1079 365 1083 364 1082 364 b 1076 365 1079 365 1078 365 b 1076 365 1076 365 1076 365 b 1074 367 1075 367 1075 367 b 1072 367 1074 367 1072 367 b 897 399 1018 381 960 392 b 894 399 897 399 897 399 b 778 406 882 400 829 404 b 749 406 768 406 758 406 b 738 406 744 406 740 406 b 713 404 729 406 721 404 b 1265 640 754 413 1040 485 b 1367 826 1328 682 1367 750 b 1301 983 1367 888 1342 943 b 1144 1047 1261 1024 1206 1047 l 208 1047 l 0 1047 b 0 1047 0 1047 0 1047 l 1 1047 b 6 1046 3 1047 4 1046 b 126 888 24 1035 89 971 b 128 675 156 824 167 747 b 82 229 72 578 17 446 b 6 -278 194 -137 13 -274 b 4 -278 6 -278 4 -278 l 539 -278 b 549 -278 540 -278 544 -278 b 550 -278 549 -278 550 -278 l 774 -278 b 819 -231 799 -265 819 -231 b 642 81 897 -96 760 0 b 669 331 535 154 506 310 b 694 332 678 332 686 332 b 700 332 696 332 697 332 b 707 332 703 332 704 332 b 778 314 733 329 757 322 b 919 -10 878 256 913 200 b 961 -157 921 -71 938 -119 b 963 -160 961 -158 961 -158 b 993 -200 971 -175 982 -187 b 994 -201 993 -200 993 -201 b 1156 -276 1036 -247 1094 -274 b 1171 -278 1161 -278 1165 -278 l 1674 -278 b 1569 -203 1629 -253 1596 -228 b 1442 147 1444 -82 1513 31 z m 557 403 b 642 574 558 407 610 485 b 665 736 661 628 674 688 b 657 929 644 847 639 888 b 832 956 693 1015 788 1003 b 710 490 903 881 986 718 b 557 403 671 457 607 426 z "},"S":{"ha":1588,"x_min":0,"x_max":0,"o":"m 985 776 b 1179 631 999 685 1088 631 l 1546 631 b 1488 1047 1279 897 1488 1047 l 639 1047 b 354 983 560 1047 442 1031 b 267 911 318 965 288 940 b 269 703 231 860 224 792 b 285 674 274 693 279 683 b 846 275 390 499 660 389 b 1031 15 969 199 1056 119 b 686 -197 979 -206 817 -200 b 617 83 628 -196 403 -97 b 676 276 696 151 693 226 b 521 385 654 342 590 385 l 0 385 b 117 183 172 360 149 249 b 122 -46 82 110 82 24 b 318 -211 164 -122 239 -176 b 336 -218 324 -214 331 -215 b 651 -278 436 -258 543 -278 l 783 -278 b 1107 -219 814 -278 990 -260 b 1489 158 1290 -157 1489 -4 b 1028 615 1489 379 1210 518 b 688 783 911 678 763 706 b 889 985 488 992 889 985 b 1007 919 889 985 1032 988 b 985 776 1007 918 972 857 z "},"T":{"ha":1796,"x_min":0,"x_max":0,"o":"m 1207 586 b 896 783 1090 649 971 706 b 1097 985 696 992 1097 985 b 1215 919 1097 985 1240 988 b 1193 776 1215 918 1182 857 b 1388 631 1207 685 1296 631 l 1754 631 b 1613 1047 1561 874 1613 1047 l 0 1047 b 11 631 176 760 11 631 l 472 631 b 586 758 533 631 585 681 b 444 974 594 888 388 901 b 625 919 503 1049 611 949 b 947 368 711 783 713 515 b 1089 213 1019 322 1064 268 b 1064 -97 1138 104 1111 -12 b 918 -210 1021 -174 957 -207 b 825 83 715 -232 657 -94 b 885 276 896 160 901 226 b 729 385 863 342 799 385 l 622 385 l 108 385 b 303 183 281 360 333 249 b 331 -46 268 110 290 24 b 526 -211 372 -122 447 -176 b 544 -218 532 -214 539 -215 b 860 -278 644 -258 751 -278 l 992 -278 b 1315 -219 1022 -278 1201 -268 b 1564 158 1467 -157 1564 -6 b 1207 586 1564 379 1388 489 z "},"U":{"ha":1654,"x_min":0,"x_max":0,"o":"m 1539 1049 l 1006 1049 b 1001 1049 1004 1049 1003 1049 b 1000 1049 1001 1049 1001 1049 b 1000 1049 1000 1049 1000 1049 b 988 1047 996 1047 992 1049 b 975 1046 983 1047 979 1046 b 865 964 929 1036 890 1003 b 842 904 854 946 847 925 b 826 813 833 874 828 843 b 832 689 825 771 824 729 b 931 457 843 638 864 556 b 543 -7 1410 -250 543 -358 b 663 421 543 76 594 274 b 471 1049 858 843 543 1049 l 385 1049 l 0 1049 b 140 429 0 1049 217 833 b 185 -31 110 272 107 93 b 707 -278 283 -186 489 -271 b 749 -278 721 -278 735 -278 b 1121 -225 849 -278 1026 -260 b 1392 704 1360 -135 1613 101 b 1539 1049 1290 982 1539 1049 z "},"V":{"ha":1608,"x_min":0,"x_max":0,"o":"m 1567 1049 b 1097 1049 1567 1049 1097 1049 b 906 421 1024 1049 710 843 b 906 421 906 421 906 421 b 983 200 936 356 963 275 b 983 199 983 200 983 199 b 814 -217 1000 75 976 -82 b 611 419 810 -214 383 -19 b 611 421 611 421 611 421 b 613 421 611 421 611 421 b 676 540 619 433 661 511 b 731 688 700 586 719 636 b 740 813 739 729 743 771 b 726 904 739 843 735 874 b 703 964 721 925 714 946 b 593 1046 678 1003 639 1036 b 581 1047 589 1046 585 1047 b 568 1049 576 1049 571 1047 b 567 1049 568 1049 568 1049 b 567 1049 567 1049 567 1049 b 563 1049 565 1049 564 1049 l 119 1049 b 172 643 119 1049 310 956 b 819 -278 0 247 326 -156 b 982 -236 875 -271 929 -254 b 1324 -8 1113 -192 1238 -118 b 1426 219 1375 58 1410 136 b 1406 594 1450 347 1410 467 b 1424 796 1403 661 1408 729 b 1567 1049 1447 896 1496 976 z "},"W":{"ha":2458,"x_min":0,"x_max":0,"o":"m 2325 1049 l 1810 1049 b 1806 1049 1808 1049 1807 1049 b 1804 1049 1806 1049 1806 1049 b 1804 1049 1804 1049 1804 1049 b 1792 1047 1800 1047 1796 1049 b 1779 1046 1788 1047 1783 1046 b 1669 964 1733 1036 1694 1003 b 1646 906 1658 946 1651 926 b 1631 815 1638 876 1632 846 b 1638 689 1629 772 1628 731 b 1735 457 1647 638 1668 556 b 1347 -7 2214 -250 1347 -358 b 1347 8 1347 -4 1347 1 b 1375 125 1351 49 1361 88 b 1408 274 1392 169 1403 219 b 1408 274 1408 274 1408 274 b 1339 704 1421 390 1403 533 b 1397 983 1288 847 1336 932 b 1533 1049 1456 1031 1525 1046 b 1535 1049 1533 1049 1535 1049 l 1275 1049 l 953 1049 l 949 1049 b 949 1049 949 1049 949 1049 b 947 1049 949 1049 947 1049 b 935 1047 944 1047 939 1049 b 922 1046 931 1047 926 1046 b 843 1001 893 1039 865 1022 b 813 964 832 990 821 978 b 789 906 801 946 794 926 b 775 815 781 876 776 846 b 781 689 772 772 771 731 b 879 457 792 638 811 556 b 936 365 900 425 919 394 b 1017 18 1015 221 1035 106 b 461 22 958 -275 461 -235 b 621 421 461 107 553 274 b 492 1049 817 843 564 1049 l 0 1049 b 88 429 0 1049 214 953 b 168 4 50 275 90 129 b 654 -278 267 -151 436 -271 b 675 -278 661 -278 668 -278 b 696 -278 682 -278 689 -278 b 992 -225 797 -278 897 -260 b 1154 -143 1043 -206 1100 -179 b 1511 -278 1249 -221 1369 -274 b 1532 -278 1518 -278 1525 -278 b 1553 -278 1539 -278 1546 -278 b 1849 -225 1653 -278 1754 -260 b 2196 704 2086 -135 2417 101 b 2325 1049 2094 982 2325 1049 z "},"X":{"ha":1825,"x_min":0,"x_max":0,"o":"m 1654 -87 b 1669 -11 1661 -64 1667 -37 b 1199 404 1683 135 1615 324 b 1539 613 1346 442 1492 514 b 1642 1007 1636 817 1454 881 b 1733 1049 1685 1036 1733 1049 l 1638 1049 l 1217 1049 b 975 932 1192 1049 1018 1047 b 954 450 899 728 1325 554 b 785 465 939 446 857 440 b 629 681 690 496 581 588 b 725 925 688 788 750 847 b 571 1049 704 989 646 1049 l 53 1049 b 149 833 53 1049 211 1010 b 593 408 97 690 167 426 b 167 113 450 401 188 356 b 0 -278 151 -58 308 -165 l 314 -278 b 326 -278 314 -278 318 -278 l 640 -278 b 760 -210 692 -278 739 -251 l 760 -208 b 679 96 796 -137 817 -21 b 649 124 668 106 657 114 b 896 376 483 292 731 375 l 899 376 b 940 375 913 376 926 376 b 942 375 940 375 942 375 b 1192 138 1092 369 1321 256 b 1038 -19 1128 79 1060 26 b 1282 -276 979 -142 1131 -276 l 1681 -276 l 1783 -276 b 1688 -222 1783 -276 1728 -262 b 1654 -87 1657 -193 1636 -150 z "},"Y":{"ha":1749,"x_min":0,"x_max":0,"o":"m 1240 36 b 1501 786 1707 413 1557 689 b 1557 1046 1411 940 1557 1046 l 1165 1046 b 1003 986 1103 1046 1043 1026 b 1031 774 929 914 971 832 b 1099 700 1065 740 1097 700 b 746 485 1188 599 1019 367 b 671 657 674 517 618 574 b 568 1046 867 968 615 1046 l 0 1046 b 113 740 0 1046 221 954 b 1008 392 4 526 253 158 b 1313 568 1008 392 1192 439 b 714 197 1313 568 1301 300 b 413 -101 456 153 406 14 b 604 -278 419 -201 504 -278 l 1299 -278 l 1288 -271 b 1240 36 1121 -203 1157 -32 z "},"Z":{"ha":2021,"x_min":0,"x_max":0,"o":"m 1801 256 b 1940 385 1832 300 1878 343 l 1418 385 b 1264 275 1349 385 1285 342 b 1324 83 1247 225 1244 151 b 1257 -212 1538 -99 1504 -212 b 965 24 1199 -212 971 -174 b 1225 418 963 129 1054 353 b 1717 617 1293 444 1601 489 b 1979 1046 1926 854 1817 971 l 356 1047 b 394 629 356 1047 661 896 l 807 629 b 954 775 899 629 942 685 b 869 919 967 857 881 893 b 1031 983 849 969 957 997 b 1200 803 1054 983 1300 946 b 1042 671 1167 756 1115 699 b 304 -278 0 268 588 -69 l 1890 -278 b 1778 -103 1883 -271 1819 -200 b 1801 256 1735 0 1714 132 z "},"[":{"ha":881,"x_min":0,"x_max":0,"o":"m 839 -549 l 514 -549 l 514 1288 l 839 1288 l 839 1333 l 514 1333 l 0 1333 l 0 1288 l 0 -594 l 514 -594 l 839 -594 l 839 -549 z "},"\\":{"ha":746,"x_min":0,"x_max":0,"o":"m 50 1047 l 0 1047 l 653 -278 l 704 -278 z "},"]":{"ha":881,"x_min":0,"x_max":0,"o":"m 0 1288 l 325 1288 l 325 -549 l 0 -549 l 0 -594 l 325 -594 l 839 -594 l 839 -549 l 839 1333 l 325 1333 l 0 1333 l 0 1288 z "},"^":{"ha":701,"x_min":0,"x_max":0,"o":"m 0 1113 l 65 1113 l 329 1374 l 594 1113 l 660 1113 l 329 1438 l 0 1113 z "},"_":{"ha":1108,"x_min":0,"x_max":0,"o":"m 0 -300 l 1067 -300 l 1067 -254 l 0 -254 l 0 -300 z "},"`":{"ha":329,"x_min":0,"x_max":0,"o":"m 56 1488 l 0 1447 l 288 1113 z "},"a":{"ha":1236,"x_min":0,"x_max":0,"o":"m 1097 290 b 817 714 1179 492 1033 714 l 106 714 b 88 460 106 714 225 581 l 481 460 b 542 619 565 460 606 565 b 476 658 526 633 504 647 b 732 486 476 658 788 694 b -8 42 689 322 4 507 b 461 -278 -15 -232 210 -274 l 667 -278 b 1194 -278 983 -278 1194 -278 b 1097 290 1194 -278 929 -122 z m 554 -26 b 474 -212 593 -158 554 -247 b 742 400 336 -154 249 214 b 554 -26 735 394 482 222 z "},"b":{"ha":1239,"x_min":0,"x_max":0,"o":"m 1043 588 b 433 560 724 842 507 643 b 600 774 433 561 440 622 b 649 961 668 836 665 907 b 529 1047 631 1013 583 1047 l -1 1047 b 78 714 -1 1047 156 883 b 69 143 -1 543 -26 333 b -1 -278 203 -121 -1 -278 l 790 -278 b 1201 226 1225 -278 1201 219 b 1043 588 1201 401 1132 518 z m 497 -212 b 418 -28 343 -249 363 -149 b 378 296 485 118 397 193 b 386 410 371 336 376 376 b 529 522 406 474 463 521 b 497 -212 793 529 775 -147 z "},"c":{"ha":1201,"x_min":0,"x_max":0,"o":"m 744 51 b 789 -219 700 -110 1076 -247 b 518 429 615 -203 339 132 b 782 661 614 586 724 646 b 874 635 814 668 854 661 b 719 460 894 606 826 535 l 1054 460 b 1119 521 1089 460 1118 486 b 797 714 1122 596 1054 714 l 624 714 b 164 568 422 714 256 647 b 60 -14 -3 421 -46 179 b 554 -278 210 -285 554 -278 l 925 -278 b 1119 -93 1058 -278 1163 -193 b 1175 132 1042 88 1175 132 l 857 132 b 744 51 806 132 758 100 z "},"d":{"ha":1250,"x_min":0,"x_max":0,"o":"m 669 1047 b 550 961 615 1047 567 1013 b 597 774 532 907 529 836 b 764 560 757 622 764 561 b 154 588 690 643 474 842 b -4 226 67 518 -4 401 b 407 -278 -4 219 -26 -278 l 1199 -278 b 1128 143 1199 -278 994 -121 b 1121 714 1224 333 1199 543 b 1199 1047 1042 883 1199 1047 l 669 1047 z m 781 -28 b 700 -212 835 -149 854 -249 b 668 522 424 -147 404 529 b 813 410 736 521 793 474 b 819 296 822 376 828 336 b 781 -28 801 193 713 118 z "},"e":{"ha":1201,"x_min":0,"x_max":0,"o":"m 531 218 l 976 218 b 1144 453 1099 218 1185 338 b 1142 460 1143 454 1142 457 b 1138 468 1140 463 1139 465 b 1081 574 1124 504 1106 540 b 963 674 1050 614 1013 649 b 776 714 913 699 851 714 l 571 714 b 154 568 375 714 242 647 b 53 -14 -8 421 -50 179 b 532 -278 199 -285 532 -278 l 1153 -278 b 1135 132 943 -64 1135 132 l 875 132 b 738 -219 442 132 1061 -251 b 438 218 608 -207 417 -15 l 531 218 z m 456 333 b 497 429 465 365 479 397 b 718 654 589 583 664 639 b 803 631 764 668 785 658 b 819 471 824 599 833 538 b 758 357 811 428 789 388 b 443 278 657 267 446 278 b 456 333 446 296 450 314 z "},"f":{"ha":1304,"x_min":0,"x_max":0,"o":"m 760 714 l 1129 714 b 1244 889 1219 714 1282 807 b 933 1047 1200 988 1096 1047 l 93 1047 b 207 833 93 1047 193 971 b 99 714 214 769 164 714 l 0 714 b 46 668 0 688 21 668 l 182 668 b 164 625 178 654 171 640 b 171 56 68 436 93 226 b 93 -278 250 -115 93 -278 l 624 -278 b 742 -192 678 -278 725 -243 b 656 75 760 -139 753 -25 b 493 481 457 281 488 454 b 517 561 499 510 508 536 b 665 668 539 625 599 668 l 726 668 b 682 714 726 693 707 714 l 651 714 l 539 714 b 513 797 535 739 526 765 b 613 982 457 917 454 985 b 760 714 939 976 840 785 z "},"g":{"ha":1274,"x_min":0,"x_max":0,"o":"m 1 208 b 161 -153 1 33 72 -83 b 771 -125 481 -407 697 -207 l 840 -47 b 547 -442 840 -47 892 -489 b 458 -419 519 -437 490 -431 b 8 -399 246 -351 101 -365 b -74 -608 -76 -429 -114 -528 l 93 -933 b 558 -747 93 -933 218 -647 b 1124 -87 781 -812 1286 -660 b 1100 549 1124 -87 1029 319 b 1101 551 1100 549 1100 550 b 1101 551 1101 551 1101 551 b 1206 714 1131 656 1206 714 l 414 714 b 1 208 -21 714 1 215 z m 707 649 b 767 464 861 685 771 596 b 826 140 760 317 807 243 b 818 26 833 99 828 58 b 675 -87 799 -39 742 -86 b 707 649 411 -94 429 583 z "},"h":{"ha":1296,"x_min":0,"x_max":0,"o":"m 1047 588 b 438 560 725 839 511 643 b 604 774 438 561 444 622 b 651 961 672 836 669 907 b 532 1047 635 1013 586 1047 l 3 1047 b 81 714 3 1047 160 883 b 74 143 3 543 -22 333 b 3 -278 207 -121 3 -278 l 325 -278 l 414 -278 b 553 -162 481 -278 540 -229 b 411 228 578 -17 457 165 b 382 292 397 247 388 268 b 382 296 382 293 382 294 b 389 410 374 336 379 376 b 533 522 408 474 465 521 b 714 294 636 525 696 424 b 706 106 724 232 719 168 b 856 -278 635 -224 825 -278 l 1231 -278 b 1047 588 917 -43 1374 333 z "},"i":{"ha":692,"x_min":0,"x_max":0,"o":"m 524 -278 b 643 -192 578 -278 625 -243 b 556 75 660 -139 653 -25 b 447 218 507 125 472 174 b 514 658 349 422 444 581 b 571 714 544 694 571 714 l 246 714 b 47 585 160 714 82 663 b 21 513 38 563 28 538 b 72 56 -19 356 8 193 b -7 -278 150 -115 -7 -278 l 524 -278 z m 322 753 b 522 900 432 753 522 818 b 322 1047 522 981 432 1047 b 121 900 211 1047 121 981 b 322 753 121 818 211 753 z "},"j":{"ha":665,"x_min":0,"x_max":0,"o":"m 190 714 b 6 560 100 714 19 649 b 214 47 -31 342 190 81 b -65 -442 353 -140 279 -489 b -154 -419 -93 -437 -122 -431 b -603 -399 -367 -351 -511 -365 b -686 -608 -689 -429 -726 -528 l -519 -933 b -54 -747 -519 -933 -394 -647 b 529 -69 168 -812 692 -642 b 444 229 529 -69 469 67 b 590 711 418 403 474 579 b 593 714 592 713 593 714 l 283 714 l 190 714 z m 299 754 b 500 901 410 754 500 821 b 299 1049 500 983 410 1049 b 99 901 189 1049 99 983 b 299 754 99 821 189 754 z "},"k":{"ha":1263,"x_min":0,"x_max":0,"o":"m 1114 -56 b 1114 -31 1114 -47 1114 -39 b 740 453 1197 504 747 453 b 1060 625 931 472 1042 568 b 1006 714 1075 668 1053 714 l 685 714 b 563 442 747 568 626 474 b 538 431 554 438 546 435 b 538 431 538 431 538 431 b 397 251 411 364 397 251 b 385 283 392 261 388 272 b 382 292 383 286 383 289 b 382 296 382 293 382 294 b 378 350 378 314 378 332 b 447 588 379 449 426 547 b 451 594 449 590 450 593 b 456 601 453 597 454 600 b 457 604 456 603 456 604 b 458 607 457 606 458 607 b 604 774 479 642 521 696 b 651 961 671 836 669 907 b 532 1047 635 1013 586 1047 l 3 1047 b 81 714 3 1047 158 883 b 74 143 3 543 -22 333 b 3 -278 206 -121 3 -278 l 413 -278 b 551 -162 481 -278 540 -231 b 486 110 568 -74 529 29 b 532 318 447 182 467 271 b 625 360 557 336 588 351 b 718 250 694 375 714 311 b 719 236 718 246 718 242 b 718 213 719 228 719 219 b 715 167 718 197 717 182 b 715 164 715 165 715 164 b 714 158 715 161 715 160 b 714 154 714 156 714 154 b 706 106 711 138 708 122 b 856 -278 635 -224 825 -278 l 1231 -278 b 1114 -56 1144 -212 1117 -137 z "},"l":{"ha":711,"x_min":0,"x_max":0,"o":"m 539 1047 l 10 1047 b 88 714 10 1047 165 883 b 79 143 10 543 -15 333 b 10 -278 213 -121 10 -278 l 576 -278 b 464 -112 558 -267 464 -199 b 475 -32 464 -86 468 -60 b 422 268 507 89 453 199 b 463 603 375 379 390 507 b 463 603 463 603 463 603 b 463 604 463 603 463 604 b 611 774 483 638 525 693 b 658 961 678 836 676 907 b 539 1047 642 1013 593 1047 z "},"m":{"ha":1990,"x_min":0,"x_max":0,"o":"m 1875 438 b 1765 588 1851 511 1781 575 b 1446 713 1643 685 1536 715 l 1446 714 b 1099 532 1207 708 1097 535 b 1044 588 1099 532 1053 582 b 433 560 725 842 507 643 b 433 567 433 563 433 564 b 288 714 433 647 368 714 l 0 714 b 0 713 0 714 0 713 b 51 649 3 711 29 688 b 75 501 72 611 88 561 b 54 179 51 400 13 310 b 85 99 60 160 75 121 b 104 38 92 79 99 58 b 0 -278 147 -164 0 -278 l 500 -278 b 617 -172 560 -278 613 -233 b 497 110 626 -51 536 67 b 375 349 449 168 388 260 b 386 410 376 369 381 390 b 529 522 406 474 463 521 b 706 331 624 525 682 442 b 703 106 706 329 728 193 b 853 -278 607 -218 822 -278 l 1228 -278 b 1154 438 971 -86 1229 200 b 1140 469 1151 449 1146 460 b 1146 476 1142 472 1144 474 b 1250 522 1172 504 1210 522 b 1426 331 1344 525 1403 442 b 1424 106 1426 329 1449 193 b 1574 -278 1328 -218 1543 -278 l 1949 -278 b 1875 438 1692 -86 1949 200 z "},"n":{"ha":1250,"x_min":0,"x_max":0,"o":"m 1156 438 b 1044 588 1132 511 1061 575 b 435 560 726 842 508 643 b 435 567 435 563 435 564 b 289 714 435 647 369 714 l 0 714 b 1 713 0 714 0 713 b 53 649 4 711 31 688 b 75 501 74 611 89 561 b 54 179 53 400 14 310 b 86 99 61 160 76 121 b 106 38 93 79 100 58 b 0 -278 149 -164 0 -278 l 501 -278 b 618 -172 561 -278 614 -233 b 499 110 628 -51 538 67 b 376 349 450 168 389 260 b 388 410 378 369 382 390 b 531 522 407 474 464 521 b 706 331 625 525 682 442 b 704 106 707 329 729 193 b 854 -278 607 -218 822 -278 l 1229 -278 b 1156 438 972 -86 1229 200 z "},"o":{"ha":1299,"x_min":0,"x_max":0,"o":"m 629 714 b 0 218 282 714 0 492 b 629 -278 0 -56 282 -278 b 1257 218 975 -278 1257 -56 b 629 714 1257 492 975 714 z m 629 -224 b 444 218 526 -224 444 -26 b 629 658 444 461 526 658 b 813 218 731 658 813 461 b 629 -224 813 -26 731 -224 z "},"p":{"ha":1239,"x_min":0,"x_max":0,"o":"m 790 714 l -1 714 b 69 292 -1 714 203 557 b 76 -278 -26 103 -1 -107 b -1 -611 156 -449 -1 -611 l 529 -611 b 647 -525 583 -611 631 -576 b 600 -337 665 -472 668 -401 b 433 -125 440 -187 433 -125 b 1043 -153 507 -207 724 -407 b 1201 208 1131 -83 1201 33 b 790 714 1201 215 1224 714 z m 529 -87 b 386 26 463 -86 404 -39 b 378 140 376 58 369 99 b 418 464 397 243 485 317 b 497 649 363 583 343 685 b 529 -87 775 583 793 -94 z "},"q":{"ha":1243,"x_min":0,"x_max":0,"o":"m 1194 714 l 403 714 b -8 208 -31 714 -8 215 b 150 -153 -8 33 63 -83 b 760 -125 469 -407 686 -207 b 593 -337 760 -125 753 -187 b 546 -525 526 -401 528 -472 b 665 -611 563 -576 611 -611 l 1194 -611 b 1117 -278 1194 -611 1039 -449 b 1124 292 1194 -107 1219 103 b 1194 714 992 557 1194 714 z m 808 26 b 664 -87 789 -39 732 -86 b 696 649 400 -94 419 583 b 776 464 850 685 831 583 b 815 140 708 317 797 243 b 808 26 824 99 818 58 z "},"r":{"ha":1201,"x_min":0,"x_max":0,"o":"m 1044 588 b 435 560 725 842 508 643 b 288 714 439 643 371 714 l 78 714 l 0 714 b 0 713 0 714 0 713 b 51 649 3 711 31 688 b 75 501 72 611 89 561 b 54 179 51 400 14 310 b 85 99 60 160 75 121 b 104 38 93 79 100 58 b 0 -278 149 -164 0 -278 l 310 -278 l 501 -278 b 618 -174 561 -278 613 -233 b 499 110 628 -51 538 67 b 375 349 449 168 388 260 b 386 410 376 369 381 390 b 531 522 406 474 463 521 b 717 240 647 526 710 393 l 1160 439 b 1044 588 1132 503 1090 551 z "},"s":{"ha":1281,"x_min":0,"x_max":0,"o":"m 874 393 b 717 379 821 394 769 389 b 476 363 667 368 569 354 b 508 628 378 372 324 532 b 631 656 546 647 588 656 l 682 656 b 535 557 682 656 569 629 b 600 460 513 511 547 460 l 1038 460 b 983 714 1038 460 824 551 l 558 714 b 1 385 558 714 -35 747 b 700 247 36 32 525 324 b 601 -178 822 194 757 -189 b 504 113 463 -168 621 31 b 397 131 479 131 428 131 l 1 131 b 103 -61 1 131 92 63 b 483 -278 118 -235 242 -278 b 874 393 1340 -278 1429 381 z "},"t":{"ha":1279,"x_min":0,"x_max":0,"o":"m 1111 131 l 750 131 b 840 -67 750 131 844 31 b 768 -179 839 -107 819 -147 b 546 -121 607 -278 553 -140 b 544 -118 544 -119 544 -118 b 556 56 531 -67 528 -6 b 611 221 581 107 603 163 b 590 549 631 358 613 471 b 681 668 574 608 619 668 b 682 668 682 668 682 668 l 700 668 l 825 668 b 671 564 728 661 686 613 b 747 460 654 513 693 460 l 1061 460 b 1097 714 922 603 1097 714 l 726 714 l 629 714 b 521 833 564 714 514 769 b 635 1047 535 971 635 1047 l 281 1047 b 178 1003 242 1047 204 1032 b 160 981 171 996 165 988 b 189 714 99 875 189 714 l 46 714 b 14 700 33 714 22 708 b 0 668 6 692 0 681 l 63 668 b 211 561 129 668 189 625 b 235 481 219 536 229 510 b 175 210 238 464 246 342 b 168 192 172 204 171 197 b 490 -278 78 -33 247 -278 l 635 -278 l 726 -278 b 1233 3 1143 -278 1228 -117 b 1233 4 1233 4 1233 4 b 1111 131 1238 74 1181 131 z "},"u":{"ha":1271,"x_min":0,"x_max":0,"o":"m 1229 714 l 728 714 b 611 608 668 714 617 668 b 731 325 601 486 692 369 b 853 88 779 268 840 176 b 842 26 851 65 847 44 b 699 -87 824 -39 765 -86 b 524 106 604 -90 547 -7 b 526 329 524 106 500 242 b 375 714 622 653 407 714 l 0 714 b 74 -1 257 522 0 236 b 185 -153 97 -76 168 -140 b 794 -125 504 -407 721 -207 b 885 -278 774 -167 803 -278 l 1229 -278 b 1229 -278 1229 -278 1229 -278 b 1176 -214 1226 -275 1199 -251 b 1154 -67 1157 -176 1140 -125 b 1175 256 1176 36 1215 126 b 1144 338 1168 276 1153 314 b 1125 399 1136 357 1129 376 b 1229 714 1081 600 1229 714 z "},"v":{"ha":1269,"x_min":0,"x_max":0,"o":"m 678 701 b 679 413 628 679 565 611 b 614 -235 843 128 815 58 b 497 210 614 -235 408 -31 b 479 667 578 426 582 583 b 342 714 442 699 392 714 l 0 714 b 131 304 0 714 196 583 b 615 -279 67 25 390 -262 b 1099 361 615 -279 1210 -96 b 1228 714 1099 361 1038 636 l 733 714 b 678 701 714 714 696 710 z "},"w":{"ha":1992,"x_min":0,"x_max":0,"o":"m 1332 607 b 1451 325 1322 486 1413 368 b 1596 -12 1500 267 1625 140 b 1419 -154 1583 -72 1531 -157 b 1243 104 1325 -151 1267 -7 b 1246 329 1243 106 1221 242 b 1096 713 1342 653 1126 713 l 721 713 b 794 -3 978 521 719 235 b 808 -35 797 -14 803 -25 b 808 -36 808 -35 808 -36 b 699 -87 781 -67 742 -87 b 522 104 604 -90 547 -7 b 525 329 522 106 500 242 b 375 713 622 653 407 713 l 0 713 b 74 -3 257 521 0 235 b 185 -153 97 -76 168 -140 b 503 -278 306 -250 414 -281 l 503 -279 b 850 -97 739 -275 850 -103 b 904 -153 850 -97 897 -147 b 974 -201 928 -172 951 -187 b 1256 -274 1057 -254 1156 -278 b 1806 285 1839 -242 1835 108 b 1799 339 1801 303 1800 321 b 1947 711 1778 586 1929 699 b 1949 713 1949 713 1949 713 b 1949 713 1949 713 1949 713 l 1950 713 l 1449 713 b 1332 607 1389 713 1336 668 z "},"x":{"ha":1318,"x_min":0,"x_max":0,"o":"m 1153 -75 b 681 243 1154 233 681 243 b 1171 554 681 243 1239 299 b 1256 714 1171 554 1144 685 l 782 714 b 706 692 754 714 728 707 b 692 544 671 669 640 625 b 606 286 779 406 707 311 b 494 531 504 261 396 421 b 508 549 500 538 504 543 b 408 714 560 619 501 714 l 14 714 b 89 507 14 714 118 672 b 493 243 61 342 233 215 b 125 57 493 243 169 206 b 0 -278 81 -92 199 -132 l 450 -278 b 582 -72 565 -278 639 -165 b 494 25 563 -42 535 -8 b 704 149 306 181 638 272 b 693 -26 747 69 719 24 b 864 -278 629 -143 722 -278 l 1276 -278 b 1153 -75 1276 -278 1151 -239 z "},"y":{"ha":1353,"x_min":0,"x_max":0,"o":"m 894 711 b 710 553 803 711 722 644 b 831 168 689 421 764 271 b 846 32 857 128 863 76 b 846 31 846 32 846 31 b 844 26 846 29 844 28 b 793 -53 835 -6 817 -32 b 700 -87 767 -74 735 -86 b 525 106 607 -90 549 -7 b 528 329 525 106 501 242 b 378 714 624 653 408 714 l 3 714 b 76 -1 258 522 1 236 b 186 -153 100 -76 171 -140 b 838 -125 506 -407 764 -207 b 931 29 869 -86 907 -42 b 639 -443 1053 -161 974 -490 b 550 -422 613 -439 582 -432 b 101 -400 339 -354 194 -368 b 19 -610 17 -431 -22 -531 l 185 -936 b 650 -750 185 -936 310 -649 b 1235 -72 872 -815 1396 -644 b 1150 222 1235 -72 1175 63 b 1294 708 1122 397 1176 576 b 1297 711 1297 711 1297 711 l 989 711 l 894 711 z "},"z":{"ha":1361,"x_min":0,"x_max":0,"o":"m 1319 131 l 881 131 b 731 -86 769 131 690 19 b 817 -219 746 -128 774 -174 b 578 -14 817 -219 521 -169 b 1165 529 635 142 1072 351 b 1306 714 1251 692 1306 714 l 46 714 b 26 460 46 714 174 615 l 446 460 b 497 626 536 460 572 578 b 429 657 481 638 458 649 b 710 546 429 657 732 713 b 289 243 694 431 535 360 b 78 -64 160 182 81 78 b -35 -278 75 -153 53 -278 l 1246 -278 b 1319 131 1246 -278 1068 26 z "},"{":{"ha":1058,"x_min":0,"x_max":0,"o":"m 692 -224 b 394 239 692 -25 575 156 l 108 369 l 394 500 b 692 963 575 583 692 764 b 1015 1288 692 1142 836 1288 l 1015 1333 l 482 1333 b 178 1028 314 1333 178 1197 l 178 647 b 0 369 178 528 108 419 b 178 93 108 319 178 211 l 178 -289 b 482 -594 178 -457 314 -594 l 1017 -594 l 1017 -549 b 692 -224 836 -549 692 -403 z "},"|":{"ha":158,"x_min":0,"x_max":0,"o":"m 0 1046 l 0 -279 l 117 -279 l 117 1046 z "},"}":{"ha":1058,"x_min":0,"x_max":0,"o":"m 324 963 b 621 500 324 764 440 583 l 907 369 l 621 239 b 324 -224 440 156 324 -25 b 0 -549 324 -403 179 -549 l 0 -594 l 533 -594 b 839 -289 701 -594 839 -457 l 838 92 b 1017 369 838 211 908 319 b 838 647 908 419 838 528 l 838 1028 b 533 1333 838 1197 701 1333 l 0 1333 l 0 1288 b 324 963 179 1288 324 1142 z "},"~":{"ha":1482,"x_min":0,"x_max":0,"o":"m 0 308 b 65 339 0 308 25 321 b 138 369 86 349 110 358 b 231 397 165 379 197 389 b 444 406 297 414 374 421 b 550 368 481 399 515 386 b 651 303 585 351 619 329 l 685 279 l 692 274 b 700 267 694 271 697 269 l 721 254 l 740 242 b 761 231 747 238 754 235 b 801 211 775 224 788 217 b 976 169 857 188 917 172 b 1142 192 1035 167 1092 175 b 1268 256 1190 207 1233 231 b 1354 331 1303 279 1332 306 b 1407 400 1376 356 1393 379 b 1433 447 1419 419 1428 436 b 1440 465 1438 460 1440 465 b 1376 433 1440 465 1417 453 b 1303 403 1356 425 1331 414 b 1211 375 1275 393 1244 382 b 1107 360 1178 367 1143 361 b 1001 371 1072 358 1036 363 b 896 413 965 379 931 393 b 871 426 888 417 879 422 l 858 435 l 847 443 b 793 482 835 450 808 471 b 638 572 747 519 694 550 b 463 607 581 594 521 607 b 299 581 403 608 347 597 b 174 517 250 564 208 540 b 88 442 139 492 111 465 b 35 374 65 417 49 393 b 8 326 22 354 14 338 b 0 308 3 314 0 308 z "},"¡":{"ha":415,"x_min":0,"x_max":0,"o":"m 0 -900 l 374 -900 l 210 28 l 164 28 z m 186 63 b 369 244 288 63 369 143 b 186 426 369 346 288 426 b 4 244 86 426 4 346 b 186 63 4 143 86 63 z "},"¢":{"ha":1649,"x_min":0,"x_max":0,"o":"m 1433 143 l 958 143 b 993 79 972 121 983 99 b 917 -228 1082 -89 1082 -228 b 826 -204 892 -228 861 -219 b 781 -178 811 -196 796 -187 b 704 736 593 -57 375 275 b 781 826 728 769 754 800 b 826 869 796 842 811 856 b 1054 1004 939 965 1049 1003 b 876 711 886 914 867 790 b 965 633 881 667 919 633 l 1454 633 b 1419 697 1440 656 1429 678 b 1419 942 1368 810 1382 888 b 1607 1050 1482 1029 1607 1050 l 951 1050 b 826 1044 910 1050 868 1049 l 826 1263 l 781 1263 l 781 1039 b 510 971 688 1026 596 1004 b 0 267 272 878 0 682 b 603 -274 0 -33 272 -274 l 781 -274 l 781 -486 l 826 -486 l 826 -274 l 1167 -274 b 1328 -243 1222 -274 1278 -264 b 1358 -229 1346 -235 1357 -229 b 1358 -228 1358 -228 1358 -228 b 1522 53 1490 -171 1519 -37 b 1433 143 1524 101 1483 143 z "},"£":{"ha":1540,"x_min":0,"x_max":0,"o":"m 1499 228 l 938 228 b 825 69 854 186 825 129 b 996 -229 825 -149 996 -229 b 693 -158 888 -229 779 -206 b 508 133 581 -99 504 -1 b 508 140 508 135 508 138 b 578 365 518 258 546 272 l 769 365 l 769 411 l 593 411 b 615 674 671 536 617 672 b 818 988 575 818 671 964 b 989 893 988 1015 989 896 b 989 893 989 893 989 893 b 986 868 988 885 986 876 b 996 813 986 849 990 831 b 1024 760 1001 793 1011 775 b 1176 686 1058 713 1114 683 b 1351 860 1269 690 1347 765 b 1169 1051 1357 964 1274 1051 l 40 1051 b 42 1050 40 1051 40 1051 b 122 996 46 1049 81 1031 b 182 933 140 978 161 958 b 179 514 232 851 260 719 b 144 411 164 478 153 443 l 0 411 l 0 365 l 135 365 b 44 -275 75 51 279 -65 l 267 -275 l 1453 -275 b 1499 228 1250 94 1499 228 z "},"¤":{"ha":828,"x_min":0,"x_max":0,"o":"m 754 778 l 646 669 b 393 765 579 729 490 765 b 140 669 297 765 208 729 l 32 778 l 0 746 l 108 638 b 13 385 49 569 13 482 b 108 132 13 288 49 199 l 0 24 l 32 -8 l 140 100 b 393 4 208 40 297 4 b 646 100 490 4 579 40 l 754 -8 l 786 24 l 679 132 b 775 385 739 199 775 288 b 679 638 775 482 739 571 l 786 746 l 754 778 z m 729 385 b 646 164 729 300 697 224 b 614 132 636 153 625 142 b 393 49 556 81 478 49 b 174 132 310 49 232 81 b 140 164 161 142 151 153 b 58 385 89 224 58 300 b 140 606 58 469 89 546 b 174 638 151 617 161 628 b 393 719 232 689 310 719 b 614 638 478 719 556 689 b 646 606 625 628 636 617 b 729 385 697 546 729 469 z "},"¥":{"ha":1599,"x_min":0,"x_max":0,"o":"m 1557 1047 l 989 1047 b 886 658 942 1047 690 968 b 811 411 939 574 883 443 b 590 407 725 374 650 390 b 458 700 458 443 397 631 b 526 774 460 701 492 742 b 554 988 586 833 628 914 b 392 1047 514 1026 454 1047 l 0 1047 b 1 1047 0 1047 1 1047 b 132 733 10 1042 165 958 b 293 458 119 646 179 543 b 408 389 326 433 365 410 b 492 269 458 365 488 319 l 133 269 l 133 224 l 489 224 b 468 172 486 206 479 188 b 465 165 467 168 465 165 b 429 119 465 165 451 147 l 133 119 l 133 74 l 392 74 b 317 -4 369 49 344 22 b 269 -192 249 -67 251 -137 b 389 -278 286 -243 335 -278 l 918 -278 b 840 56 918 -278 761 -114 b 847 74 843 61 844 68 l 1200 74 l 1200 119 l 865 119 b 892 210 876 149 885 179 b 896 224 893 215 894 219 l 1200 224 l 1200 269 l 925 269 b 996 304 943 288 968 300 b 1172 339 1053 311 1113 322 b 1444 740 1436 403 1514 603 b 1557 1047 1336 954 1557 1047 z "},"¦":{"ha":88,"x_min":0,"x_max":0,"o":"m 0 1046 l 0 456 l 46 456 l 46 1046 l 0 1046 z m 0 -279 l 46 -279 l 46 311 l 0 311 l 0 -279 z "},"§":{"ha":1047,"x_min":0,"x_max":0,"o":"m 642 869 b 768 775 650 810 708 775 l 1006 775 b 969 1046 832 949 969 1046 l 417 1046 b 231 1004 364 1046 288 1035 b 174 957 207 992 188 976 b 175 822 151 924 146 881 b 186 803 178 815 182 810 b 479 585 242 710 368 646 l 415 585 b 231 543 363 585 288 574 b 174 496 207 531 188 515 b 175 360 151 463 146 418 b 186 342 178 354 182 347 b 365 186 222 279 292 231 b 550 81 428 149 494 115 b 671 -87 631 32 688 -19 b 447 -225 638 -231 532 -228 b 401 -43 408 -225 263 -161 b 440 82 453 1 451 50 b 340 153 426 125 385 153 l 0 153 b 76 22 113 136 97 64 b 79 -128 54 -26 54 -82 b 207 -235 107 -176 156 -212 b 219 -239 211 -236 215 -237 b 424 -278 283 -265 354 -278 l 510 -278 b 721 -240 531 -278 644 -267 b 969 6 840 -200 969 -100 b 776 244 969 110 874 186 b 882 313 814 263 850 286 b 946 388 908 336 931 361 b 969 468 961 414 969 440 b 943 557 969 500 960 531 b 926 585 939 567 932 576 b 669 765 864 664 751 721 b 447 874 593 806 497 824 b 579 1006 318 1010 579 1006 b 656 963 579 1006 672 1007 b 642 869 656 963 633 922 z m 644 468 b 671 375 668 440 679 410 b 665 356 669 368 668 361 b 649 314 661 339 656 325 b 447 413 576 347 492 367 b 424 443 438 424 429 433 b 446 521 399 482 415 507 b 551 543 476 536 522 540 b 644 468 589 519 622 494 z "},"¨":{"ha":600,"x_min":0,"x_max":0,"o":"m 121 1401 b 0 1279 54 1401 0 1346 b 121 1157 0 1211 54 1157 b 243 1279 189 1157 243 1211 b 121 1401 243 1346 189 1401 z m 436 1401 b 315 1279 369 1401 315 1346 b 436 1157 315 1211 369 1157 b 558 1279 504 1157 558 1211 b 436 1401 558 1346 504 1401 z "},"©":{"ha":1274,"x_min":0,"x_max":0,"o":"m 617 954 b 0 338 276 954 0 678 b 617 -278 0 -1 276 -278 b 1232 338 956 -278 1232 -1 b 617 954 1232 678 956 954 z m 617 -232 b 46 338 301 -232 46 24 b 617 908 46 653 301 908 b 1186 338 931 908 1186 653 b 617 -232 1186 24 931 -232 z m 1013 679 l 710 679 b 482 638 631 679 554 665 b 219 276 360 590 219 489 b 531 -3 221 122 360 -3 l 819 -3 b 903 14 849 -3 876 3 b 918 21 913 18 918 21 b 918 21 918 21 918 21 b 1003 165 986 51 1001 119 b 957 213 1003 190 983 213 l 713 213 b 731 179 719 200 725 189 b 692 21 776 93 776 21 b 582 517 607 21 367 215 b 763 656 656 619 763 656 b 671 504 676 608 665 544 b 717 464 672 482 693 464 l 967 464 b 950 497 960 476 954 486 b 950 622 924 556 931 594 b 1013 679 982 668 1013 679 z "},"ª":{"ha":549,"x_min":0,"x_max":0,"o":"m 465 757 b 347 933 500 842 439 933 l 50 933 b 43 828 50 933 100 878 l 207 828 b 233 894 243 828 260 872 b 206 911 226 900 217 906 b 313 839 206 911 336 926 b 3 653 294 769 8 847 b 199 518 0 538 93 521 l 285 518 b 507 518 418 518 507 518 b 465 757 507 518 394 583 z m 239 624 b 204 546 254 568 239 532 b 317 803 147 571 110 725 b 239 624 314 800 207 728 z "},"«":{"ha":551,"x_min":0,"x_max":0,"o":"m 325 653 l 325 718 l 0 388 l 325 57 l 325 122 l 64 388 l 325 653 z m 510 57 l 510 122 l 249 388 l 510 653 l 510 718 l 185 388 l 510 57 z "},"¬":{"ha":1393,"x_min":0,"x_max":0,"o":"m 0 431 l 0 385 l 1306 385 l 1306 0 l 1351 0 l 1351 385 l 1351 431 l 1306 431 l 0 431 z "},"®":{"ha":1272,"x_min":0,"x_max":0,"o":"m 615 1304 b 0 688 275 1304 0 1028 b 615 72 0 349 275 72 b 1231 688 954 72 1231 349 b 615 1304 1231 1028 954 1304 z m 615 118 b 46 688 301 118 46 374 b 615 1258 46 1003 301 1258 b 1185 688 929 1258 1185 1003 b 615 118 1185 374 929 118 z m 939 575 b 756 686 894 649 782 678 b 754 686 756 686 756 686 b 753 688 754 686 753 686 b 750 688 751 688 751 688 b 750 688 750 688 750 688 b 749 688 750 688 750 688 b 749 688 749 688 749 688 b 658 704 721 696 690 701 b 657 704 658 704 658 704 b 597 708 650 706 624 707 b 582 708 592 708 588 708 b 576 708 581 708 578 708 b 564 707 572 707 568 707 b 849 828 585 711 732 749 b 900 924 879 850 900 885 b 867 1004 900 956 888 983 b 786 1038 846 1025 817 1038 l 304 1038 l 197 1038 b 197 1038 197 1038 197 1038 b 200 1038 199 1038 200 1038 b 263 956 210 1032 243 999 b 263 846 276 922 283 883 b 240 618 235 796 206 729 b 200 357 297 428 204 360 b 200 357 200 357 200 357 l 474 357 b 479 357 475 357 476 357 b 479 357 479 357 479 357 l 594 357 b 618 381 607 364 618 381 b 526 540 658 450 588 500 b 542 669 472 578 457 658 b 554 671 546 669 550 671 b 557 671 556 671 556 671 b 561 669 558 671 560 669 b 597 661 575 669 586 665 b 669 494 649 631 667 603 b 692 418 671 463 679 439 b 692 418 692 418 692 418 b 707 397 697 410 701 403 b 708 396 708 396 708 396 b 792 357 729 372 760 358 b 799 357 794 357 796 357 l 1058 357 b 1004 396 1035 369 1018 383 b 939 575 940 457 975 515 z m 483 707 b 526 794 485 708 510 749 b 539 878 538 822 543 853 b 535 976 529 935 526 956 b 625 990 554 1021 603 1015 b 563 751 661 953 704 869 b 483 707 542 735 510 718 z "},"¯":{"ha":544,"x_min":0,"x_max":0,"o":"m 503 1278 l 0 1278 l 0 1232 l 503 1232 l 503 1278 z "},"°":{"ha":522,"x_min":0,"x_max":0,"o":"m 240 1494 b 0 1256 108 1494 0 1388 b 240 1015 0 1122 108 1015 b 481 1256 372 1015 481 1122 b 240 1494 481 1388 372 1494 z m 240 1061 b 46 1256 133 1061 46 1147 b 240 1449 46 1363 133 1449 b 435 1256 347 1449 435 1363 b 240 1061 435 1147 347 1061 z "},"±":{"ha":1108,"x_min":0,"x_max":0,"o":"m 556 918 l 510 918 l 510 407 l 0 407 l 0 363 l 510 363 l 510 -149 l 556 -149 l 556 363 l 1067 363 l 1067 407 l 556 407 l 556 918 z m 1067 -208 l 0 -208 l 0 -253 l 1067 -253 l 1067 -208 z "},"²":{"ha":640,"x_min":0,"x_max":0,"o":"m 536 665 l 394 665 b 369 624 374 665 360 643 b 369 624 369 624 369 624 b 408 582 379 607 393 594 b 419 564 413 579 424 571 b 394 557 415 557 403 557 b 360 564 383 557 371 560 b 315 592 343 571 329 581 b 279 636 301 604 289 619 b 265 685 271 651 264 668 b 290 726 267 703 276 717 b 372 750 314 742 344 747 b 388 940 557 767 599 940 l 365 940 l 119 940 b 119 814 119 940 201 894 l 246 814 b 290 858 274 814 286 831 b 264 901 294 883 268 894 b 314 921 258 917 290 925 b 365 867 321 921 394 910 b 317 826 354 853 339 835 b 93 538 0 704 179 601 l 575 538 b 536 665 572 540 494 592 z "},"³":{"ha":569,"x_min":0,"x_max":0,"o":"m 279 731 b 221 739 260 733 236 736 b 278 747 246 742 268 744 b 294 940 433 779 504 940 l 271 940 l 0 940 b 0 814 0 940 89 894 l 138 814 b 188 858 168 814 183 831 b 158 901 192 883 163 894 b 213 921 151 917 189 925 b 89 775 307 900 285 788 b 56 750 72 774 60 763 b 57 739 56 746 56 742 l 76 681 b 239 686 78 706 158 763 b 265 658 247 678 257 669 b 213 557 265 658 326 576 b 158 576 189 554 151 561 b 188 621 163 585 192 596 b 138 665 183 649 168 665 l 0 665 b 0 538 89 585 0 538 l 271 539 l 294 539 b 279 731 528 539 479 697 z "},"´":{"ha":329,"x_min":0,"x_max":0,"o":"m 232 1488 l 0 1113 l 288 1447 l 232 1488 z "},"µ":{"ha":1271,"x_min":0,"x_max":0,"o":"m 524 315 b 544 411 538 336 546 368 b 547 526 551 456 553 493 b 499 643 539 576 522 615 b 425 699 475 669 450 689 b 375 714 400 708 383 714 l 0 714 b 115 518 74 654 113 589 b 89 293 118 446 110 371 l 81 257 b 79 253 81 256 79 254 l 74 -1 b 118 -82 85 -32 99 -58 b 131 -106 122 -90 126 -99 b 151 -203 149 -140 156 -172 b 121 -287 147 -235 136 -262 b 75 -346 106 -312 90 -332 b 54 -365 64 -356 58 -362 l 53 -367 b 51 -368 53 -367 51 -368 l 582 -368 b 701 -301 636 -368 675 -346 b 701 -210 711 -279 711 -249 b 700 -207 700 -208 700 -208 b 794 -125 742 -178 774 -150 b 790 -183 788 -140 786 -160 b 821 -249 794 -207 806 -229 b 885 -278 836 -268 857 -278 l 1229 -278 b 1211 -260 1228 -276 1221 -271 b 1176 -214 1200 -249 1189 -233 b 1154 -67 1153 -176 1144 -126 b 1167 -15 1158 -49 1163 -32 b 1192 111 1179 25 1188 68 b 1175 256 1196 154 1190 203 b 1161 296 1171 267 1167 281 b 1144 338 1154 311 1149 325 b 1125 399 1136 357 1129 378 b 1122 532 1115 449 1114 493 b 1160 631 1131 571 1143 604 b 1207 693 1176 657 1192 678 b 1226 711 1217 701 1222 708 l 1229 714 l 728 714 b 650 685 699 714 672 704 b 611 608 628 664 615 639 b 653 438 610 546 624 489 b 731 325 682 386 708 349 b 806 218 757 296 782 260 b 853 88 829 175 846 132 b 842 26 851 65 849 44 b 699 -87 818 -43 771 -81 b 585 -33 651 -87 614 -69 b 524 106 556 1 535 49 b 518 144 522 107 521 119 b 514 232 515 168 514 197 b 524 315 514 261 517 289 z "},"¶":{"ha":904,"x_min":0,"x_max":0,"o":"m 736 985 l 690 985 l 572 985 l 526 985 l 258 985 b 258 985 258 985 258 985 l 251 985 b 0 726 111 981 0 867 b 258 468 0 583 115 468 l 526 468 l 526 -278 l 572 -278 l 572 468 l 572 939 l 690 939 l 690 -278 l 736 -278 l 736 939 l 863 939 l 863 985 l 736 985 z "},"·":{"ha":407,"x_min":0,"x_max":0,"o":"m 183 786 b 0 603 82 786 0 704 b 183 421 0 503 82 421 b 365 603 283 421 365 503 b 183 786 365 704 283 786 z "},"∙":{"ha":407,"x_min":0,"x_max":0,"o":"m 183 786 b 0 603 82 786 0 704 b 183 421 0 503 82 421 b 365 603 283 421 365 503 b 183 786 365 704 283 786 z "},"¸":{"ha":449,"x_min":0,"x_max":0,"o":"m 171 -531 b 407 -332 300 -531 407 -442 b 211 -135 407 -233 322 -151 l 300 67 l 250 89 l 129 -186 l 171 -186 b 353 -332 271 -186 353 -251 b 171 -476 353 -411 271 -476 b 36 -429 119 -476 71 -460 l 0 -471 b 171 -531 44 -510 106 -531 z "},"¹":{"ha":282,"x_min":0,"x_max":0,"o":"m 189 896 b 207 919 194 904 200 911 b 235 940 217 929 229 939 l 106 940 b 13 869 61 940 24 913 b 22 724 0 821 1 771 b 43 681 28 710 38 696 b 54 642 49 668 53 656 b 43 582 56 621 53 601 b 3 538 36 567 21 546 l 169 538 b 219 572 192 538 211 551 b 196 715 240 618 217 674 b 179 744 190 725 185 735 b 169 761 176 750 172 756 b 158 783 165 768 161 775 b 158 825 156 797 156 811 b 189 896 163 850 175 875 z "},"º":{"ha":518,"x_min":0,"x_max":0,"o":"m 238 942 b 0 740 107 942 0 851 b 238 539 0 629 107 539 b 476 740 369 539 476 629 b 238 942 476 851 369 942 z m 238 556 b 158 740 194 556 158 638 b 238 925 158 842 194 925 b 317 740 282 925 317 842 b 238 556 317 638 282 556 z "},"»":{"ha":551,"x_min":0,"x_max":0,"o":"m 185 122 l 185 57 l 510 388 l 185 718 l 185 653 l 446 388 l 185 122 z m 0 718 l 0 653 l 261 388 l 0 122 l 0 57 l 325 388 l 0 718 z "},"¼":{"ha":1164,"x_min":0,"x_max":0,"o":"m 679 1047 l 26 -278 l 78 -278 l 731 1047 l 679 1047 z m 4 444 l 222 444 b 288 489 250 444 276 461 b 257 676 314 549 285 622 b 236 714 250 689 243 701 b 221 736 231 721 226 729 b 208 765 217 744 211 754 b 207 819 204 783 204 801 b 247 913 213 853 229 885 b 271 943 256 924 263 933 b 308 972 283 957 300 969 l 138 972 b 17 879 81 972 31 935 b 29 688 0 815 3 749 b 57 631 38 668 49 650 b 71 581 64 614 68 597 b 57 503 74 553 69 526 b 4 444 47 482 28 453 z m 1040 -17 l 856 -17 b 821 -71 828 -17 808 -46 b 822 -71 821 -71 822 -71 b 872 -125 833 -93 853 -110 b 888 -149 878 -131 893 -140 b 854 -158 881 -158 864 -160 b 810 -150 839 -158 824 -156 b 751 -112 788 -142 768 -128 b 703 -54 732 -96 715 -76 b 685 8 692 -36 683 -14 b 719 64 686 32 700 50 b 825 94 750 85 789 90 b 846 344 1067 117 1122 344 l 817 344 l 494 344 b 494 178 494 344 601 285 l 660 178 b 718 236 696 178 713 200 b 683 293 722 268 689 283 b 749 319 675 314 719 324 b 815 247 758 319 856 304 b 753 194 803 228 782 206 b 458 -183 338 35 572 -100 l 1090 -183 b 1040 -17 1088 -181 985 -112 z "},"½":{"ha":1382,"x_min":0,"x_max":0,"o":"m 979 1047 l 326 -278 l 378 -278 l 1031 1047 l 979 1047 z m 0 444 l 356 444 l 388 444 b 367 696 693 444 629 651 b 290 708 342 700 311 704 b 365 718 322 711 353 715 b 388 972 569 761 663 972 l 356 972 l 0 972 b 1 806 0 972 118 913 l 182 806 b 247 864 222 806 242 828 b 210 921 253 896 214 911 b 281 946 200 942 249 951 b 117 754 404 918 375 771 b 75 721 96 753 79 739 b 75 707 74 717 74 711 l 101 632 b 314 639 104 663 208 738 b 349 601 325 628 338 617 b 281 469 349 601 429 494 b 210 496 249 464 200 475 b 247 553 214 506 253 521 b 182 611 242 589 222 611 l 1 611 b 0 444 118 504 0 444 z m 1328 192 l 1213 192 b 1117 106 1164 192 1122 156 b 1117 104 1117 106 1117 106 b 1119 44 1115 97 1117 71 b 1068 -10 1122 14 1097 -11 b 829 -19 1008 -6 925 -4 b 1122 336 829 -19 1264 153 l 901 336 b 721 10 901 336 1014 165 l 765 -74 b 1110 -43 765 -74 963 -26 b 1128 -62 1119 -44 1128 -53 b 1086 -183 1131 -157 1086 -183 l 1340 -183 b 1328 192 1340 -183 1213 88 z "},"¾":{"ha":1083,"x_min":0,"x_max":0,"o":"m 681 1047 l 28 -278 l 78 -278 l 731 1047 l 681 1047 z m 6 444 l 222 444 b 288 489 251 444 278 461 b 257 676 315 549 285 622 b 236 714 250 689 243 701 b 222 736 232 721 226 729 b 208 765 217 744 211 754 b 207 819 204 783 204 801 b 249 913 214 853 229 885 b 272 943 256 924 264 933 b 310 972 283 957 300 969 l 139 972 b 17 879 82 972 31 935 b 29 688 0 815 3 749 b 57 631 38 668 50 650 b 71 581 64 614 69 597 b 58 503 74 553 69 526 b 6 444 47 482 28 453 z m 1028 192 l 914 192 b 817 106 865 192 824 156 b 817 104 817 106 817 106 b 821 44 817 97 818 71 b 769 -10 824 14 799 -11 b 529 -19 708 -6 625 -4 b 822 336 529 -19 964 153 l 601 336 b 421 10 601 336 715 165 l 467 -74 b 811 -43 467 -74 664 -26 b 829 -62 821 -44 828 -53 b 786 -183 831 -157 786 -183 l 1042 -183 b 1028 192 1042 -183 914 88 z "},"¿":{"ha":1617,"x_min":0,"x_max":0,"o":"m 694 -844 l 1575 -844 b 1575 -426 1561 -836 1315 -686 l 1163 -426 b 1015 -572 1071 -426 1028 -482 b 1100 -717 1003 -654 1089 -690 b 939 -781 1122 -767 1013 -794 b 771 -600 915 -782 671 -743 b 872 -497 794 -565 828 -526 b 874 -497 872 -497 874 -497 b 928 -469 890 -486 908 -476 b 960 -456 939 -465 949 -460 b 1213 81 1088 -385 1300 -217 l 1088 81 b 1097 -1 1096 53 1100 26 b 1013 -139 1093 -60 1060 -107 b 960 -168 996 -150 979 -160 b 744 -217 893 -199 817 -210 b 694 -844 139 -272 0 -844 z m 1133 118 b 1315 300 1233 118 1315 200 b 1133 483 1315 401 1233 483 b 950 300 1032 483 950 401 b 1133 118 950 200 1032 118 z "},"À":{"ha":1599,"x_min":0,"x_max":0,"o":"m 1492 -243 b 1393 319 1386 -165 1253 24 b 1415 372 1401 338 1408 356 b 1425 400 1418 382 1422 392 b 1308 879 1522 707 1308 879 b 922 1046 1206 992 1053 1046 l 911 1046 b 121 17 338 1046 -274 753 b 3 -278 240 -206 3 -278 l 604 -278 b 779 -43 728 -278 814 -160 b 699 97 765 4 735 51 b 519 269 646 161 579 219 b 500 371 456 324 475 354 b 553 383 515 381 535 385 b 800 272 649 378 742 342 b 789 -278 969 69 863 -250 l 1557 -278 l 1551 -276 b 1492 -243 1529 -268 1510 -257 z m 911 258 b 815 356 881 300 849 332 b 519 603 728 419 563 503 b 700 974 465 729 479 907 b 911 258 794 1003 1058 838 z m 738 1488 l 682 1447 l 969 1113 z "},"Á":{"ha":1599,"x_min":0,"x_max":0,"o":"m 1492 -243 b 1393 319 1386 -165 1253 24 b 1415 372 1401 338 1408 356 b 1425 400 1418 382 1422 392 b 1308 879 1522 707 1308 879 b 922 1046 1206 992 1053 1046 l 911 1046 b 121 17 338 1046 -274 753 b 3 -278 240 -206 3 -278 l 604 -278 b 779 -43 728 -278 814 -160 b 699 97 765 4 735 51 b 519 269 646 161 579 219 b 500 371 456 324 475 354 b 553 383 515 381 535 385 b 800 272 649 378 742 342 b 789 -278 969 69 863 -250 l 1557 -278 l 1551 -276 b 1492 -243 1529 -268 1510 -257 z m 911 258 b 815 356 881 300 849 332 b 519 603 728 419 563 503 b 700 974 465 729 479 907 b 911 258 794 1003 1058 838 z m 1010 1488 l 778 1113 l 1065 1447 l 1010 1488 z "},"Â":{"ha":1599,"x_min":0,"x_max":0,"o":"m 1492 -243 b 1393 319 1386 -165 1253 24 b 1415 372 1401 338 1408 356 b 1425 400 1418 382 1422 392 b 1308 879 1522 707 1308 879 b 922 1046 1206 992 1053 1046 l 911 1046 b 121 17 338 1046 -274 753 b 3 -278 240 -206 3 -278 l 604 -278 b 779 -43 728 -278 814 -160 b 699 97 765 4 735 51 b 519 269 646 161 579 219 b 500 371 456 324 475 354 b 553 383 515 381 535 385 b 800 272 649 378 742 342 b 789 -278 969 69 863 -250 l 1557 -278 l 1551 -276 b 1492 -243 1529 -268 1510 -257 z m 911 258 b 815 356 881 300 849 332 b 519 603 728 419 563 503 b 700 974 465 729 479 907 b 911 258 794 1003 1058 838 z m 544 1113 l 610 1113 l 874 1374 l 1139 1113 l 1204 1113 l 874 1438 l 544 1113 z "},"Ã":{"ha":1599,"x_min":0,"x_max":0,"o":"m 1492 -243 b 1393 319 1386 -165 1253 24 b 1415 372 1401 338 1408 356 b 1425 400 1418 382 1422 392 b 1308 879 1522 707 1308 879 b 922 1046 1206 992 1053 1046 l 911 1046 b 121 17 338 1046 -274 753 b 3 -278 240 -206 3 -278 l 604 -278 b 779 -43 728 -278 814 -160 b 699 97 765 4 735 51 b 519 269 646 161 579 219 b 500 371 456 324 475 354 b 553 383 515 381 535 385 b 800 272 649 378 742 342 b 789 -278 969 69 863 -250 l 1557 -278 l 1551 -276 b 1492 -243 1529 -268 1510 -257 z m 911 258 b 815 356 881 300 849 332 b 519 603 728 419 563 503 b 700 974 465 729 479 907 b 911 258 794 1003 1058 838 z m 1133 1283 b 1143 1310 1140 1300 1143 1310 b 1124 1289 1143 1310 1136 1301 b 1068 1246 1111 1278 1093 1261 b 985 1226 1044 1232 1015 1222 b 940 1243 969 1229 956 1235 b 929 1250 936 1244 933 1247 b 919 1257 926 1253 922 1254 b 908 1265 915 1260 913 1263 l 897 1275 l 886 1285 b 872 1296 882 1289 878 1292 b 844 1314 864 1301 854 1308 b 782 1335 825 1324 804 1332 b 718 1331 760 1339 738 1336 b 669 1307 699 1325 683 1317 b 618 1250 643 1288 626 1265 b 608 1231 613 1242 610 1235 b 606 1224 606 1226 606 1224 b 626 1242 606 1224 613 1232 b 686 1278 640 1253 660 1268 b 728 1289 699 1283 713 1288 b 772 1286 742 1290 757 1289 b 817 1265 788 1282 803 1275 b 839 1250 824 1261 832 1256 b 849 1242 842 1247 846 1244 l 860 1232 l 872 1222 b 886 1211 875 1218 881 1215 b 900 1203 890 1208 894 1206 b 915 1194 904 1199 910 1196 b 981 1176 935 1183 958 1178 b 1044 1189 1004 1175 1025 1181 b 1089 1219 1063 1197 1076 1208 b 1117 1254 1100 1232 1110 1243 b 1133 1283 1124 1265 1129 1275 z "},"Ä":{"ha":1599,"x_min":0,"x_max":0,"o":"m 1492 -243 b 1393 319 1386 -165 1253 24 b 1415 372 1401 338 1408 356 b 1425 400 1418 382 1422 392 b 1308 879 1522 707 1308 879 b 922 1046 1206 992 1053 1046 l 911 1046 b 121 17 338 1046 -274 753 b 3 -278 240 -206 3 -278 l 604 -278 b 779 -43 728 -278 814 -160 b 699 97 765 4 735 51 b 519 269 646 161 579 219 b 500 371 456 324 475 354 b 553 383 515 381 535 385 b 800 272 649 378 742 342 b 789 -278 969 69 863 -250 l 1557 -278 l 1551 -276 b 1492 -243 1529 -268 1510 -257 z m 911 258 b 815 356 881 300 849 332 b 519 603 728 419 563 503 b 700 974 465 729 479 907 b 911 258 794 1003 1058 838 z m 715 1401 b 594 1279 649 1401 594 1346 b 715 1157 594 1211 649 1157 b 838 1279 783 1157 838 1211 b 715 1401 838 1346 783 1401 z m 1031 1401 b 910 1279 964 1401 910 1346 b 1031 1157 910 1211 964 1157 b 1153 1279 1099 1157 1153 1211 b 1031 1401 1153 1346 1099 1401 z "},"Å":{"ha":1599,"x_min":0,"x_max":0,"o":"m 1492 -243 b 1393 319 1386 -165 1253 24 b 1415 372 1401 338 1408 356 b 1425 400 1418 382 1422 392 b 1308 879 1522 707 1308 879 b 922 1046 1206 992 1053 1046 l 911 1046 b 121 17 338 1046 -274 753 b 3 -278 240 -206 3 -278 l 604 -278 b 779 -43 728 -278 814 -160 b 699 97 765 4 735 51 b 519 269 646 161 579 219 b 500 371 456 324 475 354 b 553 383 515 381 535 385 b 800 272 649 378 742 342 b 789 -278 969 69 863 -250 l 1557 -278 l 1551 -276 b 1492 -243 1529 -268 1510 -257 z m 911 258 b 815 356 881 300 849 332 b 519 603 728 419 563 503 b 700 974 465 729 479 907 b 911 258 794 1003 1058 838 z m 858 1688 b 618 1449 726 1688 618 1581 b 858 1208 618 1315 726 1208 b 1099 1449 990 1208 1099 1315 b 858 1688 1099 1581 990 1688 z m 858 1254 b 664 1449 751 1254 664 1340 b 858 1642 664 1556 751 1642 b 1053 1449 965 1642 1053 1556 b 858 1254 1053 1340 965 1254 z "},"Æ":{"ha":2607,"x_min":0,"x_max":0,"o":"m 911 258 b 815 356 881 300 849 332 b 742 406 794 371 769 388 b 611 497 696 433 653 464 b 519 603 568 529 538 565 b 507 811 490 669 486 739 b 700 974 528 882 593 936 b 829 931 735 985 778 971 b 943 708 881 890 918 815 b 911 258 967 600 957 450 z m 1535 -269 b 1643 -278 1569 -275 1606 -278 l 2208 -278 b 2368 -247 2263 -278 2317 -268 b 2399 -233 2386 -239 2397 -235 b 2529 -104 2464 -201 2507 -158 b 2563 49 2551 -50 2563 1 b 2538 113 2563 74 2554 94 b 2474 139 2519 131 2499 139 l 1999 139 b 2025 90 2008 121 2018 106 b 2033 75 2028 85 2031 79 b 2090 -79 2063 18 2082 -33 b 2071 -190 2097 -125 2092 -162 b 1957 -233 2050 -219 2013 -233 b 1800 -167 1917 -233 1864 -211 b 1636 24 1736 -122 1682 -58 b 1576 319 1590 106 1569 204 b 1583 347 1576 325 1579 335 b 1607 388 1588 360 1594 374 b 1656 421 1618 400 1635 411 b 1743 407 1682 428 1711 424 b 1844 340 1775 390 1808 368 b 1935 278 1872 319 1903 299 b 2036 226 1967 257 2000 240 b 2149 206 2071 213 2108 206 b 2260 243 2196 206 2233 218 b 2318 335 2286 268 2306 299 b 2339 440 2329 369 2336 406 b 2339 525 2340 475 2340 503 l 2339 535 b 2336 549 2338 540 2338 544 l 2335 554 b 2326 543 2332 550 2329 547 b 2321 538 2324 539 2322 538 l 2321 536 b 2210 492 2303 517 2267 501 b 1965 539 2153 481 2072 496 b 1796 556 1899 565 1842 571 b 1669 486 1750 539 1707 515 b 1654 475 1664 482 1658 479 b 1582 479 1629 460 1606 461 b 1549 560 1558 497 1547 524 b 1650 761 1558 638 1593 704 b 1842 900 1707 818 1771 864 b 2022 978 1913 935 1972 961 l 2024 978 b 2026 979 2025 979 2025 979 b 2035 982 2029 981 2031 981 b 2063 992 2042 985 2051 988 b 2093 1001 2072 994 2083 997 b 2115 1007 2103 1004 2110 1006 b 2074 986 2110 1006 2096 999 b 2006 938 2050 974 2028 957 b 1922 801 1960 892 1932 847 b 1917 707 1915 767 1913 735 b 1946 651 1919 683 1929 665 b 2006 629 1963 636 1982 629 l 2494 629 b 2463 688 2482 650 2472 669 l 2460 693 b 2433 831 2436 742 2428 788 b 2471 943 2439 874 2451 911 b 2528 1019 2490 975 2510 1001 b 2553 1043 2542 1032 2550 1040 l 2556 1046 l 1992 1046 b 1550 967 1840 1046 1693 1019 b 1335 851 1476 939 1406 901 b 1310 878 1322 865 1314 874 l 1308 879 b 1125 1006 1256 936 1194 978 b 922 1046 1056 1032 988 1046 l 911 1046 b 492 989 768 1046 628 1026 b 153 808 356 950 243 890 b -1 489 63 726 11 619 b 121 17 -15 357 25 200 b 156 -99 144 -28 156 -67 b 132 -183 154 -132 147 -160 b 79 -239 117 -207 99 -225 b 26 -268 58 -253 42 -262 b 6 -276 17 -272 10 -275 b 4 -278 6 -276 4 -278 l 604 -278 b 750 -206 665 -278 714 -254 b 779 -43 785 -158 794 -104 b 699 97 764 6 736 51 b 519 269 643 161 583 218 b 481 317 499 288 485 304 b 481 350 475 329 475 340 b 500 371 485 358 492 365 b 553 383 515 381 533 385 b 800 272 654 379 736 342 b 889 46 854 201 885 126 b 863 -168 893 -36 885 -107 b 789 -278 840 -231 815 -267 l 1557 -278 l 1551 -276 b 1535 -269 1546 -274 1540 -272 z "},"Ç":{"ha":1583,"x_min":0,"x_max":0,"o":"m 763 -279 l 656 -522 l 697 -522 b 826 -565 747 -522 790 -536 b 879 -668 861 -594 879 -628 b 826 -769 879 -708 861 -742 b 697 -812 790 -799 747 -812 b 563 -765 646 -812 601 -797 l 526 -807 b 697 -867 575 -847 632 -867 b 864 -808 763 -867 818 -847 b 933 -668 910 -769 933 -722 b 878 -539 933 -619 915 -576 b 738 -471 840 -503 794 -481 l 822 -279 l 1168 -279 b 1328 -249 1224 -279 1276 -269 b 1358 -235 1346 -240 1357 -236 b 1490 -106 1424 -203 1467 -160 b 1522 47 1513 -51 1524 0 b 1499 111 1524 72 1515 93 b 1433 138 1481 129 1460 138 l 960 138 b 985 90 969 121 978 106 l 993 74 b 1050 -81 1024 17 1043 -35 b 1031 -192 1057 -126 1051 -164 b 918 -235 1010 -221 972 -235 b 758 -167 876 -235 824 -212 b 593 28 693 -121 639 -57 b 539 332 547 113 529 214 b 704 731 549 450 603 583 b 860 890 754 797 806 850 b 997 974 913 929 958 957 l 1056 999 b 900 849 974 953 922 903 b 876 706 878 794 869 746 b 907 650 879 682 889 664 b 965 628 924 635 943 628 l 1454 628 b 1421 692 1440 651 1429 672 b 1388 836 1396 749 1385 796 b 1421 936 1389 876 1400 910 b 1479 1003 1442 965 1461 988 b 1525 1036 1497 1018 1513 1029 b 1536 1042 1529 1038 1533 1040 l 1539 1043 b 1540 1044 1540 1043 1540 1044 l 953 1044 b 510 965 801 1044 653 1018 b 274 833 429 935 350 890 b 81 608 196 776 132 701 b 1 261 29 515 3 399 b 85 -12 3 160 31 69 b 303 -207 139 -94 211 -158 b 603 -279 393 -256 493 -279 z "},"È":{"ha":1567,"x_min":0,"x_max":0,"o":"m 1433 139 l 960 139 b 993 75 974 115 983 94 b 918 -233 1082 -93 1082 -233 b 538 319 796 -233 508 -26 b 617 421 539 336 550 394 b 1108 206 733 457 885 206 b 1300 525 1300 206 1304 442 b 1299 525 1300 525 1300 525 b 1299 535 1299 528 1299 535 b 1296 554 1297 546 1296 554 b 1281 536 1290 546 1281 538 b 925 539 1244 504 1140 446 b 614 475 782 601 696 532 b 508 560 568 444 501 490 b 983 978 531 794 840 928 b 1075 1007 983 978 1056 1003 b 965 938 1072 1006 1008 978 b 882 801 918 893 893 846 b 876 707 874 767 874 733 b 965 629 882 663 919 629 l 1454 629 b 1454 629 1454 629 1454 629 b 1421 693 1440 653 1431 674 b 1515 1046 1321 889 1515 1046 l 953 1046 b 510 967 800 1046 650 1021 b 1 263 272 874 0 678 b 603 -278 1 -37 274 -278 l 1168 -278 b 1328 -247 1224 -278 1278 -268 b 1358 -233 1347 -239 1357 -233 b 1358 -233 1358 -233 1358 -233 b 1524 49 1492 -175 1519 -42 b 1433 139 1525 97 1485 139 z m 626 1488 l 571 1447 l 858 1113 z "},"É":{"ha":1567,"x_min":0,"x_max":0,"o":"m 1433 139 l 960 139 b 993 75 974 115 983 94 b 918 -233 1082 -93 1082 -233 b 538 319 796 -233 508 -26 b 617 421 539 336 550 394 b 1108 206 733 457 885 206 b 1300 525 1300 206 1304 442 b 1299 525 1300 525 1300 525 b 1299 535 1299 528 1299 535 b 1296 554 1297 546 1296 554 b 1281 536 1290 546 1281 538 b 925 539 1244 504 1140 446 b 614 475 782 601 696 532 b 508 560 568 444 501 490 b 983 978 531 794 840 928 b 1075 1007 983 978 1056 1003 b 965 938 1072 1006 1008 978 b 882 801 918 893 893 846 b 876 707 874 767 874 733 b 965 629 882 663 919 629 l 1454 629 b 1454 629 1454 629 1454 629 b 1421 693 1440 653 1431 674 b 1515 1046 1321 889 1515 1046 l 953 1046 b 510 967 800 1046 650 1021 b 1 263 272 874 0 678 b 603 -278 1 -37 274 -278 l 1168 -278 b 1328 -247 1224 -278 1278 -268 b 1358 -233 1347 -239 1357 -233 b 1358 -233 1358 -233 1358 -233 b 1524 49 1492 -175 1519 -42 b 1433 139 1525 97 1485 139 z m 899 1488 l 667 1113 l 954 1447 l 899 1488 z "},"Ê":{"ha":1567,"x_min":0,"x_max":0,"o":"m 1433 139 l 960 139 b 993 75 974 115 983 94 b 918 -233 1082 -93 1082 -233 b 538 319 796 -233 508 -26 b 617 421 539 336 550 394 b 1108 206 733 457 885 206 b 1300 525 1300 206 1304 442 b 1299 525 1300 525 1300 525 b 1299 535 1299 528 1299 535 b 1296 554 1297 546 1296 554 b 1281 536 1290 546 1281 538 b 925 539 1244 504 1140 446 b 614 475 782 601 696 532 b 508 560 568 444 501 490 b 983 978 531 794 840 928 b 1075 1007 983 978 1056 1003 b 965 938 1072 1006 1008 978 b 882 801 918 893 893 846 b 876 707 874 767 874 733 b 965 629 882 663 919 629 l 1454 629 b 1454 629 1454 629 1454 629 b 1421 693 1440 653 1431 674 b 1515 1046 1321 889 1515 1046 l 953 1046 b 510 967 800 1046 650 1021 b 1 263 272 874 0 678 b 603 -278 1 -37 274 -278 l 1168 -278 b 1328 -247 1224 -278 1278 -268 b 1358 -233 1347 -239 1357 -233 b 1358 -233 1358 -233 1358 -233 b 1524 49 1492 -175 1519 -42 b 1433 139 1525 97 1485 139 z m 433 1113 l 499 1113 l 763 1374 l 1028 1113 l 1093 1113 l 763 1438 l 433 1113 z "},"Ë":{"ha":1567,"x_min":0,"x_max":0,"o":"m 1433 139 l 960 139 b 993 75 974 115 983 94 b 918 -233 1082 -93 1082 -233 b 538 319 796 -233 508 -26 b 617 421 539 336 550 394 b 1108 206 733 457 885 206 b 1300 525 1300 206 1304 442 b 1299 525 1300 525 1300 525 b 1299 535 1299 528 1299 535 b 1296 554 1297 546 1296 554 b 1281 536 1290 546 1281 538 b 925 539 1244 504 1140 446 b 614 475 782 601 696 532 b 508 560 568 444 501 490 b 983 978 531 794 840 928 b 1075 1007 983 978 1056 1003 b 965 938 1072 1006 1008 978 b 882 801 918 893 893 846 b 876 707 874 767 874 733 b 965 629 882 663 919 629 l 1454 629 b 1454 629 1454 629 1454 629 b 1421 693 1440 653 1431 674 b 1515 1046 1321 889 1515 1046 l 953 1046 b 510 967 800 1046 650 1021 b 1 263 272 874 0 678 b 603 -278 1 -37 274 -278 l 1168 -278 b 1328 -247 1224 -278 1278 -268 b 1358 -233 1347 -239 1357 -233 b 1358 -233 1358 -233 1358 -233 b 1524 49 1492 -175 1519 -42 b 1433 139 1525 97 1485 139 z m 604 1401 b 483 1279 538 1401 483 1346 b 604 1157 483 1211 538 1157 b 726 1279 672 1157 726 1211 b 604 1401 726 1346 672 1401 z m 919 1401 b 799 1279 853 1401 799 1346 b 919 1157 799 1211 853 1157 b 1042 1279 988 1157 1042 1211 b 919 1401 1042 1346 988 1401 z "},"Ì":{"ha":832,"x_min":0,"x_max":0,"o":"m 624 899 b 682 974 642 925 661 950 b 775 1046 713 1008 754 1039 l 347 1046 b 42 814 204 1046 78 951 b 72 333 0 651 7 486 b 143 189 93 283 124 239 b 178 61 161 149 174 106 b 144 -133 186 -6 175 -74 b 11 -279 118 -186 69 -256 l 557 -279 b 722 -168 631 -279 696 -235 b 646 303 790 -18 715 168 b 592 397 629 335 611 367 b 557 453 581 417 568 435 b 524 526 543 476 531 500 b 521 663 513 571 513 618 b 624 899 535 747 575 828 z m 257 1488 l 201 1447 l 489 1113 z "},"Í":{"ha":832,"x_min":0,"x_max":0,"o":"m 624 899 b 682 974 642 925 661 950 b 775 1046 713 1008 754 1039 l 347 1046 b 42 814 204 1046 78 951 b 72 333 0 651 7 486 b 143 189 93 283 124 239 b 178 61 161 149 174 106 b 144 -133 186 -6 175 -74 b 11 -279 118 -186 69 -256 l 557 -279 b 722 -168 631 -279 696 -235 b 646 303 790 -18 715 168 b 592 397 629 335 611 367 b 557 453 581 417 568 435 b 524 526 543 476 531 500 b 521 663 513 571 513 618 b 624 899 535 747 575 828 z m 529 1488 l 297 1113 l 585 1447 l 529 1488 z "},"Î":{"ha":832,"x_min":0,"x_max":0,"o":"m 624 899 b 682 974 642 925 661 950 b 775 1046 713 1008 754 1039 l 347 1046 b 42 814 204 1046 78 951 b 72 333 0 651 7 486 b 143 189 93 283 124 239 b 178 61 161 149 174 106 b 144 -133 186 -6 175 -74 b 11 -279 118 -186 69 -256 l 557 -279 b 722 -168 631 -279 696 -235 b 646 303 790 -18 715 168 b 592 397 629 335 611 367 b 557 453 581 417 568 435 b 524 526 543 476 531 500 b 521 663 513 571 513 618 b 624 899 535 747 575 828 z m 64 1113 l 129 1113 l 393 1374 l 658 1113 l 724 1113 l 393 1438 l 64 1113 z "},"Ï":{"ha":832,"x_min":0,"x_max":0,"o":"m 624 899 b 682 974 642 925 661 950 b 775 1046 713 1008 754 1039 l 347 1046 b 42 814 204 1046 78 951 b 72 333 0 651 7 486 b 143 189 93 283 124 239 b 178 61 161 149 174 106 b 144 -133 186 -6 175 -74 b 11 -279 118 -186 69 -256 l 557 -279 b 722 -168 631 -279 696 -235 b 646 303 790 -18 715 168 b 592 397 629 335 611 367 b 557 453 581 417 568 435 b 524 526 543 476 531 500 b 521 663 513 571 513 618 b 624 899 535 747 575 828 z m 235 1401 b 114 1279 168 1401 114 1346 b 235 1157 114 1211 168 1157 b 357 1279 303 1157 357 1211 b 235 1401 357 1346 303 1401 z m 550 1401 b 429 1279 483 1401 429 1346 b 550 1157 429 1211 483 1157 b 672 1279 618 1157 672 1211 b 550 1401 672 1346 618 1401 z "},"Ð":{"ha":1639,"x_min":0,"x_max":0,"o":"m 622 363 l 725 363 l 725 408 l 642 408 b 699 603 672 485 692 549 b 700 610 699 606 699 608 b 694 771 710 669 707 722 b 642 893 681 819 663 860 b 596 957 626 919 611 940 b 575 979 585 968 579 976 l 575 981 l 574 982 b 771 900 635 983 700 956 b 928 732 842 843 893 788 b 1057 407 999 614 1042 506 b 1051 142 1072 308 1071 219 b 963 -57 1031 64 1001 -3 b 824 -189 922 -117 876 -160 b 649 -190 769 -218 711 -219 b 539 -4 586 -164 550 -101 b 622 363 528 83 556 206 z m 114 408 l -340 408 l -340 363 l 89 363 b 58 246 74 328 64 289 b 115 -54 49 172 67 72 b 117 -56 115 -56 115 -56 l 117 -58 b 121 -67 118 -61 119 -64 b 126 -100 124 -75 125 -86 b 118 -150 126 -115 124 -132 b 82 -211 111 -169 100 -190 b 4 -278 64 -233 39 -256 l 1071 -278 b 1340 -204 1171 -278 1261 -253 b 1526 -10 1419 -156 1481 -92 b 1596 264 1572 72 1594 163 b 1529 608 1594 401 1572 515 b 1364 832 1486 700 1431 775 b 1156 967 1297 889 1228 935 b 942 1029 1088 996 1017 1017 b 696 1049 860 1042 778 1049 l 0 1049 b 65 1000 11 1044 33 1029 b 165 889 97 971 131 935 b 238 738 199 843 222 792 b 221 571 251 683 246 628 b 160 475 203 536 182 504 b 128 428 149 460 138 443 z "},"Ñ":{"ha":1565,"x_min":0,"x_max":0,"o":"m 1325 278 b 1451 861 1389 499 1453 692 b 1261 1049 1450 965 1364 1049 l 743 1049 b 1026 258 743 1049 1068 721 b 978 239 1024 236 996 224 b 743 789 775 406 779 557 b 450 1047 711 985 546 1047 l 19 1047 b 79 663 19 1047 154 892 b 128 153 0 428 19 385 b 58 -278 236 -79 58 -278 l 514 -278 b 738 -74 631 -278 728 -189 b 606 260 746 24 722 143 b 433 972 385 481 425 861 b 661 519 604 906 626 790 b 825 -1 689 297 738 167 b 882 -93 840 -31 858 -61 b 1247 -278 967 -210 1103 -278 l 1524 -278 b 1325 278 1524 -278 1238 -26 z m 1032 1283 b 1042 1310 1039 1300 1042 1310 b 1022 1289 1042 1310 1035 1301 b 967 1246 1010 1278 992 1261 b 883 1226 943 1232 914 1222 b 839 1243 868 1229 854 1235 b 828 1250 835 1244 832 1247 b 818 1257 825 1253 821 1254 b 807 1265 814 1260 811 1263 l 796 1275 l 785 1285 b 771 1296 781 1289 776 1292 b 743 1314 763 1301 753 1308 b 681 1335 724 1324 703 1332 b 617 1331 658 1339 636 1336 b 568 1307 597 1325 582 1317 b 517 1250 542 1288 525 1265 b 507 1231 511 1242 508 1235 b 504 1224 504 1226 504 1224 b 525 1242 504 1224 511 1232 b 585 1278 539 1253 558 1268 b 626 1289 597 1283 611 1288 b 671 1286 640 1290 656 1289 b 715 1265 686 1282 701 1275 b 738 1250 722 1261 731 1256 b 747 1242 740 1247 744 1244 l 758 1232 l 771 1222 b 785 1211 774 1218 779 1215 b 799 1203 789 1208 793 1206 b 814 1194 803 1199 808 1196 b 879 1176 833 1183 857 1178 b 943 1189 903 1175 924 1181 b 988 1219 961 1197 975 1208 b 1015 1254 999 1232 1008 1243 b 1032 1283 1022 1265 1028 1275 z "},"Ò":{"ha":1447,"x_min":0,"x_max":0,"o":"m 703 1047 b 0 385 315 1047 0 750 b 703 -278 0 19 315 -278 b 1406 385 1090 -278 1406 19 b 703 1047 1406 750 1090 1047 z m 853 324 b 453 -164 711 11 535 -197 b 553 446 369 -129 413 133 b 951 931 694 758 869 965 b 853 324 1035 897 993 636 z m 567 1488 l 511 1447 l 799 1113 z "},"Ó":{"ha":1447,"x_min":0,"x_max":0,"o":"m 703 1047 b 0 385 315 1047 0 750 b 703 -278 0 19 315 -278 b 1406 385 1090 -278 1406 19 b 703 1047 1406 750 1090 1047 z m 853 324 b 453 -164 711 11 535 -197 b 553 446 369 -129 413 133 b 951 931 694 758 869 965 b 853 324 1035 897 993 636 z m 839 1488 l 607 1113 l 894 1447 l 839 1488 z "},"Ô":{"ha":1447,"x_min":0,"x_max":0,"o":"m 703 1047 b 0 385 315 1047 0 750 b 703 -278 0 19 315 -278 b 1406 385 1090 -278 1406 19 b 703 1047 1406 750 1090 1047 z m 853 324 b 453 -164 711 11 535 -197 b 553 446 369 -129 413 133 b 951 931 694 758 869 965 b 853 324 1035 897 993 636 z m 374 1113 l 439 1113 l 703 1374 l 968 1113 l 1033 1113 l 703 1438 l 374 1113 z "},"Õ":{"ha":1447,"x_min":0,"x_max":0,"o":"m 703 1047 b 0 385 315 1047 0 750 b 703 -278 0 19 315 -278 b 1406 385 1090 -278 1406 19 b 703 1047 1406 750 1090 1047 z m 853 324 b 453 -164 711 11 535 -197 b 553 446 369 -129 413 133 b 951 931 694 758 869 965 b 853 324 1035 897 993 636 z m 963 1283 b 972 1310 969 1300 972 1310 b 953 1289 972 1310 965 1301 b 897 1246 940 1278 922 1261 b 814 1226 874 1232 844 1222 b 769 1243 799 1229 785 1235 b 758 1250 765 1244 763 1247 b 749 1257 756 1253 751 1254 b 738 1265 744 1260 742 1263 l 726 1275 l 715 1285 b 701 1296 711 1289 707 1292 b 674 1314 693 1301 683 1308 b 611 1335 654 1324 633 1332 b 547 1331 589 1339 567 1336 b 499 1307 528 1325 513 1317 b 447 1250 472 1288 456 1265 b 438 1231 442 1242 439 1235 b 435 1224 435 1226 435 1224 b 456 1242 435 1224 442 1232 b 515 1278 469 1253 489 1268 b 557 1289 528 1283 542 1288 b 601 1286 571 1290 586 1289 b 646 1265 617 1282 632 1275 b 668 1250 653 1261 661 1256 b 678 1242 671 1247 675 1244 l 689 1232 l 701 1222 b 715 1211 704 1218 710 1215 b 729 1203 719 1208 724 1206 b 744 1194 733 1199 739 1196 b 810 1176 764 1183 788 1178 b 874 1189 833 1175 854 1181 b 918 1219 892 1197 906 1208 b 946 1254 929 1232 939 1243 b 963 1283 953 1265 958 1275 z "},"Ö":{"ha":1447,"x_min":0,"x_max":0,"o":"m 703 1047 b 0 385 315 1047 0 750 b 703 -278 0 19 315 -278 b 1406 385 1090 -278 1406 19 b 703 1047 1406 750 1090 1047 z m 853 324 b 453 -164 711 11 535 -197 b 553 446 369 -129 413 133 b 951 931 694 758 869 965 b 853 324 1035 897 993 636 z m 544 1401 b 424 1279 478 1401 424 1346 b 544 1157 424 1211 478 1157 b 667 1279 613 1157 667 1211 b 544 1401 667 1346 613 1401 z m 860 1401 b 739 1279 793 1401 739 1346 b 860 1157 739 1211 793 1157 b 982 1279 928 1157 982 1211 b 860 1401 982 1346 928 1401 z "},"×":{"ha":828,"x_min":0,"x_max":0,"o":"m 754 778 l 393 417 l 32 778 l 0 746 l 361 385 l 0 24 l 32 -8 l 393 353 l 754 -8 l 786 24 l 425 385 l 786 746 l 754 778 z "},"Ø":{"ha":1447,"x_min":0,"x_max":0,"o":"m 947 932 l 424 -131 b 419 38 408 -97 407 -42 b 553 446 438 150 482 286 b 775 819 626 606 700 729 b 947 932 846 906 904 943 z m 981 899 b 986 732 996 865 999 810 b 853 324 968 619 924 483 b 631 -50 779 164 706 40 b 457 -165 558 -137 500 -175 z m 386 -207 l 351 -278 l 401 -278 l 426 -226 b 703 -278 513 -261 604 -278 b 1057 -187 832 -278 950 -247 b 1311 51 1163 -128 1247 -49 b 1406 385 1374 151 1406 263 b 1311 718 1406 507 1374 618 b 1057 958 1247 818 1163 899 b 1019 976 1044 964 1032 971 l 1054 1047 l 1004 1047 l 979 996 b 703 1047 893 1031 801 1047 b 350 958 574 1047 456 1018 b 96 718 243 899 158 818 b 0 385 32 618 0 507 b 96 51 0 263 32 151 b 350 -187 158 -49 243 -128 b 386 -207 361 -194 374 -201 z "},"Ù":{"ha":1654,"x_min":0,"x_max":0,"o":"m 1539 1049 l 1006 1049 b 1001 1049 1004 1049 1003 1049 b 1000 1049 1001 1049 1001 1049 b 1000 1049 1000 1049 1000 1049 b 988 1047 996 1047 992 1049 b 975 1046 983 1047 979 1046 b 865 964 929 1036 890 1003 b 842 904 854 946 847 925 b 826 813 833 874 828 843 b 832 689 825 771 824 729 b 931 457 843 638 864 556 b 543 -7 1410 -250 543 -358 b 663 421 543 76 594 274 b 471 1049 858 843 543 1049 l 385 1049 l 0 1049 b 140 429 0 1049 217 833 b 185 -31 110 272 107 93 b 707 -278 283 -186 489 -271 b 749 -278 721 -278 735 -278 b 1121 -225 849 -278 1026 -260 b 1392 704 1360 -135 1613 101 b 1539 1049 1290 982 1539 1049 z m 633 1488 l 578 1447 l 865 1113 z "},"Ú":{"ha":1654,"x_min":0,"x_max":0,"o":"m 1539 1049 l 1006 1049 b 1001 1049 1004 1049 1003 1049 b 1000 1049 1001 1049 1001 1049 b 1000 1049 1000 1049 1000 1049 b 988 1047 996 1047 992 1049 b 975 1046 983 1047 979 1046 b 865 964 929 1036 890 1003 b 842 904 854 946 847 925 b 826 813 833 874 828 843 b 832 689 825 771 824 729 b 931 457 843 638 864 556 b 543 -7 1410 -250 543 -358 b 663 421 543 76 594 274 b 471 1049 858 843 543 1049 l 385 1049 l 0 1049 b 140 429 0 1049 217 833 b 185 -31 110 272 107 93 b 707 -278 283 -186 489 -271 b 749 -278 721 -278 735 -278 b 1121 -225 849 -278 1026 -260 b 1392 704 1360 -135 1613 101 b 1539 1049 1290 982 1539 1049 z m 906 1488 l 674 1113 l 961 1447 l 906 1488 z "},"Û":{"ha":1654,"x_min":0,"x_max":0,"o":"m 1539 1049 l 1006 1049 b 1001 1049 1004 1049 1003 1049 b 1000 1049 1001 1049 1001 1049 b 1000 1049 1000 1049 1000 1049 b 988 1047 996 1047 992 1049 b 975 1046 983 1047 979 1046 b 865 964 929 1036 890 1003 b 842 904 854 946 847 925 b 826 813 833 874 828 843 b 832 689 825 771 824 729 b 931 457 843 638 864 556 b 543 -7 1410 -250 543 -358 b 663 421 543 76 594 274 b 471 1049 858 843 543 1049 l 385 1049 l 0 1049 b 140 429 0 1049 217 833 b 185 -31 110 272 107 93 b 707 -278 283 -186 489 -271 b 749 -278 721 -278 735 -278 b 1121 -225 849 -278 1026 -260 b 1392 704 1360 -135 1613 101 b 1539 1049 1290 982 1539 1049 z m 440 1113 l 506 1113 l 769 1374 l 1035 1113 l 1100 1113 l 769 1438 l 440 1113 z "},"Ü":{"ha":1654,"x_min":0,"x_max":0,"o":"m 1539 1049 l 1006 1049 b 1001 1049 1004 1049 1003 1049 b 1000 1049 1001 1049 1001 1049 b 1000 1049 1000 1049 1000 1049 b 988 1047 996 1047 992 1049 b 975 1046 983 1047 979 1046 b 865 964 929 1036 890 1003 b 842 904 854 946 847 925 b 826 813 833 874 828 843 b 832 689 825 771 824 729 b 931 457 843 638 864 556 b 543 -7 1410 -250 543 -358 b 663 421 543 76 594 274 b 471 1049 858 843 543 1049 l 385 1049 l 0 1049 b 140 429 0 1049 217 833 b 185 -31 110 272 107 93 b 707 -278 283 -186 489 -271 b 749 -278 721 -278 735 -278 b 1121 -225 849 -278 1026 -260 b 1392 704 1360 -135 1613 101 b 1539 1049 1290 982 1539 1049 z m 611 1401 b 490 1279 544 1401 490 1346 b 611 1157 490 1211 544 1157 b 733 1279 679 1157 733 1211 b 611 1401 733 1346 679 1401 z m 926 1401 b 806 1279 860 1401 806 1346 b 926 1157 806 1211 860 1157 b 1049 1279 994 1157 1049 1211 b 926 1401 1049 1346 994 1401 z "},"Ý":{"ha":1749,"x_min":0,"x_max":0,"o":"m 1240 36 b 1501 786 1707 413 1557 689 b 1557 1046 1411 940 1557 1046 l 1165 1046 b 1003 986 1103 1046 1043 1026 b 1031 774 929 914 971 832 b 1099 700 1065 740 1097 700 b 746 485 1188 599 1019 367 b 671 657 674 517 618 574 b 568 1046 867 968 615 1046 l 0 1046 b 113 740 0 1046 221 954 b 1008 392 4 526 253 158 b 1313 568 1008 392 1192 439 b 714 197 1313 568 1301 300 b 413 -101 456 153 406 14 b 604 -278 419 -201 504 -278 l 1299 -278 l 1288 -271 b 1240 36 1121 -203 1157 -32 z m 921 1488 l 689 1113 l 976 1447 l 921 1488 z "},"Þ":{"ha":1407,"x_min":0,"x_max":0,"o":"m 571 428 l 582 428 b 581 431 582 429 581 429 b 576 436 579 432 578 433 b 588 456 579 442 583 449 b 640 574 606 488 622 528 b 664 736 663 631 671 685 b 646 858 654 790 647 831 b 656 929 644 886 647 910 b 740 993 676 971 704 992 b 832 956 776 993 807 981 b 893 853 858 931 878 896 b 881 696 908 810 904 757 b 710 490 857 635 800 567 b 636 443 689 474 664 458 b 556 403 608 428 582 415 b 571 428 557 404 563 413 z m 574 1047 b 560 1154 572 1083 568 1118 b 540 1221 554 1178 547 1200 b 478 1308 526 1257 506 1286 b 385 1340 449 1329 418 1340 l 131 1340 l 8 1343 b 3 1047 -33 1256 -35 1157 b 72 963 7 1046 31 1017 b 149 819 114 908 139 860 b 151 765 151 801 153 783 b 142 753 149 761 146 757 b 75 614 106 704 83 658 b 69 539 69 585 68 560 b 60 497 65 525 63 511 b 82 229 44 426 51 336 b 118 -4 108 138 119 60 b 88 -160 115 -68 106 -119 b 36 -247 69 -200 53 -229 b 6 -278 18 -267 8 -276 l 772 -278 b 796 -260 781 -274 789 -267 b 813 -239 803 -253 808 -246 l 815 -233 b 817 -232 817 -233 817 -232 b 818 -231 817 -232 818 -232 b 803 -54 853 -164 847 -106 b 640 81 758 -4 704 40 b 556 200 594 114 565 154 b 554 206 556 201 556 204 b 575 308 549 246 556 281 b 642 371 593 335 615 356 b 742 411 672 389 706 403 b 856 433 779 419 817 426 b 1038 474 917 444 978 458 b 1203 538 1097 489 1153 510 b 1321 647 1251 564 1292 601 b 1365 826 1350 693 1365 753 b 1301 983 1365 888 1344 940 b 1144 1047 1258 1026 1206 1047 z "},"ß":{"ha":1647,"x_min":0,"x_max":0,"o":"m 897 400 b 894 401 897 400 896 400 b 704 406 874 403 764 413 b 1261 642 725 410 1028 479 b 1363 828 1324 685 1363 753 b 1297 985 1363 889 1338 944 b 1140 1050 1257 1025 1201 1050 l 769 1050 b 188 819 343 1050 217 926 b 181 742 179 792 179 765 b 142 528 186 668 174 594 b 124 490 135 515 129 503 b 124 188 81 400 51 310 b 144 156 129 176 136 167 b 93 -201 247 10 169 -122 b 93 -201 93 -201 93 -201 b 0 -276 53 -243 14 -269 l 535 -275 b 544 -275 536 -276 540 -276 b 546 -275 544 -276 546 -275 l 1414 -275 b 1606 -83 1519 -275 1606 -189 b 897 400 1606 96 1346 350 z m 815 -228 b 638 82 893 -94 756 1 b 585 132 617 97 599 114 b 638 576 476 257 572 467 b 661 738 667 625 669 689 b 653 931 640 849 636 890 b 828 958 689 1018 783 1004 b 719 503 897 885 979 725 b 718 503 719 503 719 503 b 565 325 592 389 565 325 b 863 251 733 383 863 251 b 815 -228 1017 68 1058 -212 z "},"à":{"ha":1236,"x_min":0,"x_max":0,"o":"m 1097 290 b 817 714 1179 492 1033 714 l 106 714 b 88 460 106 714 225 581 l 481 460 b 542 619 565 460 606 565 b 476 658 526 633 504 647 b 732 486 476 658 788 694 b -8 42 689 322 4 507 b 461 -278 -15 -232 210 -274 l 667 -278 b 1194 -278 983 -278 1194 -278 b 1097 290 1194 -278 929 -122 z m 554 -26 b 474 -212 593 -158 554 -247 b 742 400 336 -154 249 214 b 554 -26 735 394 482 222 z m 371 1156 l 315 1115 l 603 781 z "},"á":{"ha":1236,"x_min":0,"x_max":0,"o":"m 1097 290 b 817 714 1179 492 1033 714 l 106 714 b 88 460 106 714 225 581 l 481 460 b 542 619 565 460 606 565 b 476 658 526 633 504 647 b 732 486 476 658 788 694 b -8 42 689 322 4 507 b 461 -278 -15 -232 210 -274 l 667 -278 b 1194 -278 983 -278 1194 -278 b 1097 290 1194 -278 929 -122 z m 554 -26 b 474 -212 593 -158 554 -247 b 742 400 336 -154 249 214 b 554 -26 735 394 482 222 z m 643 1156 l 411 781 l 699 1115 l 643 1156 z "},"â":{"ha":1236,"x_min":0,"x_max":0,"o":"m 1097 290 b 817 714 1179 492 1033 714 l 106 714 b 88 460 106 714 225 581 l 481 460 b 542 619 565 460 606 565 b 476 658 526 633 504 647 b 732 486 476 658 788 694 b -8 42 689 322 4 507 b 461 -278 -15 -232 210 -274 l 667 -278 b 1194 -278 983 -278 1194 -278 b 1097 290 1194 -278 929 -122 z m 554 -26 b 474 -212 593 -158 554 -247 b 742 400 336 -154 249 214 b 554 -26 735 394 482 222 z m 178 781 l 243 781 l 507 1042 l 772 781 l 838 781 l 507 1106 l 178 781 z "},"ã":{"ha":1236,"x_min":0,"x_max":0,"o":"m 1097 290 b 817 714 1179 492 1033 714 l 106 714 b 88 460 106 714 225 581 l 481 460 b 542 619 565 460 606 565 b 476 658 526 633 504 647 b 732 486 476 658 788 694 b -8 42 689 322 4 507 b 461 -278 -15 -232 210 -274 l 667 -278 b 1194 -278 983 -278 1194 -278 b 1097 290 1194 -278 929 -122 z m 554 -26 b 474 -212 593 -158 554 -247 b 742 400 336 -154 249 214 b 554 -26 735 394 482 222 z m 767 951 b 776 978 774 968 776 978 b 757 957 776 978 769 969 b 701 914 744 946 726 929 b 618 894 678 900 649 890 b 574 911 603 897 589 903 b 563 918 569 913 567 915 b 553 925 560 921 556 922 b 542 933 549 928 546 931 l 531 943 l 519 953 b 506 964 515 957 511 960 b 478 982 497 969 488 976 b 415 1003 458 992 438 1000 b 351 999 393 1007 371 1004 b 303 975 332 993 317 985 b 251 918 276 956 260 933 b 242 899 246 910 243 903 b 239 892 239 894 239 892 b 260 910 239 892 246 900 b 319 946 274 921 293 936 b 361 957 332 951 346 956 b 406 954 375 958 390 957 b 450 933 421 950 436 943 b 472 918 457 929 465 924 b 482 910 475 915 479 913 l 493 900 l 506 890 b 519 879 508 886 514 883 b 533 871 524 876 528 874 b 549 863 538 867 543 864 b 614 844 568 851 592 846 b 678 857 638 843 658 849 b 722 888 696 865 710 876 b 750 922 733 900 743 911 b 767 951 757 933 763 943 z "},"ä":{"ha":1236,"x_min":0,"x_max":0,"o":"m 1097 290 b 817 714 1179 492 1033 714 l 106 714 b 88 460 106 714 225 581 l 481 460 b 542 619 565 460 606 565 b 476 658 526 633 504 647 b 732 486 476 658 788 694 b -8 42 689 322 4 507 b 461 -278 -15 -232 210 -274 l 667 -278 b 1194 -278 983 -278 1194 -278 b 1097 290 1194 -278 929 -122 z m 554 -26 b 474 -212 593 -158 554 -247 b 742 400 336 -154 249 214 b 554 -26 735 394 482 222 z m 349 1069 b 228 947 282 1069 228 1014 b 349 825 228 879 282 825 b 471 947 417 825 471 879 b 349 1069 471 1014 417 1069 z m 664 1069 b 543 947 597 1069 543 1014 b 664 825 543 879 597 825 b 786 947 732 825 786 879 b 664 1069 786 1014 732 1069 z "},"å":{"ha":1236,"x_min":0,"x_max":0,"o":"m 1097 290 b 817 714 1179 492 1033 714 l 106 714 b 88 460 106 714 225 581 l 481 460 b 542 619 565 460 606 565 b 476 658 526 633 504 647 b 732 486 476 658 788 694 b -8 42 689 322 4 507 b 461 -278 -15 -232 210 -274 l 667 -278 b 1194 -278 983 -278 1194 -278 b 1097 290 1194 -278 929 -122 z m 554 -26 b 474 -212 593 -158 554 -247 b 742 400 336 -154 249 214 b 554 -26 735 394 482 222 z m 507 1372 b 267 1133 375 1372 267 1265 b 507 893 267 1000 375 893 b 747 1133 639 893 747 1000 b 507 1372 747 1265 639 1372 z m 507 939 b 313 1133 400 939 313 1025 b 507 1326 313 1240 400 1326 b 701 1133 614 1326 701 1240 b 507 939 701 1025 614 939 z "},"æ":{"ha":1994,"x_min":0,"x_max":0,"o":"m 554 -26 b 560 -182 572 -94 575 -146 b 474 -212 544 -218 515 -228 b 374 -69 425 -190 392 -143 b 424 172 356 4 372 85 b 742 400 475 260 581 335 l 740 399 b 665 333 728 392 703 371 b 567 186 626 296 593 247 b 554 -26 539 124 535 53 z m 1249 333 b 1290 429 1258 365 1272 397 b 1415 594 1336 506 1378 560 b 1511 654 1453 628 1485 647 b 1564 658 1533 661 1551 663 b 1596 631 1576 654 1588 644 b 1613 471 1619 594 1625 542 b 1551 357 1603 426 1583 389 b 1460 307 1525 335 1494 318 b 1357 283 1425 294 1390 288 b 1274 278 1324 279 1296 278 b 1236 278 1250 276 1238 276 b 1249 333 1239 296 1243 315 z m 1164 -254 b 1272 -274 1206 -265 1242 -272 b 1322 -278 1300 -276 1317 -278 l 1946 -278 b 1864 -153 1906 -235 1878 -193 b 1850 -40 1850 -112 1846 -75 b 1875 50 1854 -6 1863 24 b 1911 110 1888 75 1899 94 b 1925 129 1918 119 1922 125 l 1928 132 l 1668 132 b 1522 100 1589 132 1540 121 b 1517 18 1504 78 1501 50 b 1575 -81 1532 -14 1551 -47 b 1621 -156 1594 -108 1610 -133 b 1621 -208 1632 -179 1632 -196 b 1531 -219 1608 -221 1579 -224 b 1392 -153 1486 -215 1440 -193 b 1271 4 1343 -112 1303 -61 b 1231 218 1239 68 1225 139 l 1769 218 b 1913 290 1831 218 1878 242 b 1938 453 1947 339 1956 393 b 1935 460 1936 454 1936 457 b 1931 468 1933 463 1932 465 b 1874 574 1918 506 1899 540 b 1756 674 1844 614 1804 647 b 1569 714 1707 700 1644 714 l 1364 714 b 1115 672 1265 714 1183 700 b 1028 628 1083 658 1054 644 b 1004 650 1021 636 1013 643 b 817 714 951 693 889 714 l 106 714 l 110 710 b 117 699 111 707 114 703 b 139 658 124 689 132 675 b 153 601 146 642 151 622 b 142 532 154 579 151 556 b 88 460 132 508 114 483 l 481 460 b 549 489 510 460 532 469 b 574 554 565 507 574 529 b 542 619 574 578 563 600 b 476 658 526 633 504 646 l 479 658 b 507 660 483 658 493 660 l 508 661 b 582 658 529 663 553 661 b 667 638 611 656 639 649 b 728 583 693 625 714 607 b 732 486 740 560 742 526 b 651 425 722 457 696 436 b 488 397 606 413 551 404 b 267 358 415 390 342 376 b 76 258 192 340 128 307 b -8 42 25 210 -4 138 b 56 -161 -10 -49 13 -115 b 226 -254 99 -207 156 -239 b 461 -278 297 -269 376 -278 l 1193 -278 b 1192 -276 1193 -276 1193 -276 b 1169 -258 1189 -274 1181 -268 b 1164 -254 1167 -257 1165 -256 z "},"ç":{"ha":1201,"x_min":0,"x_max":0,"o":"m 675 -278 l 582 -489 l 624 -489 b 753 -532 674 -489 717 -503 b 806 -635 788 -561 806 -594 b 753 -736 806 -675 788 -708 b 624 -779 717 -765 674 -779 b 489 -732 572 -779 528 -764 l 453 -774 b 624 -833 501 -814 558 -833 b 790 -775 689 -833 744 -814 b 860 -635 836 -736 860 -689 b 804 -506 860 -586 842 -543 b 664 -437 767 -469 721 -447 l 735 -278 l 925 -278 b 1088 -224 992 -278 1046 -260 b 1119 -93 1128 -189 1139 -144 b 1096 0 1104 -57 1097 -26 b 1106 65 1094 26 1099 47 b 1133 106 1113 82 1122 96 b 1163 126 1144 115 1154 122 l 1171 129 b 1174 131 1171 131 1172 131 l 1174 132 l 857 132 b 788 111 831 132 808 125 b 744 51 767 96 751 76 b 769 -57 736 14 744 -22 b 850 -147 794 -92 821 -121 b 894 -193 871 -165 885 -181 b 886 -219 903 -206 900 -215 b 789 -219 871 -224 839 -224 b 603 -110 728 -212 665 -175 b 471 132 539 -44 494 36 b 518 429 446 228 461 328 b 664 599 567 507 615 564 b 782 661 713 633 751 654 b 833 661 799 665 815 665 b 874 635 850 657 864 647 b 844 564 883 619 874 596 b 719 460 815 532 774 497 l 1054 460 b 1100 478 1072 460 1088 465 b 1119 521 1113 489 1118 503 b 1094 604 1121 547 1113 575 b 997 682 1076 633 1043 660 b 797 714 950 703 883 714 l 624 714 b 353 672 522 714 432 700 b 164 568 274 643 210 608 b 10 294 79 492 28 400 b 60 -14 -10 188 7 85 b 201 -169 99 -82 146 -133 b 364 -247 256 -207 310 -232 b 500 -274 418 -262 463 -272 b 551 -278 528 -276 546 -278 z "},"è":{"ha":1201,"x_min":0,"x_max":0,"o":"m 531 218 l 976 218 b 1144 453 1099 218 1185 338 b 1142 460 1143 454 1142 457 b 1138 468 1140 463 1139 465 b 1081 574 1124 504 1106 540 b 963 674 1050 614 1013 649 b 776 714 913 699 851 714 l 571 714 b 154 568 375 714 242 647 b 53 -14 -8 421 -50 179 b 532 -278 199 -285 532 -278 l 1153 -278 b 1135 132 943 -64 1135 132 l 875 132 b 738 -219 442 132 1061 -251 b 438 218 608 -207 417 -15 l 531 218 z m 456 333 b 497 429 465 365 479 397 b 718 654 589 583 664 639 b 803 631 764 668 785 658 b 819 471 824 599 833 538 b 758 357 811 428 789 388 b 443 278 657 267 446 278 b 456 333 446 296 450 314 z m 524 1156 l 468 1115 l 756 781 z "},"é":{"ha":1201,"x_min":0,"x_max":0,"o":"m 531 218 l 976 218 b 1144 453 1099 218 1185 338 b 1142 460 1143 454 1142 457 b 1138 468 1140 463 1139 465 b 1081 574 1124 504 1106 540 b 963 674 1050 614 1013 649 b 776 714 913 699 851 714 l 571 714 b 154 568 375 714 242 647 b 53 -14 -8 421 -50 179 b 532 -278 199 -285 532 -278 l 1153 -278 b 1135 132 943 -64 1135 132 l 875 132 b 738 -219 442 132 1061 -251 b 438 218 608 -207 417 -15 l 531 218 z m 456 333 b 497 429 465 365 479 397 b 718 654 589 583 664 639 b 803 631 764 668 785 658 b 819 471 824 599 833 538 b 758 357 811 428 789 388 b 443 278 657 267 446 278 b 456 333 446 296 450 314 z m 796 1156 l 564 781 l 851 1115 l 796 1156 z "},"ê":{"ha":1201,"x_min":0,"x_max":0,"o":"m 531 218 l 976 218 b 1144 453 1099 218 1185 338 b 1142 460 1143 454 1142 457 b 1138 468 1140 463 1139 465 b 1081 574 1124 504 1106 540 b 963 674 1050 614 1013 649 b 776 714 913 699 851 714 l 571 714 b 154 568 375 714 242 647 b 53 -14 -8 421 -50 179 b 532 -278 199 -285 532 -278 l 1153 -278 b 1135 132 943 -64 1135 132 l 875 132 b 738 -219 442 132 1061 -251 b 438 218 608 -207 417 -15 l 531 218 z m 456 333 b 497 429 465 365 479 397 b 718 654 589 583 664 639 b 803 631 764 668 785 658 b 819 471 824 599 833 538 b 758 357 811 428 789 388 b 443 278 657 267 446 278 b 456 333 446 296 450 314 z m 331 781 l 396 781 l 660 1042 l 925 781 l 990 781 l 660 1106 l 331 781 z "},"ë":{"ha":1201,"x_min":0,"x_max":0,"o":"m 531 218 l 976 218 b 1144 453 1099 218 1185 338 b 1142 460 1143 454 1142 457 b 1138 468 1140 463 1139 465 b 1081 574 1124 504 1106 540 b 963 674 1050 614 1013 649 b 776 714 913 699 851 714 l 571 714 b 154 568 375 714 242 647 b 53 -14 -8 421 -50 179 b 532 -278 199 -285 532 -278 l 1153 -278 b 1135 132 943 -64 1135 132 l 875 132 b 738 -219 442 132 1061 -251 b 438 218 608 -207 417 -15 l 531 218 z m 456 333 b 497 429 465 365 479 397 b 718 654 589 583 664 639 b 803 631 764 668 785 658 b 819 471 824 599 833 538 b 758 357 811 428 789 388 b 443 278 657 267 446 278 b 456 333 446 296 450 314 z m 501 1069 b 381 947 435 1069 381 1014 b 501 825 381 879 435 825 b 624 947 569 825 624 879 b 501 1069 624 1014 569 1069 z m 817 1069 b 696 947 750 1069 696 1014 b 817 825 696 879 750 825 b 939 947 885 825 939 879 b 817 1069 939 1014 885 1069 z "},"ì":{"ha":692,"x_min":0,"x_max":0,"o":"m 524 -278 b 643 -192 578 -278 625 -243 b 556 75 660 -139 653 -25 b 447 218 507 125 472 174 b 514 658 349 422 444 581 b 571 714 544 694 571 714 l 246 714 b 47 585 160 714 82 663 b 21 513 38 563 28 538 b 72 56 -19 356 8 193 b -7 -278 150 -115 -7 -278 l 524 -278 z m 231 1156 l 175 1115 l 463 781 z "},"í":{"ha":692,"x_min":0,"x_max":0,"o":"m 524 -278 b 643 -192 578 -278 625 -243 b 556 75 660 -139 653 -25 b 447 218 507 125 472 174 b 514 658 349 422 444 581 b 571 714 544 694 571 714 l 246 714 b 47 585 160 714 82 663 b 21 513 38 563 28 538 b 72 56 -19 356 8 193 b -7 -278 150 -115 -7 -278 l 524 -278 z m 503 1156 l 271 781 l 558 1115 l 503 1156 z "},"î":{"ha":692,"x_min":0,"x_max":0,"o":"m 524 -278 b 643 -192 578 -278 625 -243 b 556 75 660 -139 653 -25 b 447 218 507 125 472 174 b 514 658 349 422 444 581 b 571 714 544 694 571 714 l 246 714 b 47 585 160 714 82 663 b 21 513 38 563 28 538 b 72 56 -19 356 8 193 b -7 -278 150 -115 -7 -278 l 524 -278 z m 38 781 l 103 781 l 367 1042 l 632 781 l 697 781 l 367 1106 l 38 781 z "},"ï":{"ha":692,"x_min":0,"x_max":0,"o":"m 524 -278 b 643 -192 578 -278 625 -243 b 556 75 660 -139 653 -25 b 447 218 507 125 472 174 b 514 658 349 422 444 581 b 571 714 544 694 571 714 l 246 714 b 47 585 160 714 82 663 b 21 513 38 563 28 538 b 72 56 -19 356 8 193 b -7 -278 150 -115 -7 -278 l 524 -278 z m 208 1069 b 88 947 142 1069 88 1014 b 208 825 88 879 142 825 b 331 947 276 825 331 879 b 208 1069 331 1014 276 1069 z m 524 1069 b 403 947 457 1069 403 1014 b 524 825 403 879 457 825 b 646 947 592 825 646 879 b 524 1069 646 1014 592 1069 z "},"ð":{"ha":1250,"x_min":0,"x_max":0,"o":"m 781 -28 b 818 -179 810 -90 822 -142 b 700 -212 814 -217 774 -228 b 542 -69 631 -193 578 -146 b 482 182 504 7 485 90 b 524 421 478 274 492 353 b 668 522 554 488 603 521 b 813 410 740 515 789 478 b 819 296 824 375 826 338 b 790 207 813 265 803 236 b 757 103 775 175 764 140 b 781 -28 750 65 758 22 z m 546 853 l 232 853 l 232 808 l 567 808 b 597 774 575 797 585 785 b 692 676 638 736 668 703 b 742 611 714 650 731 628 b 761 572 751 593 758 581 b 763 564 761 569 763 567 b 764 561 763 564 763 563 l 764 560 b 644 661 740 592 700 625 b 438 713 589 696 519 714 b 154 588 356 711 261 669 b 42 447 108 553 71 507 b -4 226 11 388 -4 314 b -3 163 -6 219 -4 197 b 18 38 -1 128 6 86 b 79 -108 31 -11 50 -60 b 201 -229 108 -157 149 -197 b 407 -278 253 -261 322 -278 l 1199 -278 l 1196 -275 b 1179 -260 1193 -272 1188 -268 b 1136 -206 1167 -247 1151 -229 b 1096 -119 1119 -182 1106 -154 b 1085 -1 1085 -85 1081 -46 b 1128 143 1088 42 1101 90 b 1190 436 1174 239 1194 338 b 1121 714 1185 535 1161 626 b 1099 808 1107 746 1100 778 l 1299 808 l 1299 853 l 1101 853 b 1131 944 1107 886 1117 917 b 1176 1019 1146 976 1161 1001 b 1197 1044 1188 1032 1193 1042 l 1197 1046 l 1199 1047 l 669 1047 b 596 1024 642 1047 617 1039 b 550 961 575 1008 560 988 b 542 871 540 933 538 903 b 546 853 543 864 543 858 z "},"ñ":{"ha":1250,"x_min":0,"x_max":0,"o":"m 1156 438 b 1044 588 1132 511 1061 575 b 435 560 726 842 508 643 b 435 567 435 563 435 564 b 289 714 435 647 369 714 l 0 714 b 1 713 0 714 0 713 b 53 649 4 711 31 688 b 75 501 74 611 89 561 b 54 179 53 400 14 310 b 86 99 61 160 76 121 b 106 38 93 79 100 58 b 0 -278 149 -164 0 -278 l 501 -278 b 618 -172 561 -278 614 -233 b 499 110 628 -51 538 67 b 376 349 450 168 389 260 b 388 410 378 369 382 390 b 531 522 407 474 464 521 b 706 331 625 525 682 442 b 704 106 707 329 729 193 b 854 -278 607 -218 822 -278 l 1229 -278 b 1156 438 972 -86 1229 200 z m 875 951 b 885 978 882 968 885 978 b 865 957 885 978 878 969 b 810 914 853 946 835 929 b 726 894 786 900 757 890 b 682 911 711 897 697 903 b 671 918 678 913 675 915 b 661 925 668 921 664 922 b 650 933 657 928 654 931 l 639 943 l 628 953 b 614 964 624 957 619 960 b 586 982 606 969 596 976 b 524 1003 567 992 546 1000 b 460 999 501 1007 479 1004 b 411 975 440 993 425 985 b 360 918 385 956 368 933 b 350 899 354 910 351 903 b 347 892 347 894 347 892 b 368 910 347 892 354 900 b 428 946 382 921 401 936 b 469 957 440 951 454 956 b 514 954 483 958 499 957 b 558 933 529 950 544 943 b 581 918 565 929 574 924 b 590 910 583 915 588 913 l 601 900 l 614 890 b 628 879 617 886 622 883 b 642 871 632 876 636 874 b 657 863 646 867 651 864 b 722 844 676 851 700 846 b 786 857 746 843 767 849 b 831 888 804 865 818 876 b 858 922 842 900 851 911 b 875 951 865 933 871 943 z "},"ò":{"ha":1299,"x_min":0,"x_max":0,"o":"m 629 714 b 0 218 282 714 0 492 b 629 -278 0 -56 282 -278 b 1257 218 975 -278 1257 -56 b 629 714 1257 492 975 714 z m 629 -224 b 444 218 526 -224 444 -26 b 629 658 444 461 526 658 b 813 218 731 658 813 461 b 629 -224 813 -26 731 -224 z m 493 1156 l 438 1115 l 725 781 z "},"ó":{"ha":1299,"x_min":0,"x_max":0,"o":"m 629 714 b 0 218 282 714 0 492 b 629 -278 0 -56 282 -278 b 1257 218 975 -278 1257 -56 b 629 714 1257 492 975 714 z m 629 -224 b 444 218 526 -224 444 -26 b 629 658 444 461 526 658 b 813 218 731 658 813 461 b 629 -224 813 -26 731 -224 z m 765 1156 l 533 781 l 821 1115 l 765 1156 z "},"ô":{"ha":1299,"x_min":0,"x_max":0,"o":"m 629 714 b 0 218 282 714 0 492 b 629 -278 0 -56 282 -278 b 1257 218 975 -278 1257 -56 b 629 714 1257 492 975 714 z m 629 -224 b 444 218 526 -224 444 -26 b 629 658 444 461 526 658 b 813 218 731 658 813 461 b 629 -224 813 -26 731 -224 z m 300 781 l 365 781 l 629 1042 l 894 781 l 960 781 l 629 1106 l 300 781 z "},"õ":{"ha":1299,"x_min":0,"x_max":0,"o":"m 629 714 b 0 218 282 714 0 492 b 629 -278 0 -56 282 -278 b 1257 218 975 -278 1257 -56 b 629 714 1257 492 975 714 z m 629 -224 b 444 218 526 -224 444 -26 b 629 658 444 461 526 658 b 813 218 731 658 813 461 b 629 -224 813 -26 731 -224 z m 889 951 b 899 978 896 968 899 978 b 879 957 899 978 892 969 b 824 914 867 946 849 929 b 740 894 800 900 771 890 b 696 911 725 897 711 903 b 685 918 692 913 689 915 b 675 925 682 921 678 922 b 664 933 671 928 668 931 l 653 943 l 642 953 b 628 964 638 957 633 960 b 600 982 619 969 610 976 b 538 1003 581 992 560 1000 b 474 999 515 1007 493 1004 b 425 975 454 993 439 985 b 374 918 399 956 382 933 b 364 899 368 910 365 903 b 361 892 361 894 361 892 b 382 910 361 892 368 900 b 442 946 396 921 415 936 b 483 957 454 951 468 956 b 528 954 497 958 513 957 b 572 933 543 950 558 943 b 594 918 579 929 588 924 b 604 910 597 915 601 913 l 615 900 l 628 890 b 642 879 631 886 636 883 b 656 871 646 876 650 874 b 671 863 660 867 665 864 b 736 844 690 851 714 846 b 800 857 760 843 781 849 b 844 888 818 865 832 876 b 872 922 856 900 865 911 b 889 951 879 933 885 943 z "},"ö":{"ha":1299,"x_min":0,"x_max":0,"o":"m 629 714 b 0 218 282 714 0 492 b 629 -278 0 -56 282 -278 b 1257 218 975 -278 1257 -56 b 629 714 1257 492 975 714 z m 629 -224 b 444 218 526 -224 444 -26 b 629 658 444 461 526 658 b 813 218 731 658 813 461 b 629 -224 813 -26 731 -224 z m 471 1069 b 350 947 404 1069 350 1014 b 471 825 350 879 404 825 b 593 947 539 825 593 879 b 471 1069 593 1014 539 1069 z m 786 1069 b 665 947 719 1069 665 1014 b 786 825 665 879 719 825 b 908 947 854 825 908 879 b 786 1069 908 1014 854 1069 z "},"÷":{"ha":1108,"x_min":0,"x_max":0,"o":"m 1067 407 l 0 407 l 0 363 l 1067 363 l 1067 407 z m 533 218 b 350 35 432 218 350 136 b 533 -147 350 -65 432 -147 b 715 35 633 -147 715 -65 b 533 218 715 136 633 218 z m 533 515 b 715 697 633 515 715 596 b 533 879 715 799 633 879 b 350 697 432 879 350 799 b 533 515 350 596 432 515 z "},"ø":{"ha":1299,"x_min":0,"x_max":0,"o":"m 757 532 l 478 -36 b 444 218 456 38 444 122 b 499 529 444 339 463 443 b 629 658 535 615 578 658 b 757 532 679 658 721 617 z m 779 471 b 813 218 801 397 813 314 b 758 -94 813 96 794 -8 b 629 -224 722 -181 679 -224 b 500 -96 579 -224 535 -181 z m 378 -237 l 276 -444 l 328 -444 l 422 -251 b 629 -278 488 -269 557 -278 b 944 -211 744 -278 849 -256 b 1172 -32 1040 -167 1115 -107 b 1257 218 1229 43 1257 126 b 1172 467 1257 308 1229 392 b 944 647 1115 542 1040 601 b 879 674 924 657 901 665 l 981 881 l 929 881 l 833 688 b 629 714 769 706 701 714 b 313 647 514 714 408 692 b 85 467 217 601 142 542 b 0 218 28 392 0 308 b 85 -32 0 126 28 43 b 313 -211 142 -107 217 -167 b 378 -237 333 -221 356 -231 z "},"ù":{"ha":1271,"x_min":0,"x_max":0,"o":"m 1229 714 l 728 714 b 611 608 668 714 617 668 b 731 325 601 486 692 369 b 853 88 779 268 840 176 b 842 26 851 65 847 44 b 699 -87 824 -39 765 -86 b 524 106 604 -90 547 -7 b 526 329 524 106 500 242 b 375 714 622 653 407 714 l 0 714 b 74 -1 257 522 0 236 b 185 -153 97 -76 168 -140 b 794 -125 504 -407 721 -207 b 885 -278 774 -167 803 -278 l 1229 -278 b 1229 -278 1229 -278 1229 -278 b 1176 -214 1226 -275 1199 -251 b 1154 -67 1157 -176 1140 -125 b 1175 256 1176 36 1215 126 b 1144 338 1168 276 1153 314 b 1125 399 1136 357 1129 376 b 1229 714 1081 600 1229 714 z m 479 1156 l 424 1115 l 711 781 z "},"ú":{"ha":1271,"x_min":0,"x_max":0,"o":"m 1229 714 l 728 714 b 611 608 668 714 617 668 b 731 325 601 486 692 369 b 853 88 779 268 840 176 b 842 26 851 65 847 44 b 699 -87 824 -39 765 -86 b 524 106 604 -90 547 -7 b 526 329 524 106 500 242 b 375 714 622 653 407 714 l 0 714 b 74 -1 257 522 0 236 b 185 -153 97 -76 168 -140 b 794 -125 504 -407 721 -207 b 885 -278 774 -167 803 -278 l 1229 -278 b 1229 -278 1229 -278 1229 -278 b 1176 -214 1226 -275 1199 -251 b 1154 -67 1157 -176 1140 -125 b 1175 256 1176 36 1215 126 b 1144 338 1168 276 1153 314 b 1125 399 1136 357 1129 376 b 1229 714 1081 600 1229 714 z m 751 1156 l 519 781 l 807 1115 l 751 1156 z "},"û":{"ha":1271,"x_min":0,"x_max":0,"o":"m 1229 714 l 728 714 b 611 608 668 714 617 668 b 731 325 601 486 692 369 b 853 88 779 268 840 176 b 842 26 851 65 847 44 b 699 -87 824 -39 765 -86 b 524 106 604 -90 547 -7 b 526 329 524 106 500 242 b 375 714 622 653 407 714 l 0 714 b 74 -1 257 522 0 236 b 185 -153 97 -76 168 -140 b 794 -125 504 -407 721 -207 b 885 -278 774 -167 803 -278 l 1229 -278 b 1229 -278 1229 -278 1229 -278 b 1176 -214 1226 -275 1199 -251 b 1154 -67 1157 -176 1140 -125 b 1175 256 1176 36 1215 126 b 1144 338 1168 276 1153 314 b 1125 399 1136 357 1129 376 b 1229 714 1081 600 1229 714 z m 286 781 l 351 781 l 615 1042 l 881 781 l 946 781 l 615 1106 l 286 781 z "},"ü":{"ha":1271,"x_min":0,"x_max":0,"o":"m 1229 714 l 728 714 b 611 608 668 714 617 668 b 731 325 601 486 692 369 b 853 88 779 268 840 176 b 842 26 851 65 847 44 b 699 -87 824 -39 765 -86 b 524 106 604 -90 547 -7 b 526 329 524 106 500 242 b 375 714 622 653 407 714 l 0 714 b 74 -1 257 522 0 236 b 185 -153 97 -76 168 -140 b 794 -125 504 -407 721 -207 b 885 -278 774 -167 803 -278 l 1229 -278 b 1229 -278 1229 -278 1229 -278 b 1176 -214 1226 -275 1199 -251 b 1154 -67 1157 -176 1140 -125 b 1175 256 1176 36 1215 126 b 1144 338 1168 276 1153 314 b 1125 399 1136 357 1129 376 b 1229 714 1081 600 1229 714 z m 457 1069 b 336 947 390 1069 336 1014 b 457 825 336 879 390 825 b 579 947 525 825 579 879 b 457 1069 579 1014 525 1069 z m 772 1069 b 651 947 706 1069 651 1014 b 772 825 651 879 706 825 b 894 947 840 825 894 879 b 772 1069 894 1014 840 1069 z "},"ý":{"ha":1353,"x_min":0,"x_max":0,"o":"m 894 711 b 710 553 803 711 722 644 b 831 168 689 421 764 271 b 846 32 857 128 863 76 b 846 31 846 32 846 31 b 844 26 846 29 844 28 b 793 -53 835 -6 817 -32 b 700 -87 767 -74 735 -86 b 525 106 607 -90 549 -7 b 528 329 525 106 501 242 b 378 714 624 653 408 714 l 3 714 b 76 -1 258 522 1 236 b 186 -153 100 -76 171 -140 b 838 -125 506 -407 764 -207 b 931 29 869 -86 907 -42 b 639 -443 1053 -161 974 -490 b 550 -422 613 -439 582 -432 b 101 -400 339 -354 194 -368 b 19 -610 17 -431 -22 -531 l 185 -936 b 650 -750 185 -936 310 -649 b 1235 -72 872 -815 1396 -644 b 1150 222 1235 -72 1175 63 b 1294 708 1122 397 1176 576 b 1297 711 1297 711 1297 711 l 989 711 l 894 711 z m 786 1156 l 554 781 l 842 1115 l 786 1156 z "},"þ":{"ha":1239,"x_min":0,"x_max":0,"o":"m 428 278 b 449 319 436 289 443 303 b 449 413 454 342 454 372 b 397 535 442 453 425 493 l 383 554 b 379 614 379 576 376 597 b 497 649 383 651 424 664 b 657 504 567 628 619 581 b 717 253 693 428 713 344 b 675 15 719 161 706 82 b 529 -87 643 -51 594 -86 b 386 26 457 -81 410 -43 b 378 140 374 60 371 97 b 408 228 385 171 394 200 b 428 278 417 244 422 261 z m 315 714 b 314 865 303 771 303 821 b 372 1004 329 926 349 972 b 396 1038 382 1019 389 1031 l 406 1049 l 211 1049 b 93 944 160 1049 121 1014 b 78 886 88 926 82 907 b 69 714 68 828 65 769 l -1 714 l 1 711 b 18 696 4 708 10 703 b 63 642 31 683 46 665 b 85 600 71 629 78 615 b 108 518 90 572 99 544 b 113 506 110 514 111 510 b 114 438 115 483 115 461 b 69 292 110 394 96 346 b 8 0 24 196 3 99 b 76 -278 14 -99 36 -192 b 97 -401 94 -321 101 -362 b 67 -508 93 -442 82 -476 b 21 -583 51 -540 36 -565 b 0 -608 10 -596 4 -606 l 0 -610 l -1 -611 l 529 -611 b 603 -587 556 -611 581 -603 b 647 -525 624 -572 639 -551 b 656 -435 657 -499 660 -468 b 600 -337 651 -403 632 -369 b 507 -242 560 -300 529 -268 b 457 -175 483 -215 467 -193 b 438 -137 446 -158 439 -146 l 435 -129 b 433 -126 435 -129 435 -128 l 433 -125 b 554 -225 458 -156 499 -189 b 760 -276 608 -261 678 -278 b 1043 -153 842 -275 936 -233 b 1157 -11 1089 -118 1126 -71 b 1201 208 1186 49 1201 121 l 1201 210 b 1200 272 1203 217 1201 238 b 1181 399 1199 307 1192 350 b 1119 544 1168 447 1149 496 b 997 665 1090 592 1050 632 b 790 714 944 697 875 714 z "},"ÿ":{"ha":1353,"x_min":0,"x_max":0,"o":"m 894 711 b 710 553 803 711 722 644 b 831 168 689 421 764 271 b 846 32 857 128 863 76 b 846 31 846 32 846 31 b 844 26 846 29 844 28 b 793 -53 835 -6 817 -32 b 700 -87 767 -74 735 -86 b 525 106 607 -90 549 -7 b 528 329 525 106 501 242 b 378 714 624 653 408 714 l 3 714 b 76 -1 258 522 1 236 b 186 -153 100 -76 171 -140 b 838 -125 506 -407 764 -207 b 931 29 869 -86 907 -42 b 639 -443 1053 -161 974 -490 b 550 -422 613 -439 582 -432 b 101 -400 339 -354 194 -368 b 19 -610 17 -431 -22 -531 l 185 -936 b 650 -750 185 -936 310 -649 b 1235 -72 872 -815 1396 -644 b 1150 222 1235 -72 1175 63 b 1294 708 1122 397 1176 576 b 1297 711 1297 711 1297 711 l 989 711 l 894 711 z m 492 1069 b 371 947 425 1069 371 1014 b 492 825 371 879 425 825 b 614 947 560 825 614 879 b 492 1069 614 1014 560 1069 z m 807 1069 b 686 947 740 1069 686 1014 b 807 825 686 879 740 825 b 929 947 875 825 929 879 b 807 1069 929 1014 875 1069 z "},"ı":{"ha":692,"x_min":0,"x_max":0,"o":"m 524 -278 b 643 -192 578 -278 625 -243 b 556 75 660 -139 653 -25 b 447 218 507 125 472 174 b 514 658 349 422 444 581 b 571 714 544 694 571 714 l 246 714 b 47 585 160 714 82 663 b 21 513 38 563 28 538 b 72 56 -19 356 8 193 b -7 -278 150 -115 -7 -278 l 524 -278 z "},"̀":{"ha":329,"x_min":0,"x_max":0,"o":"m 56 1488 l 0 1447 l 288 1113 z "},"́":{"ha":329,"x_min":0,"x_max":0,"o":"m 232 1488 l 0 1113 l 288 1447 l 232 1488 z "},"̂":{"ha":701,"x_min":0,"x_max":0,"o":"m 0 1113 l 65 1113 l 329 1374 l 594 1113 l 660 1113 l 329 1438 l 0 1113 z "},"̃":{"ha":579,"x_min":0,"x_max":0,"o":"m 528 1283 b 538 1310 535 1300 538 1310 b 518 1289 538 1310 531 1301 b 463 1246 506 1278 488 1261 b 379 1226 439 1232 410 1222 b 335 1243 364 1229 350 1235 b 324 1250 331 1244 328 1247 b 314 1257 321 1253 317 1254 b 303 1265 310 1260 307 1263 l 292 1275 l 281 1285 b 267 1296 276 1289 272 1292 b 239 1314 258 1301 249 1308 b 176 1335 219 1324 199 1332 b 113 1331 154 1339 132 1336 b 64 1307 93 1325 78 1317 b 13 1250 38 1288 21 1265 b 3 1231 7 1242 4 1235 b 0 1224 0 1226 0 1224 b 21 1242 0 1224 7 1232 b 81 1278 35 1253 54 1268 b 122 1289 93 1283 107 1288 b 167 1286 136 1290 151 1289 b 211 1265 182 1282 197 1275 b 233 1250 218 1261 226 1256 b 243 1242 236 1247 240 1244 l 254 1232 l 267 1222 b 281 1211 269 1218 275 1215 b 294 1203 285 1208 289 1206 b 310 1194 299 1199 304 1196 b 375 1176 329 1183 353 1178 b 439 1189 399 1175 419 1181 b 483 1219 457 1197 471 1208 b 511 1254 494 1232 504 1243 b 528 1283 518 1265 524 1275 z "},"̄":{"ha":544,"x_min":0,"x_max":0,"o":"m 503 1278 l 0 1278 l 0 1232 l 503 1232 l 503 1278 z "},"̇":{"ha":285,"x_min":0,"x_max":0,"o":"m 121 1401 b 0 1279 54 1401 0 1346 b 121 1157 0 1211 54 1157 b 243 1279 189 1157 243 1211 b 121 1401 243 1346 189 1401 z "},"̈":{"ha":600,"x_min":0,"x_max":0,"o":"m 121 1401 b 0 1279 54 1401 0 1346 b 121 1157 0 1211 54 1157 b 243 1279 189 1157 243 1211 b 121 1401 243 1346 189 1401 z m 436 1401 b 315 1279 369 1401 315 1346 b 436 1157 315 1211 369 1157 b 558 1279 504 1157 558 1211 b 436 1401 558 1346 504 1401 z "},"̊":{"ha":522,"x_min":0,"x_max":0,"o":"m 240 1494 b 0 1256 108 1494 0 1388 b 240 1015 0 1122 108 1015 b 481 1256 372 1015 481 1122 b 240 1494 481 1388 372 1494 z m 240 1061 b 46 1256 133 1061 46 1147 b 240 1449 46 1363 133 1449 b 435 1256 347 1449 435 1363 b 240 1061 435 1147 347 1061 z "},"̌":{"ha":701,"x_min":0,"x_max":0,"o":"m 0 1438 l 329 1113 l 660 1438 l 594 1438 l 329 1176 l 65 1438 z "},"̧":{"ha":449,"x_min":0,"x_max":0,"o":"m 171 -531 b 407 -332 300 -531 407 -442 b 211 -135 407 -233 322 -151 l 300 67 l 250 89 l 129 -186 l 171 -186 b 353 -332 271 -186 353 -251 b 171 -476 353 -411 271 -476 b 36 -429 119 -476 71 -460 l 0 -471 b 171 -531 44 -510 106 -531 z "},"–":{"ha":1108,"x_min":0,"x_max":0,"o":"m 1067 407 l 0 407 l 0 363 l 1067 363 l 1067 407 z "},"—":{"ha":1736,"x_min":0,"x_max":0,"o":"m 1694 407 l 0 407 l 0 363 l 1694 363 l 1694 407 z "},"‘":{"ha":407,"x_min":0,"x_max":0,"o":"m 0 743 b 0 738 0 740 0 738 b 182 556 0 638 82 556 b 365 738 283 556 365 638 b 182 921 365 839 283 921 b 182 921 182 921 182 921 b 239 1049 185 1001 239 1049 b 0 743 31 1008 0 754 z "},"’":{"ha":407,"x_min":0,"x_max":0,"o":"m 364 863 b 365 867 364 865 365 867 b 182 1049 365 968 283 1049 b 0 867 82 1049 0 968 b 182 685 0 765 82 685 b 182 685 182 685 182 685 b 125 556 179 604 125 556 b 364 863 333 596 364 851 z "},"‚":{"ha":407,"x_min":0,"x_max":0,"o":"m 365 -101 b 365 -97 365 -99 365 -97 b 182 85 365 4 283 85 b 0 -97 82 85 0 4 b 182 -279 0 -199 82 -279 b 183 -279 183 -279 183 -279 b 125 -408 181 -360 125 -408 b 365 -101 335 -368 365 -112 z "},"“":{"ha":801,"x_min":0,"x_max":0,"o":"m 394 743 b 394 738 394 740 394 738 b 576 556 394 638 476 556 b 760 738 678 556 760 638 b 576 921 760 839 678 921 b 576 921 576 921 576 921 b 633 1049 579 1001 633 1049 b 394 743 425 1008 394 754 z m 0 743 b 0 738 0 740 0 738 b 182 556 0 638 82 556 b 365 738 283 556 365 638 b 182 921 365 839 283 921 b 182 921 182 921 182 921 b 240 1049 185 1001 240 1049 b 0 743 31 1008 0 754 z "},"”":{"ha":801,"x_min":0,"x_max":0,"o":"m 365 863 b 365 867 365 865 365 867 b 182 1049 365 968 283 1049 b 0 867 82 1049 0 968 b 182 685 0 765 82 685 b 183 685 183 685 183 685 b 125 556 181 604 125 556 b 365 863 335 596 365 851 z m 758 863 b 760 867 758 865 760 867 b 576 1049 760 968 678 1049 b 394 867 476 1049 394 968 b 576 685 394 765 476 685 b 576 685 576 685 576 685 b 519 556 574 604 519 556 b 758 863 728 596 758 851 z "},"„":{"ha":801,"x_min":0,"x_max":0,"o":"m 365 -101 b 365 -97 365 -99 365 -97 b 182 85 365 4 283 85 b 0 -97 82 85 0 4 b 182 -279 0 -199 82 -279 b 183 -279 183 -279 183 -279 b 125 -408 181 -360 125 -408 b 365 -101 335 -368 365 -112 z m 758 -101 b 760 -97 758 -99 760 -97 b 576 85 760 4 678 85 b 394 -97 476 85 394 4 b 576 -279 394 -199 476 -279 b 576 -279 576 -279 576 -279 b 519 -408 574 -360 519 -408 b 758 -101 728 -368 758 -112 z "},"†":{"ha":1108,"x_min":0,"x_max":0,"o":"m 557 1047 l 511 1047 l 511 536 l 0 536 l 0 490 l 511 490 l 511 -278 l 557 -278 l 557 490 l 1067 490 l 1067 536 l 557 536 l 557 1047 z "},"‡":{"ha":1108,"x_min":0,"x_max":0,"o":"m 557 490 l 1067 490 l 1067 536 l 557 536 l 557 1047 l 511 1047 l 511 536 l 0 536 l 0 490 l 511 490 l 511 344 l 0 344 l 0 299 l 511 299 l 511 -278 l 557 -278 l 557 299 l 1067 299 l 1067 344 l 557 344 l 557 490 z "},"•":{"ha":444,"x_min":0,"x_max":0,"o":"m 201 286 b 343 344 256 286 303 306 b 403 488 382 385 403 432 b 343 628 403 542 382 589 b 201 688 304 668 257 688 b 60 629 146 688 99 668 b 0 488 21 590 0 543 b 58 344 0 432 19 383 b 201 286 97 306 144 286 z "},"…":{"ha":2304,"x_min":0,"x_max":0,"o":"m 183 90 b 0 -93 82 90 0 8 b 183 -275 0 -193 82 -275 b 365 -93 283 -275 365 -193 b 183 90 365 8 283 90 z m 1132 90 b 949 -93 1031 90 949 8 b 1132 -275 949 -193 1031 -275 b 1314 -93 1232 -275 1314 -193 b 1132 90 1314 8 1232 90 z m 2081 90 b 1897 -93 1979 90 1897 8 b 2081 -275 1897 -193 1979 -275 b 2263 -93 2181 -275 2263 -193 b 2081 90 2263 8 2181 90 z "},"‹":{"ha":471,"x_min":0,"x_max":0,"o":"m 429 838 l 429 910 l 29 424 l 0 388 l 29 351 l 429 -135 l 429 -62 l 58 388 l 429 838 z "},"›":{"ha":471,"x_min":0,"x_max":0,"o":"m 0 -62 l 0 -135 l 400 351 l 429 388 l 400 424 l 0 910 l 0 838 l 371 388 l 0 -62 z "},"⁄":{"ha":746,"x_min":0,"x_max":0,"o":"m 653 1047 l 0 -278 l 51 -278 l 704 1047 l 653 1047 z "},"∕":{"ha":746,"x_min":0,"x_max":0,"o":"m 653 1047 l 0 -278 l 51 -278 l 704 1047 l 653 1047 z "},"₣":{"ha":1540,"x_min":0,"x_max":0,"o":"m 1499 549 b 1453 1051 1499 549 1250 682 l 267 1051 l 44 1051 b 135 411 279 842 75 725 l 0 411 l 0 365 l 144 365 b 179 263 153 333 164 299 b 182 -157 260 57 232 -75 b 122 -218 161 -181 140 -201 b 42 -274 81 -254 46 -272 b 40 -275 40 -275 40 -275 l 1169 -275 b 1351 -83 1274 -275 1357 -187 b 1176 90 1347 11 1269 88 b 1024 17 1114 93 1058 64 b 996 -36 1011 1 1001 -17 b 986 -92 990 -54 986 -72 b 989 -115 986 -100 988 -108 b 989 -115 989 -115 989 -115 b 818 -211 989 -119 988 -239 b 615 103 671 -187 575 -42 b 593 365 617 104 671 240 l 769 365 l 769 411 l 578 411 b 508 636 546 504 518 518 l 508 638 b 508 643 508 639 508 642 b 693 936 504 778 581 875 b 996 1006 779 982 888 1006 b 825 707 996 1006 825 925 b 938 549 825 647 854 590 z "},"₤":{"ha":1540,"x_min":0,"x_max":0,"o":"m 525 233 l 771 233 l 771 278 l 542 278 b 549 294 543 283 546 289 b 578 365 558 313 568 336 l 769 365 l 769 411 l 593 411 b 633 531 617 451 631 492 b 629 628 636 568 635 601 b 617 674 622 654 618 669 l 615 674 b 647 876 597 749 607 817 b 818 988 686 936 743 972 b 901 989 851 993 879 993 b 951 968 922 985 939 978 b 978 936 964 958 972 947 b 988 907 982 925 986 915 l 988 899 b 989 894 989 897 989 896 l 989 893 b 986 868 988 885 986 876 b 996 813 986 849 989 831 b 1024 760 1003 793 1011 775 b 1176 686 1061 711 1111 686 b 1297 739 1225 689 1265 707 b 1351 860 1329 771 1347 811 b 1300 996 1353 914 1335 958 b 1169 1051 1265 1033 1221 1051 l 40 1051 l 42 1050 b 68 1035 44 1049 53 1044 b 122 996 83 1025 101 1013 b 182 933 142 978 161 957 b 231 771 208 893 225 839 b 179 514 235 703 218 617 b 144 411 164 478 153 443 l 0 411 l 0 365 l 135 365 b 124 278 129 335 125 306 l 0 278 l 0 233 l 124 233 b 125 200 124 222 124 210 b 144 65 129 151 136 106 b 157 -103 160 6 164 -50 b 44 -275 150 -156 113 -212 l 1453 -275 b 1381 -81 1413 -201 1389 -136 b 1382 63 1371 -25 1372 22 b 1425 158 1392 101 1407 133 b 1475 211 1443 182 1460 200 b 1496 225 1485 218 1492 224 l 1497 226 b 1499 228 1497 228 1497 228 l 938 228 b 825 69 858 185 821 132 b 851 -68 826 15 835 -31 b 910 -161 868 -107 888 -137 b 969 -212 932 -185 951 -203 b 992 -226 981 -219 989 -225 b 994 -228 993 -228 994 -228 b 996 -229 994 -229 994 -229 b 693 -158 888 -229 786 -206 b 557 -40 636 -129 590 -89 b 508 133 522 8 507 65 l 508 140 b 525 232 513 179 518 210 z "},"₧":{"ha":3526,"x_min":0,"x_max":0,"o":"m 889 750 l 163 750 l 0 750 l 1 750 b 1 750 1 750 1 750 l 3 750 b 106 475 15 746 163 606 b 99 461 104 471 101 465 b 64 115 57 385 14 283 b 6 -278 151 -169 10 -275 l 163 -278 l 600 -278 b 636 -242 619 -268 636 -242 b 499 0 697 -137 590 -62 b 432 93 463 24 439 58 b 432 97 432 94 432 96 b 499 225 419 161 461 201 b 576 256 522 240 549 250 b 1061 578 781 301 1061 313 b 1010 700 1061 625 1042 668 b 889 750 979 731 936 750 z m 551 318 b 432 250 521 292 472 268 b 499 383 435 253 474 313 b 517 508 513 425 522 471 b 510 658 501 594 497 626 b 646 679 538 725 611 715 b 551 318 701 621 765 494 z m 1997 392 b 1757 544 1907 440 1815 485 b 1913 701 1601 707 1913 701 b 2004 651 1913 701 2024 704 b 1988 539 2004 650 1978 603 b 2138 426 1997 469 2067 426 l 2422 426 b 2313 750 2272 615 2313 750 l 1061 750 b 1069 426 1197 526 1069 426 l 1428 426 b 1515 525 1475 426 1515 465 b 1406 693 1522 625 1363 638 b 1546 650 1451 751 1535 674 b 1796 222 1613 546 1614 338 b 1906 103 1851 188 1888 146 b 1886 -139 1943 18 1924 -72 b 1774 -226 1854 -197 1803 -222 b 1701 3 1617 -243 1571 -136 b 1747 151 1756 61 1761 113 b 1628 236 1731 203 1681 236 l 1544 236 l 1146 236 b 1296 79 1279 217 1319 131 b 1318 -99 1269 22 1286 -44 b 1469 -226 1350 -157 1408 -200 b 1483 -232 1474 -228 1479 -231 b 1728 -279 1561 -264 1644 -279 l 1831 -279 b 2082 -233 1854 -279 1993 -271 b 2275 61 2199 -185 2275 -67 b 1997 392 2275 231 2138 317 z m 3050 539 b 3200 426 3061 469 3129 426 l 3485 426 b 3440 750 3278 633 3440 750 l 2782 750 b 2560 701 2719 750 2628 738 b 2493 644 2532 686 2508 667 b 2494 483 2465 604 2460 551 b 2507 460 2499 475 2503 468 b 2942 150 2589 324 2797 239 b 3086 -50 3038 92 3104 29 b 2818 -215 3046 -222 2919 -218 b 2764 3 2772 -214 2597 -139 b 2811 151 2825 54 2824 113 b 2690 236 2793 203 2744 236 l 2286 236 b 2376 79 2419 217 2401 131 b 2381 -99 2350 22 2350 -44 b 2533 -226 2414 -157 2471 -200 b 2546 -232 2538 -228 2542 -231 b 2790 -278 2624 -264 2707 -278 l 2893 -278 b 3144 -233 2918 -278 3054 -264 b 3442 61 3286 -185 3442 -67 b 3083 415 3440 231 3224 339 b 2819 544 2993 464 2878 485 b 2975 701 2664 707 2975 701 b 3068 651 2975 701 3086 704 b 3050 539 3067 650 3040 603 z "},"€":{"ha":1786,"x_min":0,"x_max":0,"o":"m 1569 142 l 1096 142 b 1131 78 1110 119 1119 97 b 1054 -229 1218 -90 1218 -229 b 672 240 942 -229 692 -56 l 1067 240 l 1067 286 l 671 286 b 710 488 672 349 685 417 l 1067 488 l 1067 533 l 728 533 b 842 735 754 597 792 665 b 1192 1004 985 935 1192 1004 b 1013 710 1024 914 1004 789 b 1101 632 1018 665 1057 632 l 1590 632 b 1557 696 1578 654 1565 676 b 1557 940 1506 808 1519 886 b 1744 1049 1618 1028 1744 1049 l 1089 1049 b 646 969 938 1049 786 1024 b 182 533 468 900 268 771 l 0 533 l 0 488 l 167 488 b 138 286 150 428 139 360 l 0 286 l 0 240 l 138 240 b 740 -275 154 -49 419 -275 l 1304 -275 b 1465 -244 1360 -275 1414 -265 b 1496 -231 1483 -236 1494 -231 b 1496 -229 1496 -229 1496 -229 b 1660 51 1628 -172 1657 -39 b 1569 142 1661 100 1621 142 z "},"№":{"ha":2656,"x_min":0,"x_max":0,"o":"m 1325 278 b 1451 861 1389 499 1453 692 b 1261 1049 1450 965 1364 1049 l 743 1049 b 1026 258 743 1049 1068 721 b 978 239 1024 236 996 224 b 743 789 775 406 779 557 b 450 1047 711 985 546 1047 l 19 1047 b 79 663 19 1047 154 892 b 128 153 0 428 19 385 b 58 -278 236 -79 58 -278 l 514 -278 b 738 -74 631 -278 728 -189 b 606 260 746 24 722 143 b 433 972 385 481 425 861 b 661 519 604 906 626 790 b 825 -1 689 297 738 167 b 882 -93 840 -31 858 -61 b 1247 -278 967 -210 1103 -278 l 1524 -278 b 1325 278 1524 -278 1238 -26 z m 2079 1031 b 1546 610 1785 1031 1546 842 b 2079 189 1546 378 1785 189 b 2611 610 2372 189 2611 378 b 2079 1031 2611 842 2372 1031 z m 2079 236 b 1922 610 1993 236 1922 403 b 2079 983 1922 817 1993 983 b 2235 610 2165 983 2235 817 b 2079 236 2235 403 2165 236 z m 2560 90 l 1694 90 l 1694 46 l 2560 46 l 2560 90 z "},"™":{"ha":1419,"x_min":0,"x_max":0,"o":"m 438 944 b 508 890 442 911 475 890 l 643 890 b 592 1044 572 981 592 1044 l 0 1044 b 4 890 64 939 4 890 l 172 890 b 214 938 196 890 214 910 b 163 1017 218 985 142 990 b 229 997 185 1044 224 1008 b 347 794 260 947 261 849 b 399 738 374 778 390 758 b 390 624 417 699 407 656 b 336 582 374 596 350 585 b 301 690 263 575 240 625 b 324 761 328 718 331 743 b 267 801 317 785 293 801 l 228 801 l 39 801 b 111 726 103 792 122 751 b 121 643 97 700 106 668 b 193 582 136 615 164 594 b 199 579 194 582 197 581 b 315 557 236 565 275 557 l 364 557 b 482 579 375 557 440 561 b 574 718 538 603 574 658 b 442 875 574 799 508 839 b 328 947 400 897 356 918 b 403 1021 254 1024 403 1021 b 446 997 403 1021 454 1022 b 438 944 446 997 433 974 z m 1324 713 b 1290 972 1378 817 1261 903 b 1344 1043 1319 1043 1344 1043 l 1110 1043 b 932 906 943 1043 944 881 b 829 1043 911 944 925 1039 l 661 1043 l 664 1042 l 661 1042 b 682 901 661 1042 710 985 b 700 714 654 815 661 799 b 675 556 740 629 675 556 l 842 556 b 924 631 885 556 921 589 b 876 753 928 667 918 711 b 800 1000 803 826 797 944 b 819 1021 800 1007 801 1024 b 883 929 844 1017 879 985 b 899 793 886 882 888 838 b 983 728 908 754 943 728 l 1057 728 b 1151 1010 1057 728 983 892 b 1179 994 1164 1018 1181 1010 b 1117 833 1175 954 1161 888 b 1086 622 1071 779 1068 686 b 1174 556 1097 583 1133 556 b 1369 556 1246 556 1371 556 b 1324 713 1367 556 1269 607 z "},"−":{"ha":1108,"x_min":0,"x_max":0,"o":"m 1067 407 l 0 407 l 0 363 l 1067 363 l 1067 407 z "},"≈":{"ha":1482,"x_min":0,"x_max":0,"o":"m 0 99 b 65 129 0 99 25 111 b 138 160 86 139 110 149 b 231 188 165 169 197 179 b 444 196 297 204 374 211 b 550 158 481 189 515 176 b 651 93 585 142 619 119 l 685 69 l 692 64 b 700 57 694 61 697 60 l 721 44 l 740 32 b 761 21 747 28 754 25 b 801 1 775 14 788 7 b 976 -40 857 -22 917 -37 b 1142 -18 1035 -43 1092 -35 b 1268 46 1190 -3 1233 21 b 1354 121 1303 69 1332 96 b 1407 190 1376 146 1393 169 b 1433 238 1419 210 1428 226 b 1440 256 1438 250 1440 256 b 1376 224 1440 256 1417 243 b 1303 193 1356 215 1331 204 b 1211 165 1275 183 1244 172 b 1107 150 1178 157 1143 151 b 1001 161 1072 149 1036 153 b 896 203 965 169 931 183 b 871 217 888 207 879 213 l 858 225 l 847 233 b 793 272 835 240 808 261 b 638 363 747 310 694 340 b 463 397 581 385 521 397 b 299 371 403 399 347 388 b 174 307 250 354 208 331 b 88 232 139 282 111 256 b 35 164 65 207 49 183 b 8 117 22 144 14 128 b 0 99 3 104 0 99 z m 0 560 b 65 590 0 560 25 572 b 138 621 86 600 110 610 b 231 649 165 631 197 640 b 444 657 297 665 374 672 b 550 619 481 650 515 638 b 651 554 585 603 619 581 l 685 531 l 692 525 b 700 518 694 522 697 521 l 721 506 l 740 493 b 761 482 747 489 754 486 b 801 463 775 475 788 468 b 976 421 857 439 917 424 b 1142 443 1035 418 1092 426 b 1268 507 1190 458 1233 482 b 1354 582 1303 531 1332 557 b 1407 651 1376 607 1393 631 b 1433 699 1419 671 1428 688 b 1440 717 1438 711 1440 717 b 1376 685 1440 717 1417 704 b 1303 654 1356 676 1331 665 b 1211 626 1275 644 1244 633 b 1107 611 1178 618 1143 613 b 1001 622 1072 610 1036 614 b 896 664 965 631 931 644 b 871 678 888 668 879 674 l 858 686 l 847 694 b 793 733 835 701 808 722 b 638 824 747 771 694 801 b 463 858 581 846 521 858 b 299 832 403 860 347 849 b 174 768 250 815 208 792 b 88 693 139 743 111 717 b 35 625 65 668 49 644 b 8 578 22 606 14 589 b 0 560 3 565 0 560 z "},"≤":{"ha":497,"x_min":0,"x_max":0,"o":"m 436 838 l 436 910 l 36 424 l 7 388 l 36 351 l 436 -135 l 436 -62 l 65 388 l 436 838 z m 456 -196 l 0 -196 l 0 -240 l 456 -240 l 456 -196 z "},"≥":{"ha":497,"x_min":0,"x_max":0,"o":"m 7 838 l 378 388 l 7 -62 l 7 -135 l 407 351 l 436 388 l 407 424 l 7 910 z m 456 -196 l 0 -196 l 0 -240 l 456 -240 l 456 -196 z "},"ﬁ":{"ha":1842,"x_min":0,"x_max":0,"o":"m 760 714 l 1129 714 b 1244 889 1219 714 1282 807 b 933 1047 1200 988 1096 1047 l 93 1047 b 207 833 93 1047 193 971 b 99 714 214 769 164 714 l 0 714 b 46 668 0 688 21 668 l 182 668 b 164 625 178 654 171 640 b 171 56 68 436 93 226 b 93 -278 250 -115 93 -278 l 624 -278 b 742 -192 678 -278 725 -243 b 656 75 760 -139 753 -25 b 493 481 457 281 488 454 b 517 561 499 510 508 536 b 665 668 539 625 599 668 l 726 668 b 682 714 726 693 707 714 l 651 714 l 539 714 b 513 797 535 739 526 765 b 613 982 457 917 454 985 b 760 714 939 976 840 785 z m 1678 -281 b 1797 -194 1732 -281 1779 -246 b 1710 72 1814 -142 1807 -28 b 1601 215 1661 122 1626 171 b 1668 656 1503 419 1599 578 b 1725 711 1699 692 1725 711 l 1400 711 b 1201 582 1314 711 1236 660 b 1175 510 1192 560 1182 535 b 1226 53 1135 353 1163 190 b 1147 -281 1304 -118 1147 -281 l 1678 -281 z m 1476 750 b 1676 897 1586 750 1676 815 b 1476 1044 1676 978 1586 1044 b 1275 897 1365 1044 1275 978 b 1476 750 1275 815 1365 750 z "},"ﬂ":{"ha":1921,"x_min":0,"x_max":0,"o":"m 760 714 l 1129 714 b 1244 889 1219 714 1282 807 b 933 1047 1200 988 1096 1047 l 93 1047 b 207 833 93 1047 193 971 b 99 714 214 769 164 714 l 0 714 b 46 668 0 688 21 668 l 182 668 b 164 625 178 654 171 640 b 171 56 68 436 93 226 b 93 -278 250 -115 93 -278 l 624 -278 b 742 -192 678 -278 725 -243 b 656 75 760 -139 753 -25 b 493 481 457 281 488 454 b 517 561 499 510 508 536 b 665 668 539 625 599 668 l 726 668 b 682 714 726 693 707 714 l 651 714 l 539 714 b 513 797 535 739 526 765 b 613 982 457 917 454 985 b 760 714 939 976 840 785 z m 1747 1047 l 1218 1047 b 1296 714 1218 1047 1374 883 b 1288 143 1218 543 1193 333 b 1218 -278 1421 -121 1218 -278 l 1785 -278 b 1672 -112 1767 -267 1672 -199 b 1683 -32 1672 -86 1676 -60 b 1631 268 1715 89 1661 199 b 1671 603 1583 379 1599 507 b 1671 603 1671 603 1671 603 b 1671 604 1671 603 1671 604 b 1819 774 1692 638 1733 693 b 1867 961 1886 836 1885 907 b 1747 1047 1850 1013 1801 1047 z "},"Œ":{"ha":2499,"x_min":0,"x_max":0,"o":"m 853 324 b 631 -50 779 164 706 40 b 453 -164 556 -140 496 -178 b 419 38 413 -143 401 -75 b 553 446 438 150 482 286 b 775 819 626 606 700 729 b 951 931 849 908 908 946 b 986 732 992 910 1004 844 b 853 324 968 619 924 483 z m 1215 838 b 1057 958 1169 883 1117 924 b 703 1047 950 1018 832 1047 b 350 958 574 1047 456 1018 b 96 718 243 899 158 818 b 0 385 32 618 0 507 b 96 51 0 263 32 151 b 350 -187 158 -49 243 -128 b 703 -278 456 -247 574 -278 b 1057 -187 832 -278 950 -247 b 1136 -136 1085 -172 1111 -156 b 1242 -206 1168 -162 1203 -185 b 1543 -278 1332 -254 1433 -278 l 2107 -278 b 2268 -247 2163 -278 2217 -268 b 2297 -233 2286 -239 2296 -235 l 2299 -233 b 2429 -104 2363 -201 2406 -158 b 2463 49 2451 -50 2463 1 b 2438 113 2463 74 2454 94 b 2372 139 2419 131 2399 139 l 1899 139 b 1925 90 1908 121 1918 106 b 1933 75 1928 85 1931 79 b 1989 -79 1963 18 1982 -33 b 1969 -190 1996 -125 1990 -162 b 1857 -233 1949 -219 1911 -233 b 1700 -167 1817 -233 1764 -211 b 1536 24 1636 -122 1582 -58 b 1476 319 1490 106 1469 204 b 1483 347 1476 325 1479 335 b 1506 388 1488 360 1494 374 b 1556 421 1517 400 1533 411 b 1643 407 1582 428 1611 424 b 1744 340 1674 390 1707 368 b 1833 278 1772 319 1801 299 b 1935 226 1865 257 1899 240 b 2047 206 1969 213 2007 206 b 2160 243 2096 206 2133 218 b 2217 335 2186 268 2204 299 b 2238 440 2229 369 2236 406 b 2239 525 2239 475 2240 503 b 2239 529 2239 526 2239 528 b 2238 533 2238 531 2238 532 l 2238 535 b 2236 549 2236 540 2236 544 l 2235 551 l 2235 554 b 2226 543 2232 550 2229 547 b 2219 538 2222 539 2221 538 l 2219 536 b 2110 492 2201 517 2165 501 b 1865 539 2053 481 1972 496 b 1696 556 1799 565 1742 571 b 1568 486 1649 539 1606 515 b 1553 475 1564 482 1558 479 b 1482 479 1529 460 1506 461 b 1447 560 1458 497 1446 524 b 1549 761 1457 638 1492 704 b 1740 900 1606 818 1669 864 b 1922 978 1811 935 1871 961 l 1924 978 b 1926 979 1925 979 1925 979 b 1933 982 1928 981 1931 981 b 1961 992 1940 985 1950 988 b 1992 1001 1971 994 1982 997 b 2013 1007 2000 1003 2007 1006 b 1972 986 2006 1004 1993 997 b 1904 938 1949 974 1926 957 b 1822 801 1858 892 1832 847 b 1815 707 1814 767 1811 735 b 1846 651 1819 683 1829 665 b 1904 629 1863 636 1882 629 l 2393 629 b 2363 688 2381 650 2371 669 l 2360 693 b 2332 831 2336 742 2326 788 b 2369 943 2338 874 2350 911 b 2426 1019 2389 975 2408 1001 b 2451 1043 2440 1032 2449 1040 l 2454 1046 l 1892 1046 b 1449 967 1740 1046 1592 1019 b 1215 838 1369 936 1292 893 z "},"œ":{"ha":2244,"x_min":0,"x_max":0,"o":"m 629 -224 b 499 -94 578 -224 535 -181 b 444 218 463 -8 444 96 b 499 529 444 339 463 443 b 629 658 535 615 578 658 b 758 529 679 658 722 615 b 813 218 794 443 813 339 b 758 -94 813 96 794 -8 b 629 -224 722 -181 679 -224 z m 1499 333 b 1540 429 1508 365 1522 397 b 1665 594 1586 506 1628 560 b 1761 654 1703 628 1735 647 b 1814 658 1783 661 1801 663 b 1847 631 1826 654 1838 644 b 1863 471 1869 594 1875 542 b 1801 357 1853 426 1833 389 b 1711 307 1775 335 1746 318 b 1608 283 1676 294 1642 288 b 1524 278 1574 279 1546 278 b 1486 278 1500 276 1488 276 b 1499 333 1489 296 1493 315 z m 1136 -75 b 1233 -169 1164 -114 1197 -146 b 1392 -247 1286 -207 1339 -232 b 1522 -274 1443 -262 1488 -272 b 1572 -278 1550 -276 1567 -278 l 2196 -278 b 2114 -153 2156 -235 2128 -193 b 2100 -40 2100 -112 2096 -75 b 2125 50 2104 -6 2113 24 b 2161 110 2138 75 2149 94 b 2175 129 2168 119 2172 125 l 2178 132 l 1918 132 b 1774 100 1839 132 1792 121 b 1768 18 1756 78 1753 50 b 1825 -81 1782 -14 1801 -47 b 1871 -156 1844 -108 1860 -133 b 1871 -208 1882 -179 1882 -196 b 1782 -219 1858 -221 1829 -224 b 1642 -153 1736 -215 1690 -193 b 1521 4 1593 -112 1553 -61 b 1481 218 1489 68 1475 139 l 2019 218 b 2164 290 2081 218 2129 242 b 2188 453 2199 339 2206 393 b 2185 460 2186 454 2186 457 l 2182 468 b 2124 574 2168 506 2149 540 b 2006 674 2094 614 2054 647 b 1819 714 1957 700 1894 714 l 1614 714 b 1365 672 1515 714 1433 700 b 1197 568 1297 643 1240 608 b 1140 506 1176 549 1157 528 b 944 647 1088 563 1022 610 b 629 714 849 692 744 714 b 313 647 514 714 408 692 b 85 467 217 601 142 542 b 0 218 28 392 0 308 b 85 -32 0 126 28 43 b 313 -211 142 -107 217 -167 b 629 -278 408 -256 514 -278 b 944 -211 744 -278 849 -256 b 1136 -75 1021 -175 1085 -131 z "},"Š":{"ha":1588,"x_min":0,"x_max":0,"o":"m 985 776 b 1179 631 999 685 1088 631 l 1546 631 b 1488 1047 1279 897 1488 1047 l 639 1047 b 354 983 560 1047 442 1031 b 267 911 318 965 288 940 b 269 703 231 860 224 792 b 285 674 274 693 279 683 b 846 275 390 499 660 389 b 1031 15 969 199 1056 119 b 686 -197 979 -206 817 -200 b 617 83 628 -196 403 -97 b 676 276 696 151 693 226 b 521 385 654 342 590 385 l 0 385 b 117 183 172 360 149 249 b 122 -46 82 110 82 24 b 318 -211 164 -122 239 -176 b 336 -218 324 -214 331 -215 b 651 -278 436 -258 543 -278 l 783 -278 b 1107 -219 814 -278 990 -260 b 1489 158 1290 -157 1489 -4 b 1028 615 1489 379 1210 518 b 688 783 911 678 763 706 b 889 985 488 992 889 985 b 1007 919 889 985 1032 988 b 985 776 1007 918 972 857 z m 443 1438 l 772 1113 l 1103 1438 l 1038 1438 l 772 1176 l 508 1438 z "},"š":{"ha":1281,"x_min":0,"x_max":0,"o":"m 874 393 b 717 379 821 394 769 389 b 476 363 667 368 569 354 b 508 628 378 372 324 532 b 631 656 546 647 588 656 l 682 656 b 535 557 682 656 569 629 b 600 460 513 511 547 460 l 1038 460 b 983 714 1038 460 824 551 l 558 714 b 1 385 558 714 -35 747 b 700 247 36 32 525 324 b 601 -178 822 194 757 -189 b 504 113 463 -168 621 31 b 397 131 479 131 428 131 l 1 131 b 103 -61 1 131 92 63 b 483 -278 118 -235 242 -278 b 874 393 1340 -278 1429 381 z m 283 1106 l 613 781 l 943 1106 l 878 1106 l 613 844 l 349 1106 z "},"Ÿ":{"ha":1749,"x_min":0,"x_max":0,"o":"m 1240 36 b 1501 786 1707 413 1557 689 b 1557 1046 1411 940 1557 1046 l 1165 1046 b 1003 986 1103 1046 1043 1026 b 1031 774 929 914 971 832 b 1099 700 1065 740 1097 700 b 746 485 1188 599 1019 367 b 671 657 674 517 618 574 b 568 1046 867 968 615 1046 l 0 1046 b 113 740 0 1046 221 954 b 1008 392 4 526 253 158 b 1313 568 1008 392 1192 439 b 714 197 1313 568 1301 300 b 413 -101 456 153 406 14 b 604 -278 419 -201 504 -278 l 1299 -278 l 1288 -271 b 1240 36 1121 -203 1157 -32 z m 626 1401 b 506 1279 560 1401 506 1346 b 626 1157 506 1211 560 1157 b 749 1279 694 1157 749 1211 b 626 1401 749 1346 694 1401 z m 942 1401 b 821 1279 875 1401 821 1346 b 942 1157 821 1211 875 1157 b 1064 1279 1010 1157 1064 1211 b 942 1401 1064 1346 1010 1401 z "},"ž":{"ha":1361,"x_min":0,"x_max":0,"o":"m 1319 131 l 881 131 b 731 -86 769 131 690 19 b 817 -219 746 -128 774 -174 b 578 -14 817 -219 521 -169 b 1165 529 635 142 1072 351 b 1306 714 1251 692 1306 714 l 46 714 b 26 460 46 714 174 615 l 446 460 b 497 626 536 460 572 578 b 429 657 481 638 458 649 b 710 546 429 657 732 713 b 289 243 694 431 535 360 b 78 -64 160 182 81 78 b -35 -278 75 -153 53 -278 l 1246 -278 b 1319 131 1246 -278 1068 26 z m 314 1106 l 643 781 l 974 1106 l 908 1106 l 643 844 l 379 1106 z "},"‰":{"ha":1544,"x_min":0,"x_max":0,"o":"m 825 1049 l 774 1049 l 121 -275 l 172 -275 z m 236 1007 b 0 724 106 1007 0 881 b 236 439 0 567 106 439 b 472 724 367 439 472 567 b 236 1007 472 881 367 1007 z m 236 463 b 113 724 168 463 113 579 b 236 985 113 867 168 985 b 360 724 306 985 360 867 b 236 463 360 579 306 463 z m 728 318 b 492 35 597 318 492 192 b 728 -250 492 -122 597 -250 b 964 35 858 -250 964 -122 b 728 318 964 192 858 318 z m 728 -226 b 604 35 660 -226 604 -110 b 728 294 604 178 660 294 b 851 35 796 294 851 178 b 728 -226 851 -110 796 -226 z m 1267 318 b 1031 35 1136 318 1031 192 b 1267 -250 1031 -122 1136 -250 b 1503 35 1397 -250 1503 -122 b 1267 318 1503 192 1397 318 z m 1267 -226 b 1143 35 1199 -226 1143 -110 b 1267 294 1143 178 1199 294 b 1390 35 1335 294 1390 178 b 1267 -226 1390 -110 1335 -226 z "}}}
